<svg width="52" height="48" viewBox="0 0 52 48" fill="none" xmlns="http://www.w3.org/2000/svg">
<path d="M45.5264 12.9697C43.9527 12.96 42.3695 12.96 40.7958 12.9504C39.6013 12.9504 38.3974 12.9407 37.2029 12.96C36.9469 12.96 36.7479 12.8827 36.5583 12.7182C35.4301 11.7704 34.302 10.8226 33.1549 9.88445C32.9558 9.72003 32.8231 9.54594 32.8705 9.27514C32.9179 9.014 32.7947 8.9463 32.5482 8.95597C31.9794 8.97531 31.4106 8.97531 30.8418 8.95597C30.6048 8.9463 30.4815 9.014 30.5195 9.27514C30.5669 9.54594 30.4721 9.64266 30.1877 9.68134C27.5333 9.99084 24.8788 10.3293 22.2244 10.6582C22.1296 10.6679 22.0254 10.6388 21.94 10.7356C21.978 10.8903 22.1012 10.958 22.196 11.0547C24.4902 13.3953 26.7654 15.7455 29.0785 18.0667C30.0644 19.0629 30.5289 20.2331 30.5195 21.6259C30.51 22.6124 30.51 23.6085 30.5195 24.5951C30.5195 24.8369 30.4626 24.9626 30.2066 24.9239C30.1308 24.9142 30.0549 24.9239 29.9791 24.9239C29.4198 24.9239 29.4198 24.9239 29.3439 24.3533C28.4623 25.1947 27.4385 25.688 26.244 25.688C25.059 25.688 24.0351 25.2431 23.1914 24.3823C23.0682 24.4403 23.1156 24.5467 23.1156 24.6241C23.1156 26.8389 23.1156 29.0537 23.1061 31.2685C23.1061 31.5296 23.163 31.6264 23.4379 31.6264C25.3149 31.6167 27.2015 31.6167 29.0785 31.6264C29.325 31.6264 29.4008 31.549 29.3913 31.2975C29.3819 29.692 29.3913 28.0769 29.3724 26.4714C29.3724 26.1425 29.4672 26.0652 29.78 26.0748C30.5195 26.0942 30.5195 26.0845 30.5195 26.8195C30.5195 28.2896 30.5289 29.7501 30.5195 31.2201C30.5195 31.5393 30.5858 31.636 30.9082 31.636C32.9179 31.6167 34.9182 31.636 36.928 31.6264C37.1839 31.6264 37.383 31.6844 37.5537 31.8875C37.7338 32.1003 37.9234 32.3227 38.1414 32.4871C38.8714 33.0288 39.0989 33.7251 39.0325 34.6439C38.9472 35.8819 39.0041 37.1392 39.0136 38.3869C39.0136 38.677 38.9377 38.7544 38.6533 38.7544C30.3773 38.7447 22.1012 38.7447 13.8251 38.7544C13.5218 38.7544 13.4364 38.6577 13.4459 38.3578C13.4649 37.6615 13.4649 36.9651 13.4554 36.2688C13.4554 36.056 13.5218 35.9883 13.7303 35.9786C14.593 35.9593 14.593 35.9496 14.593 36.8297C14.593 37.5841 14.593 37.5841 15.3324 37.5841C22.689 37.5841 30.0455 37.5841 37.3925 37.5938C37.7622 37.5938 37.8855 37.5261 37.876 37.1199C37.8381 36.1527 37.857 35.1855 37.8665 34.228C37.8665 33.9766 37.7812 33.8122 37.6295 33.6187C37.1271 32.9514 36.4919 32.7773 35.6766 32.7773C29.1638 32.816 22.6605 32.7966 16.1477 32.787C15.797 32.787 15.5031 32.845 15.2945 33.1448C15.2092 33.2609 15.1144 33.3576 15.0006 33.4446C14.6688 33.6961 14.5266 34.0249 14.593 34.4408C14.6309 34.7213 14.5551 34.847 14.2328 34.8374C13.4554 34.818 13.4838 34.8277 13.4459 34.054C13.4175 33.5607 13.5692 33.2028 13.9294 32.8837C14.3655 32.4968 14.6973 31.9068 15.1997 31.6941C15.6927 31.4813 16.3373 31.6264 16.9156 31.6264C18.4798 31.6264 20.044 31.6167 21.6082 31.6264C21.8926 31.6264 21.9685 31.549 21.959 31.2588C21.9495 28.6862 21.9495 26.1135 21.959 23.5408C21.959 23.2604 21.8832 23.0669 21.6841 22.8638C17.2569 18.3568 12.8297 13.8402 8.40254 9.33317C8.0423 8.96564 7.69154 8.60779 7.41662 8.17256C7.34077 7.99848 7.34077 7.91143 7.53038 7.81471C7.76738 7.69865 7.98542 7.46653 8.2319 7.45686C8.50682 7.43752 8.5637 7.82438 8.74382 7.99847C10.2891 9.56529 11.8248 11.1514 13.3701 12.7182C16.8682 16.2871 20.3663 19.8463 23.855 23.4248C24.7935 24.392 25.9027 24.7788 27.192 24.3629C29.3819 23.6569 30.1782 20.8038 28.358 18.9661C25.9216 16.4999 23.5042 14.0143 21.0773 11.5383C18.5272 8.93663 15.9676 6.33495 13.427 3.7236C12.4316 2.70807 11.294 2.35989 9.94779 2.8338C8.6585 3.2787 7.7579 4.73912 7.93802 6.1125C7.97594 6.41232 7.89062 6.48969 7.63466 6.53805C6.77197 6.73149 6.77197 6.74116 6.77197 5.81268C6.78145 2.57267 10.1563 0.464244 12.9624 1.96335C13.4459 2.22449 13.9389 2.17613 14.4318 2.21482C17.9395 2.46628 21.4566 2.6984 24.9642 2.93052C25.2012 2.94986 25.3339 2.98855 25.258 3.25936C25.2486 3.29804 25.2486 3.33673 25.2486 3.37542C25.2012 4.13948 25.2012 4.12014 24.4333 4.07178C21.267 3.84933 18.0911 3.63655 14.9248 3.4141C14.8869 3.4141 14.849 3.4141 14.811 3.42378C14.7921 3.56885 14.9153 3.61721 14.9912 3.69458C16.8682 5.61924 18.7547 7.53424 20.6318 9.4589C20.7835 9.61364 20.9257 9.662 21.1342 9.63299C23.7602 9.30415 26.3862 8.97531 29.0216 8.65615C29.2965 8.62713 29.4103 8.55943 29.4103 8.24027C29.3913 7.07967 29.3913 5.91907 29.4103 4.76814C29.4103 4.49733 29.3629 4.38127 29.069 4.3716C28.2727 4.34258 27.4859 4.26521 26.6895 4.21685C26.4336 4.20718 26.3577 4.10079 26.3767 3.83966C26.4146 3.04658 26.4051 3.03691 27.1635 3.08527C28.1874 3.1433 29.2017 3.23034 30.2256 3.28837C30.491 3.29804 30.5858 3.40443 30.5479 3.65589C30.5005 3.95572 30.6237 4.02342 30.8987 4.01375C31.4485 3.9944 32.0078 3.9944 32.5672 4.01375C32.8136 4.02342 32.9274 3.95572 32.8895 3.69458C32.8421 3.4141 32.9748 3.24968 33.1834 3.08527C33.7616 2.62103 34.321 2.14711 34.8803 1.6732C35.0225 1.55714 35.0983 1.52813 35.2405 1.69255C35.8378 2.38891 35.8378 2.37923 35.1457 2.94986C34.776 3.25936 34.2736 3.51082 34.084 3.90736C33.8944 4.3039 34.0271 4.86485 34.0271 5.35811C34.0271 6.49937 34.0271 7.6503 34.0176 8.79155C34.0176 9.00433 34.084 9.1494 34.2451 9.27514C35.1836 10.0489 36.1222 10.8323 37.0607 11.6157C37.1934 11.7317 37.3261 11.7898 37.5063 11.7898C39.7056 11.7898 41.8955 11.7801 44.0949 11.7898C44.3793 11.7898 44.4551 11.6834 44.4172 11.4319C44.3508 11.0741 44.512 10.987 44.8343 11.016C45.0713 11.0451 45.3178 11.0257 45.5548 11.0257C45.5264 11.6834 45.5264 12.3314 45.5264 12.9697ZM32.7378 6.48969C32.7378 6.15119 32.7283 5.82235 32.7378 5.48384C32.7473 5.26139 32.6999 5.16468 32.4534 5.16468C31.9036 5.18402 31.3442 5.18402 30.7849 5.16468C30.5574 5.155 30.5195 5.25172 30.5195 5.45483C30.5289 6.13184 30.5289 6.81853 30.5195 7.50522C30.5195 7.70832 30.5479 7.80504 30.7849 7.80504C31.003 7.80504 31.0788 7.73734 31.0598 7.51489C31.0409 7.32146 31.0598 7.12802 31.0598 6.93459C31.0598 6.02545 31.0598 6.03513 31.9699 6.09316C32.15 6.10283 32.2069 6.17053 32.2069 6.34462C32.1974 6.74116 32.2164 7.14737 32.1974 7.54391C32.188 7.75668 32.2733 7.80504 32.4629 7.79537C32.6335 7.7857 32.7568 7.7857 32.7473 7.55358C32.7283 7.2054 32.7378 6.84755 32.7378 6.48969Z" fill="#BBBBBB"/>
<path d="M19.6407 41.0003C21.076 40.9773 22.2657 42.1286 22.3117 43.5946C22.3578 45.0069 21.1604 46.2657 19.7328 46.2887C18.2514 46.3271 16.9773 45.1221 17.0003 43.6714C17.0233 42.0672 18.2821 41.0003 19.6407 41.0003ZM18.2591 43.633C18.2591 44.4313 18.8731 45.0607 19.6407 45.0607C20.4312 45.0607 21.053 44.4466 21.053 43.6561C21.0606 42.8655 20.4312 42.2207 19.6714 42.2284C18.8731 42.2361 18.2591 42.8425 18.2591 43.633Z" fill="#BBBBBB"/>
<path d="M32.6407 41.0003C34.076 40.9773 35.2657 42.1286 35.3117 43.5946C35.3578 45.0069 34.1604 46.2657 32.7328 46.2887C31.2514 46.3194 29.9773 45.1221 30.0003 43.6714C30.0233 42.0672 31.2821 41.0003 32.6407 41.0003ZM31.2591 43.633C31.2591 44.4313 31.8731 45.0607 32.6407 45.0607C33.4312 45.0607 34.053 44.4466 34.053 43.6561C34.0606 42.8655 33.4312 42.2207 32.6714 42.2284C31.8731 42.2361 31.2591 42.8425 31.2591 43.633Z" fill="#BBBBBB"/>
<path d="M45.5264 9.88445C45.2515 9.88445 44.9671 9.8651 44.6922 9.88445C44.4362 9.90379 44.3414 9.7974 44.3888 9.55561C44.4552 9.17842 44.3035 9.06236 43.9432 9.10104C43.5925 9.13973 43.2322 9.13006 42.8815 9.10104C42.616 9.0817 42.5118 9.18809 42.5497 9.44922C42.616 9.82642 42.4549 9.92313 42.0946 9.91346C40.8053 9.89412 39.5255 9.89412 38.2363 9.90379C37.9803 9.90379 37.7812 9.83609 37.5916 9.662C37.0892 9.2171 36.5678 8.79155 36.0369 8.36599C35.8852 8.24026 35.8188 8.11453 35.8188 7.91143C35.8283 6.9636 35.8283 6.00611 35.8188 5.05828C35.8188 4.85518 35.8852 4.72945 36.0369 4.60371C36.3971 4.32324 36.7763 4.05243 37.0892 3.72359C37.6011 3.17231 38.1983 3.02723 38.9188 3.06592C39.9901 3.11428 41.0613 3.08526 42.1326 3.06592C42.4264 3.06592 42.5592 3.11428 42.5497 3.46246C42.5307 3.81064 42.379 4.28455 42.616 4.49733C42.8436 4.70043 43.2891 4.55536 43.6399 4.55536C44.3793 4.56503 44.3793 4.55536 44.3793 3.82998C44.3793 3.04658 44.3698 2.26317 44.3793 1.47977C44.3793 1.26699 44.3224 1.18962 44.1044 1.18962C41.8861 1.19929 39.6677 1.19929 37.4494 1.18962C37.184 1.18962 37.0418 1.36371 36.8711 1.50878C36.7195 1.64418 36.6247 1.66353 36.473 1.47977C35.8947 0.793077 35.8947 0.81242 36.5773 0.23212C36.7669 0.0677017 36.9565 0.0193433 37.1935 0.0193433C39.8953 0.029015 42.5876 0.0193433 45.2894 0.0193433C45.3652 0.0193433 45.4411 0.00967167 45.5169 0C45.5169 1.90532 45.5169 3.81064 45.5169 5.71596C44.2561 5.71596 42.9952 5.70629 41.7344 5.72563C41.4689 5.72563 41.3836 5.64826 41.4026 5.37745C41.4215 5.10664 41.3931 4.83583 41.4121 4.56503C41.4215 4.32324 41.3552 4.22652 41.0897 4.23619C40.4261 4.25553 39.7531 4.27488 39.0895 4.22652C38.5207 4.18783 38.1035 4.39094 37.658 4.73912C37.1366 5.14533 36.9849 5.58055 36.9375 6.2479C36.8617 7.28277 37.1461 8.01781 38.0277 8.54008C38.2173 8.65615 38.3785 8.75286 38.606 8.75286C39.3833 8.74319 40.1702 8.72385 40.9475 8.75286C41.3078 8.76253 41.4595 8.66582 41.4026 8.28862C41.3741 8.07584 41.4026 7.93077 41.687 7.94044C42.9573 7.95978 44.2371 7.95011 45.5074 7.95978C45.5264 8.59811 45.5264 9.23644 45.5264 9.88445Z" fill="#BBBBBB"/>
<path d="M28.6709 21.239C28.6709 22.6704 27.5239 23.8504 26.1303 23.831C24.7462 23.8117 23.5991 22.6511 23.5991 21.2487C23.5991 19.8173 24.7462 18.6567 26.1493 18.6567C27.5333 18.6567 28.6615 19.8173 28.6709 21.239ZM26.6991 21.2197C26.6991 21.5678 26.7086 21.916 26.6991 22.2545C26.6896 22.5157 26.7939 22.4963 26.9645 22.3803C27.704 21.8773 27.7135 20.6104 26.9645 20.0978C26.9077 20.0591 26.8223 20.001 26.7655 20.0107C26.6612 20.0397 26.6991 20.1655 26.6991 20.2428C26.6991 20.5813 26.6991 20.9005 26.6991 21.2197ZM25.5615 19.9817C24.6135 20.4846 24.4902 21.7613 25.2771 22.3513C25.3434 22.3996 25.4098 22.4867 25.5046 22.4576C25.5805 22.4383 25.5615 22.3513 25.5615 22.2932C25.5615 21.5388 25.5615 20.7844 25.5615 19.9817Z" fill="#BBBBBB"/>
<path d="M13.5978 5.86101C13.5978 7.29241 12.4507 8.47236 11.0571 8.45301C9.66354 8.44334 8.53542 7.28274 8.52594 5.87068C8.51646 4.45861 9.69198 3.269 11.0761 3.27867C12.4791 3.29801 13.5978 4.43927 13.5978 5.86101ZM11.4647 4.50697C10.9528 4.37157 10.4693 4.45861 10.0807 4.86482C9.69198 5.27103 9.56874 5.75462 9.73938 6.26722C10.3177 5.68692 10.8865 5.09694 11.4647 4.50697ZM12.4127 5.5225C11.8629 6.09313 11.2941 6.67343 10.7348 7.24405C11.2467 7.36011 11.7397 7.25373 12.1378 6.77981C12.4696 6.38328 12.536 5.92871 12.4127 5.5225Z" fill="#BBBBBB"/>
<path d="M17.3325 33.5994C17.7685 33.5994 18.2141 33.6091 18.6502 33.5994C18.8682 33.5897 18.963 33.6478 18.9536 33.8992C18.9441 34.8277 18.9346 35.7465 18.9536 36.675C18.9536 36.9265 18.8588 36.9748 18.6407 36.9748C17.7496 36.9651 16.849 36.9651 15.9579 36.9845C15.6924 36.9845 15.645 36.8781 15.645 36.646C15.6545 35.7465 15.664 34.847 15.645 33.9476C15.645 33.6671 15.7398 33.5994 15.9958 33.6091C16.4508 33.6091 16.8869 33.5994 17.3325 33.5994ZM17.3419 34.76C17.0955 34.7793 16.7542 34.6246 16.7921 35.1469C16.83 35.7852 16.8016 35.7949 17.2661 35.7852C17.5221 35.7852 17.8539 35.9206 17.8159 35.3983C17.778 34.6826 17.8823 34.7793 17.3419 34.76Z" fill="#BBBBBB"/>
<path d="M19.4944 35.2242C19.4944 34.7793 19.5039 34.3247 19.4944 33.8798C19.485 33.6574 19.5608 33.5897 19.7788 33.5897C20.6984 33.5993 21.618 33.5993 22.5375 33.5897C22.7366 33.5897 22.803 33.6574 22.803 33.8605C22.7935 34.7986 22.803 35.7368 22.803 36.6749C22.803 36.8877 22.7271 36.9651 22.5186 36.9651C21.599 36.9554 20.6794 36.9554 19.7599 36.9651C19.5608 36.9651 19.4944 36.8974 19.5039 36.6943C19.5039 36.201 19.4944 35.7174 19.4944 35.2242ZM21.0776 34.7599C20.7742 34.6922 20.5941 34.7793 20.6226 35.2242C20.67 35.8335 20.5372 35.7851 21.1155 35.7948C21.6464 35.7948 21.6464 35.7948 21.6464 35.3112C21.6464 34.6729 21.6938 34.7696 21.0776 34.7599Z" fill="#BBBBBB"/>
<path d="M17.3985 9.13007C17.4554 9.1881 17.5217 9.22678 17.5691 9.28481C19.5031 11.2578 21.437 13.2309 23.3709 15.1942C23.5036 15.3296 23.5321 15.407 23.3899 15.5617C22.7832 16.2387 22.7832 16.2387 22.148 15.5907C20.4795 13.8885 18.8205 12.1863 17.152 10.4938C16.5927 9.92314 16.5927 9.92314 17.171 9.35251C17.2373 9.27514 17.3132 9.20744 17.3985 9.13007Z" fill="#BBBBBB"/>
<path d="M44.7486 39.7674C44.8055 39.8254 44.8718 39.8641 44.9192 39.9221C46.8532 41.8951 48.1134 42.991 50.0473 44.9543C50.18 45.0897 50.2085 45.1671 50.0663 45.3219C49.4595 45.9989 49.4595 45.9989 48.8244 45.3509C47.1559 43.6487 46.1706 42.8236 44.5021 41.1311C43.9428 40.5604 43.9428 40.5604 44.5211 39.9898C44.5874 39.9124 44.6633 39.8447 44.7486 39.7674Z" fill="#BBBBBB"/>
<path d="M7.54926 39.7674C7.49238 39.8254 7.42602 39.8641 7.37862 39.9221C5.44469 41.8951 4.18448 42.991 2.25055 44.9543C2.11783 45.0897 2.08939 45.1671 2.23159 45.3219C2.83831 45.9989 2.83831 45.9989 3.47347 45.3509C5.14196 43.6487 6.12725 42.8236 7.79574 41.1311C8.35506 40.5604 8.35506 40.5604 7.77678 39.9898C7.71042 39.9124 7.63458 39.8447 7.54926 39.7674Z" fill="#BBBBBB"/>
<path d="M21.8354 6.14151C20.8779 6.14151 19.9204 6.13184 18.963 6.14151C18.7165 6.14151 18.6406 6.07381 18.6406 5.81267C18.6406 4.96156 18.6311 4.96156 19.4749 4.96156C21.2002 4.96156 22.9256 4.97123 24.6605 4.96156C24.9543 4.96156 25.0491 5.04861 25.0397 5.34843C25.0207 6.13184 25.0397 6.13184 24.2623 6.13184C23.447 6.14151 22.6412 6.14151 21.8354 6.14151Z" fill="#BBBBBB"/>
<path d="M29.7229 34.9728C28.9171 34.9728 28.1113 34.9631 27.3055 34.9824C27.0496 34.9824 26.9927 34.9051 26.9927 34.6536C26.9927 33.8122 26.9832 33.8122 27.789 33.8122C29.2395 33.8122 30.6899 33.8218 32.1403 33.8025C32.4437 33.8025 32.529 33.8799 32.5195 34.1893C32.5006 34.9728 32.5195 34.9728 31.7422 34.9728C31.0596 34.9824 30.3865 34.9824 29.7229 34.9728C29.7229 34.9824 29.7229 34.9728 29.7229 34.9728Z" fill="#BBBBBB"/>
<path d="M19.4751 16.1421C19.5035 16.1614 19.5509 16.1904 19.5794 16.2194C20.3567 17.0125 21.1246 17.7959 21.902 18.589C21.9494 18.6373 22.0347 18.7051 21.9683 18.7824C21.7408 19.0242 21.5133 19.266 21.2763 19.4885C21.2099 19.5562 21.1436 19.4498 21.0962 19.4014C20.3378 18.6277 19.5794 17.8539 18.8304 17.0802C18.783 17.0319 18.7451 16.9835 18.7167 16.9255C18.6882 16.8674 19.3803 16.1421 19.4751 16.1421Z" fill="#BBBBBB"/>
<path d="M40.5422 40.9749C40.5741 40.9879 40.6265 41.0063 40.6604 41.0287C41.5867 41.6413 42.5017 42.2463 43.428 42.8588C43.4845 42.8962 43.5821 42.9445 43.5335 43.0341C43.3617 43.3182 43.1899 43.6023 43.0048 43.8695C42.9541 43.9496 42.8669 43.8595 42.8104 43.8221C41.9067 43.2245 41.003 42.6269 40.1085 42.0274C40.052 41.99 40.0048 41.9507 39.9648 41.8999C39.9249 41.8491 40.4495 40.9948 40.5422 40.9749Z" fill="#BBBBBB"/>
<path d="M11.7557 40.9749C11.7238 40.9879 11.6714 41.0063 11.6375 41.0287C10.7112 41.6413 9.79613 42.2463 8.8698 42.8588C8.81332 42.8962 8.7157 42.9445 8.76437 43.0341C8.93616 43.3182 9.10795 43.6023 9.29306 43.8695C9.34376 43.9496 9.43094 43.8595 9.48743 43.8221C10.3912 43.2245 11.2949 42.6269 12.1893 42.0274C12.2458 41.99 12.293 41.9507 12.333 41.8999C12.373 41.8491 11.8484 40.9948 11.7557 40.9749Z" fill="#BBBBBB"/>
<path d="M35.3733 8.25961C35.4492 8.31764 35.4966 8.35633 35.544 8.39502C36.2455 8.97532 36.947 9.56529 37.6486 10.1456C37.8097 10.2713 37.8382 10.3584 37.7054 10.5421C37.1745 11.2482 37.1746 11.2578 36.5015 10.6872C35.9516 10.223 35.3923 9.75872 34.833 9.30415C34.6813 9.18809 34.6434 9.09138 34.7856 8.93663C34.9373 8.77221 35.07 8.57878 35.2217 8.40469C35.2691 8.35633 35.3259 8.30797 35.3733 8.25961Z" fill="#BBBBBB"/>
<path d="M34.5391 36.9554C34.122 36.9554 33.7049 36.9457 33.2878 36.9554C33.0413 36.9651 32.937 36.9071 32.937 36.6169C32.937 35.7851 32.9275 35.7851 33.7428 35.7851C34.4064 35.7851 35.0795 35.7948 35.7431 35.7755C36.0085 35.7658 36.1223 35.8238 36.1223 36.1333C36.1223 36.9457 36.1318 36.9457 35.3355 36.9457C35.07 36.9554 34.8046 36.9554 34.5391 36.9554Z" fill="#BBBBBB"/>
<path d="M38.8618 2.65003C38.5774 2.65003 38.2835 2.65003 37.9991 2.65003C37.9043 2.65003 37.7621 2.67905 37.7526 2.55332C37.7337 2.23415 37.7432 1.91498 37.7526 1.59582C37.7621 1.47976 37.8854 1.4991 37.9707 1.4991C38.5869 1.4991 39.2031 1.4991 39.8193 1.4991C39.9046 1.4991 40.0279 1.48943 40.0279 1.60549C40.0468 1.92466 40.0468 2.24382 40.0279 2.56299C40.0184 2.68872 39.8667 2.6597 39.7719 2.6597C39.4685 2.65003 39.1652 2.65003 38.8618 2.65003Z" fill="#BBBBBB"/>
<path d="M26.9169 5.55155C26.9169 6.14152 26.9169 6.13185 26.1396 6.14152C25.4854 6.15119 25.8172 5.65794 25.7888 5.3968C25.7509 4.92289 25.6656 5.00026 26.5093 4.9519C27.0496 4.93256 26.898 5.27107 26.9169 5.55155Z" fill="#BBBBBB"/>
<path d="M28.8131 5.56118C28.8131 6.14148 28.8131 6.14148 28.2253 6.14148C27.6755 6.14148 27.6755 6.14148 27.6755 5.48381C27.6755 4.91318 27.5807 4.98088 28.3012 4.98088C28.8984 4.98088 28.8036 4.91318 28.8131 5.56118Z" fill="#BBBBBB"/>
<path d="M33.8276 34.9728C33.2588 34.9728 33.2588 34.9728 33.2588 34.3441C33.2588 33.8122 33.2588 33.8122 33.9129 33.8122C34.3964 33.8122 34.3964 33.8122 34.3964 34.4892C34.3869 35.0598 34.4628 34.9631 33.8276 34.9728Z" fill="#BBBBBB"/>
<path d="M35.1455 34.3925C35.1455 33.8122 35.1455 33.8122 35.7617 33.8122C36.2831 33.8122 36.2831 33.8122 36.2831 34.4892C36.2831 34.9728 36.2831 34.9825 35.61 34.9728C35.0697 34.9728 35.155 35.0598 35.1455 34.3925Z" fill="#BBBBBB"/>
<path d="M41.9431 2.09875C41.9336 2.72741 42.0189 2.65004 41.3648 2.65004C40.7202 2.65004 40.8055 2.74675 40.8055 2.05039C40.8055 1.39272 40.7297 1.49911 41.4501 1.49911C42.0189 1.48944 41.9336 1.44108 41.9431 2.09875Z" fill="#BBBBBB"/>
<path d="M43.2795 1.48942C43.5829 1.47975 43.8768 1.3927 43.8483 1.91497C43.8104 2.65002 43.8388 2.63068 43.1373 2.66936C42.7676 2.68871 42.6728 2.56297 42.6823 2.19545C42.7297 1.37336 42.6159 1.50876 43.2795 1.48942Z" fill="#BBBBBB"/>
<path d="M24.3006 31.017C23.6464 31.0074 23.7507 31.0847 23.7507 30.3981C23.7507 29.7791 23.6654 29.8468 24.3764 29.8564C24.9831 29.8564 24.8883 29.7694 24.8883 30.5044C24.8788 31.0847 24.9547 31.0074 24.3006 31.017Z" fill="#BBBBBB"/>
<path d="M26.2344 29.8467C26.8601 29.8564 26.7747 29.7693 26.7747 30.4754C26.7747 31.0943 26.8506 31.0073 26.1491 31.0073C25.5518 31.0073 25.6466 31.0653 25.6466 30.34C25.6371 29.779 25.5897 29.8564 26.2344 29.8467Z" fill="#BBBBBB"/>
<path d="M28.1113 31.0171C27.4382 31.0074 27.5425 31.0848 27.5425 30.3788C27.5425 29.7791 27.4761 29.8565 28.1492 29.8565C28.7559 29.8565 28.6706 29.7598 28.6801 30.5335C28.6801 31.0171 28.6801 31.0171 28.1113 31.0171Z" fill="#BBBBBB"/>
<path d="M16.8302 8.54006C16.7923 8.67546 16.6975 8.74316 16.6217 8.82053C16.0624 9.40083 16.0624 9.40083 15.4936 8.81086C15.3229 8.63677 15.285 8.53038 15.4841 8.32728C16.0813 7.72763 16.0718 7.71796 16.6691 8.35629C16.726 8.41432 16.7828 8.48203 16.8302 8.54006Z" fill="#BBBBBB"/>
<path d="M44.1803 39.1774C44.1424 39.3128 44.0476 39.3805 43.9718 39.4578C43.4125 40.0381 43.4125 40.0381 42.8437 39.4482C42.673 39.2741 42.6351 39.1677 42.8342 38.9646C43.4314 38.3649 43.4219 38.3553 44.0192 38.9936C44.0761 39.0516 44.1329 39.1193 44.1803 39.1774Z" fill="#BBBBBB"/>
<path d="M8.118 39.1774C8.15592 39.3128 8.25072 39.3805 8.32656 39.4578C8.88588 40.0381 8.88588 40.0381 9.45468 39.4482C9.62532 39.2741 9.66324 39.1677 9.46416 38.9646C8.86692 38.3649 8.8764 38.3553 8.27916 38.9936C8.22228 39.0516 8.1654 39.1193 8.118 39.1774Z" fill="#BBBBBB"/>
<path d="M14.7541 7.96948C14.6119 7.95014 14.555 7.84375 14.4791 7.76638C13.9103 7.20542 13.9198 7.21509 14.4602 6.63479C14.6687 6.41234 14.7825 6.41234 14.9816 6.63479C15.5219 7.21509 15.5314 7.20542 14.9626 7.76638C14.8963 7.83408 14.8204 7.90178 14.7541 7.96948Z" fill="#BBBBBB"/>
<path d="M42.1037 38.6068C41.9615 38.5874 41.9046 38.4811 41.8287 38.4037C41.2599 37.8427 41.2694 37.8524 41.8098 37.2721C42.0183 37.0497 42.1321 37.0497 42.3312 37.2721C42.8715 37.8524 42.881 37.8427 42.3122 38.4037C42.2459 38.4714 42.17 38.5391 42.1037 38.6068Z" fill="#BBBBBB"/>
<path d="M10.1942 38.6068C10.3364 38.5874 10.3933 38.4811 10.4691 38.4037C11.0379 37.8427 11.0284 37.8524 10.4881 37.2721C10.2795 37.0497 10.1657 37.0497 9.96666 37.2721C9.4263 37.8524 9.41682 37.8427 9.98562 38.4037C10.052 38.4714 10.1278 38.5391 10.1942 38.6068Z" fill="#BBBBBB"/>
<path d="M40.1668 39.9912V35.0439V32.9825L51.2983 44.114V47H45.9387L34.8071 39.9912H40.1668Z" stroke="#BBBBBB" stroke-width="1.2"/>
<path d="M12.1316 39.9912V35.0439V32.9825L1 44.114V47H6.35965L17.4912 39.9912H12.1316Z" stroke="#BBBBBB" stroke-width="1.2"/>
</svg>
