<svg width="52" height="27" viewBox="0 0 52 27" fill="none" xmlns="http://www.w3.org/2000/svg">
<path d="M19.6407 20.0003C21.076 19.9773 22.2657 21.1286 22.3117 22.5946C22.3578 24.0069 21.1604 25.2657 19.7328 25.2887C18.2514 25.3271 16.9773 24.1221 17.0003 22.6714C17.0233 21.0672 18.2821 20.0003 19.6407 20.0003ZM18.2591 22.633C18.2591 23.4313 18.8731 24.0607 19.6407 24.0607C20.4312 24.0607 21.053 23.4466 21.053 22.6561C21.0606 21.8655 20.4312 21.2207 19.6714 21.2284C18.8731 21.2361 18.2591 21.8425 18.2591 22.633Z" fill="#BBBBBB"/>
<path d="M32.6407 20.0003C34.076 19.9773 35.2657 21.1286 35.3117 22.5946C35.3578 24.0069 34.1604 25.2657 32.7328 25.2887C31.2514 25.3194 29.9773 24.1221 30.0003 22.6714C30.0233 21.0672 31.2821 20.0003 32.6407 20.0003ZM31.2591 22.633C31.2591 23.4313 31.8731 24.0607 32.6407 24.0607C33.4312 24.0607 34.053 23.4466 34.053 22.6561C34.0606 21.8655 33.4312 21.2207 32.6714 21.2284C31.8731 21.2361 31.2591 21.8425 31.2591 22.633Z" fill="#BBBBBB"/>
<path d="M28.0002 3.99661C28.0002 4.97727 27.1984 5.78564 26.2243 5.77239C25.2569 5.75914 24.4551 4.96401 24.4551 4.00323C24.4551 3.02258 25.2569 2.22745 26.2376 2.22745C27.205 2.22745 27.9936 3.02258 28.0002 3.99661ZM26.6219 3.98335C26.6219 4.22189 26.6285 4.46043 26.6219 4.69234C26.6153 4.87125 26.6882 4.858 26.8074 4.77848C27.3243 4.43393 27.3309 3.56591 26.8074 3.21473C26.7677 3.18823 26.708 3.14847 26.6683 3.1551C26.5954 3.17497 26.6219 3.26111 26.6219 3.31412C26.6219 3.54604 26.6219 3.76469 26.6219 3.98335ZM25.8267 3.13522C25.1641 3.47977 25.078 4.35442 25.6279 4.75861C25.6743 4.79174 25.7207 4.85137 25.787 4.83149C25.84 4.81824 25.8267 4.75861 25.8267 4.71885C25.8267 4.20202 25.8267 3.68518 25.8267 3.13522Z" fill="#BBBBBB"/>
<path d="M22.5 4C22.5 3 23.2 1 26 1C28.8 1 29.8333 3 30 4" stroke="#BBBBBB"/>
<path d="M17.3325 12.5994C17.7685 12.5994 18.2141 12.6091 18.6502 12.5994C18.8682 12.5897 18.963 12.6478 18.9536 12.8992C18.9441 13.8277 18.9346 14.7465 18.9536 15.675C18.9536 15.9265 18.8588 15.9748 18.6407 15.9748C17.7496 15.9651 16.849 15.9651 15.9579 15.9845C15.6924 15.9845 15.645 15.8781 15.645 15.646C15.6545 14.7465 15.664 13.847 15.645 12.9476C15.645 12.6671 15.7398 12.5994 15.9958 12.6091C16.4508 12.6091 16.8869 12.5994 17.3325 12.5994ZM17.3419 13.76C17.0955 13.7793 16.7542 13.6246 16.7921 14.1469C16.83 14.7852 16.8016 14.7949 17.2661 14.7852C17.5221 14.7852 17.8539 14.9206 17.8159 14.3983C17.778 13.6826 17.8823 13.7793 17.3419 13.76Z" fill="#BBBBBB"/>
<path d="M19.4944 14.2242C19.4944 13.7793 19.5039 13.3247 19.4944 12.8798C19.485 12.6574 19.5608 12.5897 19.7788 12.5897C20.6984 12.5993 21.618 12.5993 22.5375 12.5897C22.7366 12.5897 22.803 12.6574 22.803 12.8605C22.7935 13.7986 22.803 14.7368 22.803 15.6749C22.803 15.8877 22.7271 15.9651 22.5186 15.9651C21.599 15.9554 20.6794 15.9554 19.7599 15.9651C19.5608 15.9651 19.4944 15.8974 19.5039 15.6943C19.5039 15.201 19.4944 14.7174 19.4944 14.2242ZM21.0776 13.7599C20.7742 13.6922 20.5941 13.7793 20.6226 14.2242C20.67 14.8335 20.5372 14.7851 21.1155 14.7948C21.6464 14.7948 21.6464 14.7948 21.6464 14.3112C21.6464 13.6729 21.6938 13.7696 21.0776 13.7599Z" fill="#BBBBBB"/>
<path d="M44.7486 18.7674C44.8055 18.8254 44.8718 18.8641 44.9192 18.9221C46.8532 20.8951 48.1134 21.991 50.0473 23.9543C50.18 24.0897 50.2085 24.1671 50.0663 24.3219C49.4595 24.9989 49.4595 24.9989 48.8244 24.3509C47.1559 22.6487 46.1706 21.8236 44.5021 20.1311C43.9428 19.5604 43.9428 19.5604 44.5211 18.9898C44.5874 18.9124 44.6633 18.8447 44.7486 18.7674Z" fill="#BBBBBB"/>
<path d="M7.54926 18.7674C7.49238 18.8254 7.42602 18.8641 7.37862 18.9221C5.44469 20.8951 4.18448 21.991 2.25055 23.9543C2.11783 24.0897 2.08939 24.1671 2.23159 24.3219C2.83831 24.9989 2.83831 24.9989 3.47347 24.3509C5.14196 22.6487 6.12725 21.8236 7.79574 20.1311C8.35506 19.5604 8.35506 19.5604 7.77678 18.9898C7.71042 18.9124 7.63458 18.8447 7.54926 18.7674Z" fill="#BBBBBB"/>
<path d="M29.7229 13.9728C28.9171 13.9728 28.1113 13.9631 27.3055 13.9824C27.0496 13.9824 26.9927 13.9051 26.9927 13.6536C26.9927 12.8122 26.9832 12.8122 27.789 12.8122C29.2395 12.8122 30.6899 12.8218 32.1403 12.8025C32.4437 12.8025 32.529 12.8799 32.5195 13.1893C32.5006 13.9728 32.5195 13.9728 31.7422 13.9728C31.0596 13.9824 30.3865 13.9824 29.7229 13.9728C29.7229 13.9824 29.7229 13.9728 29.7229 13.9728Z" fill="#BBBBBB"/>
<path d="M40.5422 19.9749C40.5741 19.9879 40.6265 20.0063 40.6604 20.0287C41.5867 20.6413 42.5017 21.2463 43.428 21.8588C43.4845 21.8962 43.5821 21.9445 43.5335 22.0341C43.3617 22.3182 43.1899 22.6023 43.0048 22.8695C42.9541 22.9496 42.8669 22.8595 42.8104 22.8221C41.9067 22.2245 41.003 21.6269 40.1085 21.0274C40.052 20.99 40.0048 20.9507 39.9648 20.8999C39.9249 20.8491 40.4495 19.9948 40.5422 19.9749Z" fill="#BBBBBB"/>
<path d="M11.7557 19.9749C11.7238 19.9879 11.6714 20.0063 11.6375 20.0287C10.7112 20.6413 9.79613 21.2463 8.8698 21.8588C8.81332 21.8962 8.7157 21.9445 8.76437 22.0341C8.93616 22.3182 9.10795 22.6023 9.29306 22.8695C9.34376 22.9496 9.43094 22.8595 9.48743 22.8221C10.3912 22.2245 11.2949 21.6269 12.1893 21.0274C12.2458 20.99 12.293 20.9507 12.333 20.8999C12.373 20.8491 11.8484 19.9948 11.7557 19.9749Z" fill="#BBBBBB"/>
<path d="M34.5391 15.9554C34.122 15.9554 33.7049 15.9457 33.2878 15.9554C33.0413 15.9651 32.937 15.9071 32.937 15.6169C32.937 14.7851 32.9275 14.7851 33.7428 14.7851C34.4064 14.7851 35.0795 14.7948 35.7431 14.7755C36.0085 14.7658 36.1223 14.8238 36.1223 15.1333C36.1223 15.9457 36.1318 15.9457 35.3355 15.9457C35.07 15.9554 34.8046 15.9554 34.5391 15.9554Z" fill="#BBBBBB"/>
<path d="M33.8276 13.9728C33.2588 13.9728 33.2588 13.9728 33.2588 13.3441C33.2588 12.8122 33.2588 12.8122 33.9129 12.8122C34.3964 12.8122 34.3964 12.8122 34.3964 13.4892C34.3869 14.0598 34.4628 13.9631 33.8276 13.9728Z" fill="#BBBBBB"/>
<path d="M35.1455 13.3925C35.1455 12.8122 35.1455 12.8122 35.7617 12.8122C36.2831 12.8122 36.2831 12.8122 36.2831 13.4892C36.2831 13.9728 36.2831 13.9825 35.61 13.9728C35.0697 13.9728 35.155 14.0598 35.1455 13.3925Z" fill="#BBBBBB"/>
<path d="M24.3006 10.017C23.6464 10.0074 23.7507 10.0847 23.7507 9.39806C23.7507 8.77907 23.6654 8.84678 24.3764 8.85645C24.9831 8.85645 24.8883 8.7694 24.8883 9.50445C24.8788 10.0847 24.9547 10.0074 24.3006 10.017Z" fill="#BBBBBB"/>
<path d="M26.2344 8.84669C26.8601 8.85637 26.7747 8.76932 26.7747 9.47535C26.7747 10.0943 26.8506 10.0073 26.1491 10.0073C25.5518 10.0073 25.6466 10.0653 25.6466 9.33995C25.6371 8.77899 25.5897 8.85637 26.2344 8.84669Z" fill="#BBBBBB"/>
<path d="M28.1113 10.0171C27.4382 10.0074 27.5425 10.0848 27.5425 9.37877C27.5425 8.77912 27.4761 8.8565 28.1492 8.8565C28.7559 8.8565 28.6706 8.75978 28.6801 9.53352C28.6801 10.0171 28.6801 10.0171 28.1113 10.0171Z" fill="#BBBBBB"/>
<path d="M44.1803 18.1774C44.1424 18.3128 44.0476 18.3805 43.9718 18.4578C43.4125 19.0381 43.4125 19.0381 42.8437 18.4482C42.673 18.2741 42.6351 18.1677 42.8342 17.9646C43.4314 17.3649 43.4219 17.3553 44.0192 17.9936C44.0761 18.0516 44.1329 18.1193 44.1803 18.1774Z" fill="#BBBBBB"/>
<path d="M8.118 18.1774C8.15592 18.3128 8.25072 18.3805 8.32656 18.4578C8.88588 19.0381 8.88588 19.0381 9.45468 18.4482C9.62532 18.2741 9.66324 18.1677 9.46416 17.9646C8.86692 17.3649 8.8764 17.3553 8.27916 17.9936C8.22228 18.0516 8.1654 18.1193 8.118 18.1774Z" fill="#BBBBBB"/>
<path d="M42.1037 17.6068C41.9615 17.5874 41.9046 17.4811 41.8287 17.4037C41.2599 16.8427 41.2694 16.8524 41.8098 16.2721C42.0183 16.0497 42.1321 16.0497 42.3312 16.2721C42.8715 16.8524 42.881 16.8427 42.3122 17.4037C42.2459 17.4714 42.17 17.5391 42.1037 17.6068Z" fill="#BBBBBB"/>
<path d="M10.1942 17.6068C10.3364 17.5874 10.3933 17.4811 10.4691 17.4037C11.0379 16.8427 11.0284 16.8524 10.4881 16.2721C10.2795 16.0497 10.1657 16.0497 9.96666 16.2721C9.4263 16.8524 9.41682 16.8427 9.98562 17.4037C10.052 17.4714 10.1278 17.5391 10.1942 17.6068Z" fill="#BBBBBB"/>
<path d="M40.1668 18.9912V14.0439V11.9825L51.2983 23.114V26H45.9387L34.8071 18.9912H40.1668Z" stroke="#BBBBBB" stroke-width="1.2"/>
<path d="M12.1316 18.9912V14.0439V11.9825L1 23.114V26H6.35965L17.4912 18.9912H12.1316Z" stroke="#BBBBBB" stroke-width="1.2"/>
<path fill-rule="evenodd" clip-rule="evenodd" d="M21.953 5C21.9506 6.75294 21.9525 8.50589 21.9589 10.2588C21.9682 10.549 21.8925 10.6264 21.6083 10.6264L21.1337 10.624L20.4643 10.6223L19.2089 10.6228L18.4784 10.6242L16.9154 10.6264C16.7489 10.6264 16.5771 10.6143 16.4047 10.6023C15.9789 10.5725 15.5507 10.5426 15.1996 10.6941C14.8783 10.8301 14.6269 11.1202 14.3734 11.4128L14.2738 11.5271L14.1938 11.6174C14.1088 11.7115 14.0214 11.8021 13.9291 11.8837C13.5692 12.2028 13.4174 12.5607 13.4457 13.054L13.4491 13.1301C13.4652 13.4687 13.4735 13.6408 13.5639 13.7304C13.6566 13.8231 13.8378 13.8276 14.2065 13.8367L14.2328 13.8374C14.5551 13.847 14.6308 13.7213 14.5927 13.4408C14.5268 13.0249 14.6689 12.6961 15.0004 12.4446C15.1142 12.3576 15.2089 12.2609 15.2943 12.1448C15.5028 11.845 15.7968 11.787 16.1479 11.787L18.9438 11.7915C24.5224 11.801 30.0961 11.8104 35.6767 11.7773C36.4916 11.7773 37.1269 11.9514 37.6293 12.6187C37.7812 12.8122 37.8666 12.9766 37.8666 13.228C37.8568 14.1855 37.8378 15.1527 37.8759 16.1199C37.8852 16.5261 37.7621 16.5938 37.3925 16.5938C30.0453 16.5841 22.6889 16.5841 15.3324 16.5841C14.9648 16.5841 14.7797 16.5841 14.6869 16.4916C14.5927 16.398 14.5927 16.2094 14.5927 15.8297C14.5927 15.3884 14.5927 15.1708 14.4838 15.066C14.3783 14.964 14.1693 14.9687 13.7582 14.978L13.7304 14.9786C13.5219 14.9883 13.4555 15.056 13.4555 15.2688C13.4648 15.9651 13.4648 16.6615 13.4457 17.3578C13.4364 17.6577 13.5219 17.7544 13.8251 17.7544C22.101 17.7447 30.3773 17.7447 38.6532 17.7544C38.9374 17.7544 39.0136 17.677 39.0136 17.3869C39.0111 17.0776 39.0058 16.7678 39.0004 16.4579C38.9843 15.5172 38.9682 14.5751 39.0326 13.6439C39.099 12.7251 38.8715 12.0288 38.1415 11.4871C37.9232 11.3227 37.7338 11.1003 37.5536 10.8875C37.3827 10.6844 37.184 10.6264 36.9276 10.6264C36.0663 10.6305 35.2064 10.6293 34.3471 10.6281H34.3427C33.1986 10.6266 32.0551 10.625 30.9081 10.636C30.5858 10.636 30.5194 10.5393 30.5194 10.2202C30.5253 9.29225 30.5233 8.36821 30.5214 7.44316V7.28821L30.5194 5.81955C30.5194 5.45442 30.5194 5.27306 30.4286 5.1806C30.3393 5.08937 30.1615 5.08475 29.808 5.07558L29.7797 5.07483C29.4672 5.06516 29.3725 5.14253 29.3725 5.47136C29.3817 6.28183 29.3842 7.09476 29.3856 7.90767V8.34241L29.3876 9.40343L29.391 10.2975C29.4008 10.549 29.3251 10.6264 29.0785 10.6264C27.9145 10.6204 26.747 10.6181 25.58 10.6195C25.0253 10.6202 24.4706 10.6217 23.9169 10.6241L23.4379 10.6264C23.163 10.6264 23.1059 10.5296 23.1059 10.2685C23.1137 8.51234 23.1156 6.75616 23.1156 5H21.953Z" fill="#BBBBBB"/>
</svg>
