<svg width="79" height="79" viewBox="0 0 79 79" fill="none" xmlns="http://www.w3.org/2000/svg">
<path d="M77.5706 0H54.7478C53.9584 0 53.3184 0.640023 53.3184 1.42941C53.3184 2.21879 53.9584 2.85881 54.7478 2.85881H61.0327V15.2283H33.375V2.85881H49.9829C50.7723 2.85881 51.4123 2.21879 51.4123 1.42941C51.4123 0.640023 50.7725 0 49.9831 0H1.42941C0.640023 0 0 0.640023 0 1.42941V16.6577V31.8859V47.1141V62.3424V77.5706C0 78.36 0.640023 79 1.42941 79H77.5704C78.3598 79 78.9998 78.36 78.9998 77.5706V1.42941C79 0.640023 78.36 0 77.5706 0ZM48.4835 18.0871H76.1409V30.4565H57.6064C56.817 30.4565 56.177 31.0965 56.177 31.8859C56.177 32.6753 56.817 33.3153 57.6064 33.3153H61.0327V45.6847H33.375V33.3153H52.8416C53.631 33.3153 54.271 32.6753 54.271 31.8859C54.271 31.0965 53.631 30.4565 52.8416 30.4565H48.4835V18.0871ZM76.141 48.5433V60.9129H48.4835V48.5433H76.141ZM45.6247 18.0871V30.4565H17.9673V18.0871H45.6247ZM2.85881 2.85881H30.5162V15.2283H2.85881V2.85881ZM2.85881 18.0871H15.1084V30.4565H2.85881V18.0871ZM2.85881 33.3155H30.5162V45.6848H2.85881V33.3155ZM2.85881 48.5433H15.1084V60.9129H2.85881V48.5433ZM30.5162 76.141H2.85881V63.7717H23.4912C24.2806 63.7717 24.9206 63.1316 24.9206 62.3423C24.9206 61.5529 24.2806 60.9129 23.4912 60.9129H17.9673V48.5433H45.6247V60.9129H28.2559C27.4665 60.9129 26.8265 61.5529 26.8265 62.3423C26.8265 63.1316 27.4665 63.7717 28.2559 63.7717H30.5162V76.141ZM61.0327 76.141H33.375V63.7717H61.0327V76.141ZM76.1412 76.1412H63.8916V63.7718H76.1412V76.1412ZM76.1412 45.6845H63.8916V33.3152H76.1412V45.6845ZM76.1412 15.2283H63.8916V2.85881H76.1412V15.2283Z" fill="#939393"/>
</svg>
