<svg width="65" height="79" viewBox="0 0 65 79" fill="none" xmlns="http://www.w3.org/2000/svg">
<path d="M32.2465 18.1345C34.5328 18.1345 36.8018 18.1518 39.0881 18.1172C39.625 18.1172 39.8502 18.2384 39.8329 18.8273C39.8156 23.1575 39.8156 27.4876 39.8156 31.8004C39.8156 32.2854 39.729 32.7011 39.2959 33.0129C39.1054 33.1341 38.9322 33.3073 38.811 33.4978C37.408 35.5417 35.4681 36.1306 33.0606 35.8708C31.5537 35.6975 30.0121 35.8361 28.4706 35.8534C28.0549 35.8534 27.7431 35.7495 27.4833 35.4377C27.466 35.4204 27.4487 35.4031 27.4314 35.3685C26.4961 34.4331 25.2143 33.6364 24.7294 32.4932C24.2617 31.402 24.5735 29.9471 24.5735 28.6481C24.5562 27.349 24.6081 26.05 24.5562 24.751C24.5388 24.1274 24.764 23.9715 25.3529 23.9889C28.2454 24.0062 31.1206 24.0062 34.0132 24.0062C34.3076 24.0062 34.5848 24.0062 34.8792 23.9889C35.5027 23.9542 35.9704 23.6424 35.9531 22.9843C35.9358 22.3261 35.4681 22.049 34.8272 22.049C32.9739 22.049 31.138 22.049 29.2847 22.049C27.9337 22.049 26.5653 22.0316 25.2143 22.0663C24.712 22.0836 24.5562 21.9104 24.5735 21.4254C24.6081 20.5594 24.6254 19.6934 24.5735 18.8273C24.5388 18.2211 24.7986 18.1172 25.3356 18.1172C27.6392 18.1518 29.9428 18.1345 32.2465 18.1345Z" fill="#939393"/>
<path d="M43.0711 0.0173205C45.115 0.0173205 47.1761 0 49.2199 0.0173205C51.437 0.0346411 52.8399 1.42028 52.8399 3.63731C52.8573 5.57722 52.8399 7.4998 52.8399 9.4397C52.8399 10.9639 52.1471 12.0897 50.7615 12.6267C47.6784 13.8564 44.5954 15.0342 41.4603 16.1427C40.8195 16.3679 40.0401 16.1774 39.3299 16.1774C38.4639 16.1774 37.5979 16.1947 36.7318 16.1774C36.4374 16.1774 35.9351 16.3679 35.9697 15.779C35.987 15.3114 35.6926 14.7571 36.4547 14.4973C38.8623 13.6313 41.2525 12.696 43.66 11.7953C45.3055 11.1718 46.9336 10.5309 48.5964 9.92467C49.2719 9.68218 49.549 9.26649 49.5317 8.55635C49.4971 7.29195 49.5317 6.01023 49.5144 4.74583C49.5144 3.65463 49.2199 3.36019 48.1114 3.36019C44.3529 3.36019 40.6116 3.34287 36.8531 3.37751C36.1603 3.37751 35.8658 3.23894 35.9351 2.49416C35.987 1.95722 35.987 1.38564 35.9351 0.848707C35.8485 0.121244 36.1603 0 36.8184 0C38.9142 0.0346411 40.9927 0.0173205 43.0711 0.0173205Z" fill="#939393"/>
<path d="M21.3517 0.0173205C23.4821 0.0173205 25.6299 0.0346411 27.7603 0C28.2799 0 28.4878 0.138564 28.4531 0.675501C28.3838 1.52421 28.7995 2.63272 28.2972 3.18698C27.8296 3.7066 26.7211 3.32554 25.8897 3.34287C22.7373 3.36019 19.6023 3.34287 16.45 3.34287C15.1336 3.34287 14.8911 3.60267 14.8911 4.91903C14.8911 6.07951 14.9258 7.22267 14.8738 8.38314C14.8392 9.24917 15.1856 9.69951 15.9823 9.99396C19.8968 11.4489 23.8112 12.9384 27.7083 14.4107C28.0374 14.5319 28.4185 14.5493 28.4531 15.0862C28.5224 16.0908 28.4704 16.1601 27.4832 16.1774C26.0975 16.212 24.7119 16.1081 23.3262 16.2294C23.0838 16.2467 22.824 16.1254 22.5815 16.0388C19.8275 15.0169 17.0909 13.9604 14.3196 12.9384C12.5702 12.2976 11.427 11.1891 11.531 8.88544C11.6176 7.15339 11.531 5.42133 11.5483 3.68928C11.5656 1.40296 12.9512 0.0346411 15.2895 0.0173205C17.316 0.0173205 19.3252 0.0173205 21.3517 0.0173205Z" fill="#939393"/>
<path d="M30.8951 58.1624C32.2288 59.0457 32.2288 59.0457 33.4066 58.2143C33.5971 58.4741 33.4932 58.7686 33.4932 59.0457C33.5105 61.6091 33.5278 64.1726 33.4932 66.7533C33.4759 67.4808 33.6491 68.0524 34.3073 68.4161C35.3985 68.9877 35.7275 69.871 35.6756 71.1008C35.5717 73.4564 35.6236 75.8293 35.6583 78.2022C35.6583 78.7911 35.5197 79.0163 34.8962 78.999C33.1121 78.9643 31.3108 78.9643 29.5268 78.999C28.9032 79.0163 28.7474 78.8084 28.7474 78.2195C28.782 75.6215 28.782 73.0234 28.7474 70.4253C28.73 69.7498 28.8859 69.2302 29.4748 68.9184C30.7219 68.2602 30.999 67.2383 30.9298 65.9046C30.8258 63.7742 30.8951 61.6438 30.8951 59.496C30.8951 59.063 30.8951 58.6473 30.8951 58.1624Z" fill="#939393"/>
<path d="M34.8962 45.9515C34.8962 48.3244 34.8789 50.68 34.9135 53.0529C34.9135 53.6591 34.7403 54.0922 34.3073 54.4905C33.7184 55.0275 33.1468 55.6164 32.5926 56.2053C32.3154 56.4997 32.1076 56.517 31.8131 56.2053C31.155 55.5124 30.4795 54.8369 29.804 54.1788C29.5441 53.9363 29.5095 53.6418 29.5095 53.3127C29.5095 48.3417 29.5268 43.3881 29.4922 38.4171C29.4922 37.8628 29.6827 37.7416 30.2023 37.7589C31.536 37.7935 32.8524 37.8282 34.1861 37.7762C34.775 37.7589 34.9135 37.9321 34.9135 38.4863C34.8789 40.9978 34.8962 43.4747 34.8962 45.9515Z" fill="#939393"/>
<path d="M34.0301 8.0539C34.0301 10.5134 34.0128 12.9556 34.0474 15.4151C34.0474 16.0214 33.8569 16.2292 33.2507 16.1946C32.5059 16.1426 31.7438 16.1599 30.999 16.1946C30.566 16.2119 30.3755 16.0906 30.3755 15.6057C30.3928 10.6173 30.3928 5.62902 30.3755 0.640708C30.3755 0.138412 30.5487 -0.000152687 31.0337 0.0171679C31.8131 0.051809 32.5925 0.0691295 33.3719 0.0171679C33.9435 -0.0174732 34.0301 0.225014 34.0301 0.72731C34.0128 3.15219 34.0128 5.6117 34.0301 8.0539Z" fill="#939393"/>
<path d="M20.4332 72.8847C19.7058 72.2785 19.0822 71.7762 18.476 71.2739C15.8433 69.0742 13.2279 66.8572 10.5952 64.6748C10.0582 64.2418 10.1448 64.0686 10.6644 63.7222C12.0501 62.8388 13.4011 61.9035 14.7694 61.0028C15.0812 60.795 15.3063 60.6045 15.5315 61.1414C17.1423 64.9 18.7705 68.6412 20.3986 72.3997C20.4332 72.5037 20.4159 72.6249 20.4332 72.8847Z" fill="#939393"/>
<path d="M44.0236 72.7289C43.885 72.4518 44.0756 72.2613 44.1622 72.0708C45.6864 68.5201 47.2279 64.9867 48.7521 61.436C49.0119 60.8471 49.2024 60.6392 49.8087 61.0895C51.1423 62.0422 52.528 62.9428 53.8963 63.8435C54.2254 64.0514 54.3986 64.1899 53.9829 64.519C50.7267 67.221 47.4877 69.9577 44.2314 72.677C44.1968 72.7116 44.0929 72.7116 44.0236 72.7289Z" fill="#939393"/>
<path d="M12.9336 76.4874C10.8378 77.1976 8.94984 77.8384 6.92334 78.5139C7.11387 77.1976 7.28707 76.0024 7.44296 74.8073C7.4776 74.5475 7.59884 74.4609 7.85865 74.5648C9.48678 75.1711 11.1149 75.7946 12.9336 76.4874Z" fill="#939393"/>
<path d="M43.7297 25.4785C45.6176 25.4785 45.6869 25.5824 45.4617 27.505C45.4271 27.7821 45.3232 27.9207 45.046 27.9207C44.0934 27.9207 43.1581 27.9207 42.2055 27.9207C41.9283 27.9207 41.7725 27.8168 41.7725 27.5223C41.7725 26.9854 41.7725 26.4311 41.7725 25.8942C41.7725 25.5305 41.9803 25.4785 42.2748 25.4785C42.7424 25.4785 43.2274 25.4785 43.7297 25.4785Z" fill="#939393"/>
<path d="M55.0398 76.9207C55.1957 77.4749 54.8493 77.752 54.3296 77.9426C54.1218 78.0118 53.914 78.1158 53.6888 78.2197C52.7015 78.67 52.2339 78.4275 51.9914 77.3537C51.9221 77.0592 52.078 76.9899 52.2685 76.9207C53.0306 76.6435 53.7754 76.3664 54.5375 76.1239C55.0398 75.968 55.0398 75.9853 55.0398 76.9207Z" fill="#939393"/>
<path d="M62.6263 62.5618C63.1459 62.9775 63.7695 63.3412 64.2025 63.8608C64.4103 64.1033 63.8734 64.3804 63.6829 64.6575C63.5097 64.9174 63.3018 64.8134 63.1113 64.6402C62.7649 64.3285 62.4011 64.034 62.0547 63.7396C61.8988 63.601 61.7256 63.4451 61.9335 63.2373C62.124 63.0121 62.2453 62.683 62.6263 62.5618Z" fill="#939393"/>
<path d="M1.90054 62.5964C2.07374 62.787 2.28159 63.0121 2.47212 63.2546C2.66264 63.4971 2.43748 63.6357 2.29891 63.7569C1.98714 64.0514 1.65805 64.3285 1.32896 64.6056C1.15575 64.7615 0.982549 64.9694 0.757382 64.6922C0.549536 64.4324 0.237766 64.2246 0.203125 63.8435C0.203125 63.7569 1.71001 62.5964 1.90054 62.5964Z" fill="#939393"/>
</svg>
