<svg width="131" height="59" viewBox="0 0 131 59" fill="none" xmlns="http://www.w3.org/2000/svg">
<path d="M76.8428 35.7664C77.9307 33.6631 79.0548 32.0313 81.3032 31.161C88.3383 28.4049 95.2646 25.4676 102.227 22.5302C103.17 22.1313 103.859 22.2039 104.693 22.7478C110.278 26.3742 115.753 30.1456 121.12 34.0258C124.203 36.2741 126.778 39.1389 129.606 41.6411C130.114 42.1125 130.114 42.4752 129.715 43.0191C128.192 45.0499 126.741 47.0806 124.312 48.2048C122.172 49.1839 120.141 50.4169 118.183 51.6861C116.805 52.5564 115.5 52.774 113.94 52.4839C111.112 51.9037 108.247 51.4322 105.382 51.0333C104.113 50.852 103.388 50.3081 103.388 49.0026C103.351 47.3345 102.517 47.2257 101.139 47.552C98.6734 48.1685 96.1712 48.6399 93.7053 49.1476C91.5657 49.6191 89.9702 48.8575 88.991 46.8993C87.6493 44.1433 86.3075 41.351 85.0383 38.5587C84.6032 37.5433 83.9504 37.1082 82.8988 36.9268C80.8318 36.6005 78.9098 36.1653 76.8428 35.7664Z" fill="#939393"/>
<path d="M89.064 19.4479C85.5464 18.36 82.0651 17.2359 78.5476 16.1842C76.263 15.459 75.2113 16.0392 74.4498 18.36C73.6883 20.7172 72.9267 23.0743 72.2377 25.4314C71.9839 26.3017 71.6213 26.6281 70.7147 26.1204C69.8081 25.649 68.7927 25.3951 67.8861 24.9237C66.8345 24.3798 66.4356 24.7424 66.0729 25.7215C65.0213 28.4775 63.8609 31.161 62.5554 34.316C62.0114 32.6841 61.54 31.4874 61.2499 30.2182C61.0323 29.2391 60.5609 29.1303 59.6906 29.3841C54.5774 30.9797 49.4643 32.6116 44.3149 34.1709C43.4083 34.461 43.1907 34.8599 43.5171 35.7302C43.8797 36.7094 44.1335 37.761 44.5324 39.0665C42.2116 38.5951 40.1808 38.1962 38.1501 37.761C36.6633 37.4346 34.9589 36.6731 35.0677 39.5742C34.56 39.1753 34.2336 38.9577 34.016 38.7038C31.4051 35.4764 28.1776 33.8445 23.9348 34.5335C23.4996 34.6061 22.9919 34.6423 22.5205 34.0984C26.0018 31.9951 29.4468 29.9281 32.9281 27.8611C36.0468 26.0116 39.1292 24.1259 42.2841 22.3128C43.5171 21.5875 44.1335 20.3545 44.7138 19.2304C46.7082 15.2776 49.5731 13.7546 54.1423 13.7546C63.4257 13.7183 72.7092 12.9205 81.8838 11.2161C82.464 11.1073 82.8992 11.1799 83.2981 11.6876C85.2926 14.1897 87.2871 16.6557 89.3178 19.1578C89.209 19.2666 89.1365 19.3754 89.064 19.4479Z" fill="#939393"/>
<path d="M21.3599 35.6939C22.339 35.6939 23.3181 35.8027 24.261 35.6577C27.851 35.15 30.5708 36.4192 32.9642 39.1389C34.8862 41.3148 37.207 43.0917 39.3103 45.0862C39.9993 45.7389 40.7608 46.1015 41.6674 46.2829C44.9674 47.0444 48.2311 47.9147 51.5311 48.5675C52.8728 48.8213 53.3443 49.474 53.4168 50.707C53.4531 51.3235 53.5256 51.9037 53.5981 52.5202C53.852 55.0949 53.852 55.1311 51.3135 54.9498C48.0135 54.7322 44.6773 54.5147 41.3773 54.2608C40.7608 54.2246 39.9993 54.3696 40.0356 53.318C40.0356 52.7377 39.4554 52.8103 39.0565 52.7378C34.5235 51.6861 29.9906 50.6707 25.4577 49.6191C24.5511 49.4015 24.1159 49.6191 23.9709 50.5619C23.8621 51.396 23.6082 52.1938 23.4269 53.0279C22.7742 56.0015 21.3236 56.9443 18.2412 56.3641C14.3248 55.6026 10.4446 54.8048 6.52812 54.0432C4.67869 53.6806 2.86551 53.2817 1.01607 52.9553C0.109488 52.8103 -0.144356 52.4839 0.0732246 51.5048C0.689704 49.0389 1.19739 46.573 1.70508 44.0708C1.85013 43.3455 2.2853 42.9466 2.86551 42.5477C6.20175 40.3719 9.50173 38.1598 12.8017 35.9115C13.3819 35.5126 13.9621 35.4038 14.6511 35.4038C16.8995 35.4401 19.1115 35.4038 21.3599 35.4038C21.3599 35.5489 21.3599 35.6214 21.3599 35.6939Z" fill="#939393"/>
<path d="M89.8615 49.8367C89.2813 49.9818 88.7011 50.1268 88.1209 50.2719C87.7945 50.3444 87.2143 50.3444 87.2868 50.7433C87.6495 53.0642 85.8 52.4477 84.7484 52.5928C78.5836 53.4268 72.4188 54.2246 66.3265 55.3125C64.4771 55.6389 62.7727 54.9136 60.9595 54.6235C60.3068 54.5147 59.654 54.3697 59.0013 54.2246C54.9035 53.4631 54.8673 53.4631 54.3958 49.329C54.2871 48.2411 53.8156 47.8785 52.8728 47.7335C52.2926 47.6247 51.7123 47.4433 50.9146 47.262C53.453 43.5269 55.9552 39.9005 58.4211 36.2742C58.8563 35.6577 59.4365 35.7665 60.0167 35.7665C67.5958 35.4764 75.066 36.1654 82.4638 37.906C83.2616 38.0874 83.733 38.3775 84.0594 39.139C85.1473 41.5687 86.3077 43.9258 87.4681 46.3192C88.0484 47.5884 88.411 49.0027 89.8615 49.8367Z" fill="#939393"/>
<path d="M96.0264 13.1018C97.3319 13.5007 98.2022 13.8633 99.1088 14.0809C102.808 14.9875 105.926 16.7644 108.646 19.5204C110.351 21.2248 110.786 22.9655 110.713 25.3951C108.646 24.0534 106.724 22.8929 104.875 21.5874C103.968 20.9347 103.207 20.8984 102.227 21.3336C100.16 22.2764 97.9847 23.0742 95.9177 24.0171C95.0473 24.416 94.2858 24.3797 94.0319 23.5094C93.3429 21.2611 91.2397 20.1369 90.0067 18.36C89.7166 17.9611 89.4628 17.5622 89.1001 17.2358C88.0122 16.1479 87.5771 15.2776 89.499 14.6249C90.5869 14.2622 90.5507 13.6095 89.8254 12.7392C88.2298 10.7084 86.7793 8.53259 85.1474 6.5381C84.2771 5.48646 84.676 4.79745 85.5826 4.50734C88.0847 3.70955 89.7891 1.78758 91.8561 0.373308C92.6177 -0.134381 93.0166 -0.170644 93.6331 0.554625C94.2858 1.35242 94.0682 1.86011 93.3067 2.22275C91.8199 2.94801 92.2188 3.70955 93.0528 4.68866C93.9594 5.7403 94.7935 6.86447 95.555 8.0249C96.4253 9.43918 97.2594 10.2732 98.9275 9.00401C99.8704 8.27874 100.088 9.40291 100.523 9.87434C101.14 10.5633 100.451 10.7809 100.015 11.0348C98.7099 11.615 97.5132 12.2677 96.0264 13.1018ZM90.6595 4.18097C90.188 4.54361 89.6803 4.97877 89.1001 5.30514C87.9397 5.92162 87.9034 6.5381 88.7375 7.48095C89.5715 8.4238 90.2606 9.5117 91.0221 10.5271C92.5452 12.6304 92.5452 12.5941 94.721 11.2524C95.4825 10.7809 95.7726 10.4546 95.1199 9.62049C93.8869 8.06116 92.7265 6.42931 91.5298 4.83372C91.3485 4.54361 91.1671 4.18097 90.6595 4.18097Z" fill="#939393"/>
<path d="M16.4642 34.3885C14.3972 34.0259 12.5115 34.461 10.9159 35.9116C10.3719 36.383 9.71918 36.4192 9.03017 36.383C7.03568 36.383 5.04119 36.3105 3.0467 36.383C1.63243 36.4192 1.5599 35.9841 2.21264 34.8962C2.86538 33.8808 3.4456 32.8292 3.88076 31.705C4.56977 29.9643 5.7302 29.1303 7.6159 28.8764C10.5532 28.4775 10.5532 28.3688 10.0093 25.4314C9.9005 24.8512 9.82797 24.2347 9.68292 23.6545C9.42907 22.7479 9.75544 22.4215 10.662 22.204C11.6049 21.9864 11.8587 22.3853 12.0038 23.1106C12.2576 24.416 12.5477 25.7215 12.7653 27.027C12.8741 27.6072 13.0554 27.8973 13.6719 27.7885C16.0653 27.3896 17.8422 27.0995 16.9719 23.6545C16.3917 21.2611 16.1016 18.7952 15.5939 16.4018C15.4125 15.459 15.34 14.8787 16.573 14.6249C17.951 14.3348 17.7697 15.3502 17.8785 16.0029C18.3499 18.2875 18.7488 20.6084 19.1839 22.9292C19.329 23.7633 19.5103 24.3072 20.6345 24.1985C21.4323 24.1259 22.4839 24.2347 22.6652 25.5039C22.774 26.3017 23.4268 25.9754 23.7894 25.8303C25.0224 25.3952 25.6026 25.9028 26.1465 26.9907C27.5608 29.8193 27.5971 29.783 24.841 31.4512C24.152 31.85 23.463 32.2127 22.8466 32.6841C20.9609 33.9896 18.9301 34.9324 16.4642 34.3885Z" fill="#939393"/>
<path d="M59.5817 34.7149C58.4938 34.4248 57.841 35.0412 57.2245 36.0203C56.1366 37.6885 55.2663 39.9368 53.707 40.6983C52.1114 41.4599 49.8993 40.1906 47.9411 39.828C45.4752 39.3566 44.6411 38.3412 44.3147 35.8028C44.2422 35.0775 44.6411 34.9687 45.0763 34.8599C49.7905 33.3731 54.5048 31.9588 59.219 30.4358C60.0531 30.1819 60.452 30.4358 60.6696 31.1973C60.8146 31.705 60.9597 32.2489 61.1047 32.7566C61.7937 34.7149 61.7937 34.7149 59.5817 34.7149ZM56.3179 33.8445C55.5927 33.2281 55.2663 33.4094 54.9399 33.5182C52.1839 34.3522 49.4279 35.1138 46.6719 35.9478C46.3455 36.0566 45.9103 36.0929 45.9829 36.6006C46.0191 36.8907 46.3092 36.9269 46.5631 36.8544C49.718 35.8753 52.8729 34.8962 56.3179 33.8445Z" fill="#939393"/>
<path d="M37.098 38.3412C41.9935 39.3566 46.8891 40.4082 51.7847 41.3873C52.8363 41.6049 52.6913 42.2939 52.4012 42.8379C51.6759 44.1434 50.7693 45.3763 49.9352 46.6093C49.5726 47.1532 49.1012 46.8631 48.6298 46.7543C46.2726 46.2104 43.8792 45.8477 41.5946 45.0499C39.165 44.1796 37.6057 42.0038 35.865 40.2269C35.2848 39.6104 36.1914 38.2687 37.098 38.3412ZM36.9892 40.4082C40.3254 41.4236 43.6617 42.3302 47.1792 42.4752C43.843 41.4599 40.5067 40.4445 36.9892 40.4082Z" fill="#939393"/>
<path d="M38.9837 54.4784C38.9475 54.6235 38.9475 54.696 38.9475 54.7323C37.6782 59.4103 38.9837 58.6125 34.3783 57.7059C31.2959 57.0894 28.286 56.3279 25.2036 55.7114C24.1157 55.4938 23.7168 55.1674 24.0432 53.9345C24.9135 50.3444 24.841 50.3081 28.4673 51.1422C31.586 51.8675 34.7046 52.5565 37.787 53.2817C38.476 53.4268 39.3101 53.463 38.9837 54.4784ZM25.9289 51.94C25.8926 52.1576 25.8201 52.3751 25.7838 52.5565C28.2497 53.0641 30.7157 53.6081 33.1816 54.1158C33.2178 53.8982 33.2541 53.6806 33.3266 53.463C30.8607 52.9554 28.3948 52.4477 25.9289 51.94Z" fill="#939393"/>
<path d="M89.3538 56.0377C88.3747 55.3124 88.5923 53.9344 88.3747 52.8103C88.2659 52.2663 87.3231 51.2509 88.7373 50.9608C93.0164 50.018 97.3318 49.1114 101.611 48.2048C102.119 48.096 102.372 48.3498 102.481 48.8575C102.699 49.9817 102.953 51.1059 103.17 52.1938C103.279 52.7015 103.243 53.1004 102.554 53.2454C98.2746 54.152 93.9955 55.0586 89.3538 56.0377ZM96.679 50.3443C94.1406 50.5982 91.6384 51.1421 89.2088 51.9762C90.5868 52.2663 95.2648 51.2509 96.679 50.3443Z" fill="#939393"/>
<path d="M78.7284 10.5997C74.9208 11.1436 71.3669 11.9052 67.7043 11.9414C66.0362 11.9777 66.7977 10.3821 66.2175 9.69309C65.6373 8.96782 66.6889 8.82276 67.0516 8.75023C69.0823 8.35134 70.1702 7.40849 69.8076 5.16015C69.6263 3.92719 70.3516 3.70961 71.3669 4.18104C72.5274 4.72499 73.5065 4.94257 74.0867 3.34698C74.3768 2.54918 75.1746 2.76676 75.8273 2.94808C76.5164 3.1294 76.7702 3.63709 76.7339 4.32609C76.7339 5.30521 76.19 6.06674 75.501 6.64695C74.3768 7.66233 74.7757 8.20628 75.8999 8.75023C76.879 9.1854 77.9306 9.51177 78.7284 10.5997Z" fill="#939393"/>
<path d="M124.892 29.7467C124.892 29.9643 124.892 30.1093 124.892 30.2181C124.638 31.6324 124.312 33.0104 123.55 34.2433C122.607 33.6269 121.628 33.0467 120.722 32.3939C118.655 30.9434 116.624 29.4203 114.521 27.9698C113.687 27.3896 113.687 27.0994 114.448 26.4104C115.681 25.3225 116.805 24.9599 118.183 26.1203C119.634 27.317 121.52 27.4983 123.26 27.7885C124.529 28.0423 125.146 28.55 124.892 29.7467Z" fill="#939393"/>
<path d="M79.9617 30.2545C78.2936 32.2127 76.5529 31.7775 74.6672 31.0885C72.1288 30.1457 72.1288 30.2545 71.2585 32.9017C71.0409 33.5182 71.186 34.3885 69.9893 34.8237C70.4607 33.3006 70.8233 31.9951 71.2222 30.7259C72.4552 26.7006 73.7244 22.6754 74.9574 18.6502C75.6101 16.5831 76.4079 16.1842 78.4749 16.8007C82.3914 17.9974 86.2716 19.2666 90.188 20.4633C93.0891 21.3699 93.5605 23.0743 91.4572 25.7941C91.2034 24.8875 91.6748 24.2347 91.8924 23.5457C92.2188 22.4216 91.8924 21.6963 90.732 21.3336C86.4891 19.9919 82.21 18.6502 77.9672 17.3447C76.8793 17.0183 76.0815 17.3447 75.7551 18.5051C74.9211 21.2611 74.087 24.0534 73.1442 26.7732C72.8178 27.7885 73.1804 28.1512 74.087 28.405C76.009 28.9852 77.931 29.638 79.9617 30.2545Z" fill="#939393"/>
<path d="M63.2441 34.7511C64.4771 31.7412 65.6013 28.9852 66.7254 26.2291C66.9068 25.794 67.1606 25.5039 67.6683 25.7215C68.7925 26.1929 69.8804 26.6643 71.0045 27.0995C71.7298 27.3896 71.4034 27.861 71.2946 28.2962C71.1133 28.9852 70.6419 28.6588 70.2793 28.5137C69.554 28.2236 68.865 27.861 68.1397 27.6072C67.9584 27.5346 67.632 27.6434 67.5232 27.7885C67.2694 28.1511 67.632 28.2599 67.8859 28.4412C67.9221 28.4775 67.9947 28.4775 68.0309 28.5137C68.9375 29.0577 70.6056 28.9489 70.6419 30.0368C70.6782 31.4511 69.8804 32.9016 69.4452 34.3522C69.2639 34.7148 68.9012 34.7511 68.5386 34.7511C68.176 34.7511 67.8133 34.7511 67.4507 34.7511C66.1452 34.7511 64.8397 34.7511 63.2441 34.7511Z" fill="#939393"/>
</svg>
