<svg width="122" height="79" viewBox="0 0 122 79" fill="none" xmlns="http://www.w3.org/2000/svg">
<path d="M81.2998 78H102.1C102.818 78 103.4 77.4182 103.4 76.6997V66.2998C103.4 65.5813 102.818 65 102.1 65H81.2998C80.5813 65 80 65.5813 80 66.2998V76.6997C80 77.4182 80.5813 78 81.2998 78ZM82.6001 67.6001H100.8V75.3999H82.6001V67.6001Z" fill="#939393"/>
<path d="M120.06 66.7583L111.57 60.7508C110.984 60.336 110.173 60.4749 109.758 61.0614L103.751 69.5509C103.336 70.1374 103.475 70.948 104.061 71.3628L112.551 77.3702C113.137 77.785 113.948 77.6465 114.363 77.06L120.37 68.5705C120.785 67.984 120.646 67.173 120.06 66.7583ZM112.992 74.4967L106.625 69.9914L111.13 63.6243L117.497 68.1297L112.992 74.4967Z" fill="#939393"/>
<path d="M66.2998 65H56.6754C56.516 64.1104 56.3333 63.244 56.1168 62.3999H61.1001C61.8186 62.3999 62.3999 61.8186 62.3999 61.1001V50.7002C62.3999 49.9817 61.8186 49.3999 61.1001 49.3999H49.2975C48.5103 48.4876 47.6782 47.6212 46.7998 46.7998H55.8999C56.6184 46.7998 57.2002 46.2185 57.2002 45.5V35.1001C57.2002 34.3816 56.6184 33.7998 55.8999 33.7998H35.1001C34.3816 33.7998 33.7998 34.3816 33.7998 35.1001V39.2967L32.7165 38.8744C32.0439 38.6125 31.7245 37.8596 31.9868 37.187C32.0096 37.1411 32.0323 37.0841 32.0554 37.0387L33.6747 34.0511C34.1651 33.1272 34.5981 32.1806 34.9745 31.2113H50.6886C51.4071 31.2113 51.9884 30.63 51.9884 29.9115V19.5C51.9884 18.7815 51.4071 18.2002 50.6886 18.2002H36.3888C36.2404 17.3218 36.0578 16.4554 35.8186 15.6001H44.2002C44.9182 15.6001 45.5 15.0183 45.5 14.2998V3.89991C45.5 3.1814 44.9182 2.60009 44.2002 2.60009H26.992C24.5861 0.912281 21.7353 0.0115816 18.8042 0H1.29982C0.581757 0 0 0.581757 0 1.29982V76.7002C0 77.4182 0.581757 78 1.29982 78H66.2998C67.0183 78 67.6001 77.4182 67.6001 76.7002V66.2998C67.6001 65.5818 67.0183 65 66.2998 65ZM59.7998 52V59.7998H55.3525C55.0562 58.9789 54.7253 58.1806 54.372 57.3939C54.2691 57.1543 54.144 56.9151 54.0299 56.687C53.7675 56.128 53.4825 55.5694 53.1747 55.0219C53.049 54.7823 52.9123 54.5315 52.7639 54.2923C52.4107 53.6878 52.0343 53.0833 51.6352 52.5016C51.5439 52.3764 51.4641 52.2281 51.3728 52.0913C51.3501 52.057 51.3385 52.0343 51.3158 52H59.7998ZM36.3999 40.3114V36.3999H54.6001V44.2002H43.6184C43.3561 44.006 43.0825 43.8349 42.8086 43.6527C42.5694 43.4928 42.3413 43.3333 42.1017 43.1739C41.7368 42.9458 41.372 42.7289 40.9956 42.5124C40.7791 42.3868 40.5511 42.25 40.3341 42.1244C39.9007 41.8852 39.4677 41.6682 39.0227 41.4633C38.8517 41.372 38.6806 41.2807 38.4984 41.201C37.8712 40.9043 37.244 40.6419 36.6053 40.38L36.3999 40.3114ZM49.3999 20.7998V28.6001H35.864C35.8868 28.5088 35.9095 28.4063 35.9326 28.315C36.0467 27.87 36.1491 27.4139 36.2404 26.9693C36.2747 26.821 36.2975 26.6726 36.3318 26.5359C36.4342 25.9657 36.5255 25.3955 36.5825 24.8142C36.5937 24.7113 36.5937 24.6089 36.6053 24.506C36.6507 24.016 36.685 23.5367 36.6966 23.0467C36.7077 22.8756 36.7077 22.7157 36.7077 22.5446C36.7193 22.0088 36.7077 21.484 36.685 20.9482C36.685 20.9027 36.685 20.8568 36.685 20.8114L49.3999 20.7998ZM42.8999 5.20018V13H34.9402C34.9175 12.9314 34.872 12.8632 34.8493 12.7946C34.5869 12.1563 34.3018 11.5291 33.994 10.9131C33.9597 10.8561 33.9254 10.799 33.9027 10.742C33.6061 10.1834 33.2867 9.63596 32.9561 9.10009C32.8648 8.95175 32.7735 8.80342 32.6826 8.65508C32.3062 8.08491 31.9182 7.51473 31.4964 6.97886C31.4621 6.93342 31.4282 6.89912 31.3939 6.85369C30.9948 6.35167 30.5841 5.87281 30.1507 5.40508C30.0825 5.33693 30.0367 5.2572 29.9685 5.1886L42.8999 5.20018ZM2.60009 2.60009H18.7931C21.3361 2.60009 23.8106 3.43263 25.8405 4.96053C26.0343 5.09728 26.2281 5.24561 26.4107 5.40508C26.4334 5.42825 26.5016 5.4964 26.5247 5.50798C29.364 8.00517 31.5307 11.1754 32.8194 14.7332C33.3896 16.3186 33.7771 17.9605 33.9709 19.6368C34.3473 22.9554 33.9709 26.3194 32.8648 29.4665C32.4773 30.6068 31.9753 31.7245 31.3939 32.7851L29.7747 35.7727C28.7368 37.6659 29.4326 40.0263 31.3142 41.0642C31.4621 41.1439 31.6104 41.2121 31.7588 41.2691L35.6475 42.7859C36.2516 43.0255 36.8449 43.2763 37.4262 43.5498C39.1826 44.3712 40.8589 45.3744 42.4211 46.5147C44.3824 47.9518 46.1499 49.628 47.701 51.4984C49.959 54.2237 51.7149 57.3253 52.9007 60.6551C53.0036 60.929 53.0833 61.1914 53.1747 61.4649C53.6989 63.0841 54.0754 64.7492 54.3034 66.4482C54.4972 67.8054 54.5885 69.185 54.5885 70.565V75.3772H2.58851V2.60009H2.60009ZM65 75.3999H57.2002V70.5877C57.2002 69.6982 57.1543 68.8086 57.0746 67.8963C57.063 67.7939 57.0746 67.6914 57.063 67.5885H65V75.3999Z" fill="#939393"/>
</svg>
