<svg width="56" height="40" viewBox="0 0 56 40" fill="none" xmlns="http://www.w3.org/2000/svg">
<path d="M16.8077 25.7482C17.3366 25.7482 17.8769 25.7599 18.4058 25.7482C18.6702 25.7365 18.7852 25.8069 18.7737 26.1118C18.7622 27.2379 18.7507 28.3522 18.7737 29.4782C18.7737 29.7831 18.6587 29.8418 18.3943 29.8418C17.3136 29.8301 16.2214 29.8301 15.1406 29.8535C14.8187 29.8535 14.7612 29.7245 14.7612 29.443C14.7727 28.3521 14.7842 27.2613 14.7612 26.1705C14.7612 25.8303 14.8762 25.7482 15.1866 25.7599C15.7385 25.7599 16.2673 25.7482 16.8077 25.7482ZM16.8192 27.1557C16.5203 27.1792 16.1064 26.9915 16.1524 27.6249C16.1984 28.3991 16.1639 28.4108 16.7272 28.3991C17.0376 28.3991 17.44 28.5633 17.3941 27.9299C17.3481 27.0619 17.4745 27.1792 16.8192 27.1557Z" fill="#BBBBBB"/>
<path d="M19.4292 27.7187C19.4292 27.1791 19.4407 26.6278 19.4292 26.0883C19.4177 25.8185 19.5096 25.7364 19.7741 25.7364C20.8893 25.7481 22.0045 25.7481 23.1197 25.7364C23.3612 25.7364 23.4416 25.8185 23.4416 26.0648C23.4302 27.2026 23.4416 28.3403 23.4416 29.4781C23.4416 29.7361 23.3497 29.83 23.0967 29.83C21.9815 29.8182 20.8663 29.8182 19.7511 29.83C19.5096 29.83 19.4292 29.7479 19.4407 29.5015C19.4407 28.9033 19.4292 28.3169 19.4292 27.7187ZM21.3492 27.1556C20.9813 27.0735 20.7628 27.1791 20.7973 27.7187C20.8548 28.4576 20.6938 28.399 21.3952 28.4107C22.039 28.4107 22.039 28.4107 22.039 27.8242C22.039 27.0501 22.0965 27.1674 21.3492 27.1556Z" fill="#BBBBBB"/>
<path d="M31.8341 27.4138C30.8569 27.4138 29.8796 27.402 28.9024 27.4255C28.5919 27.4255 28.523 27.3317 28.523 27.0267C28.523 26.0062 28.5115 26.0062 29.4887 26.0062C31.2478 26.0062 33.0068 26.018 34.7659 25.9945C35.1338 25.9945 35.2372 26.0883 35.2258 26.4637C35.2028 27.4138 35.2257 27.4138 34.283 27.4138C33.4552 27.4255 32.6389 27.4255 31.8341 27.4138C31.8341 27.4255 31.8341 27.4138 31.8341 27.4138Z" fill="#BBBBBB"/>
<path d="M37.6749 29.8183C37.1691 29.8183 36.6632 29.8065 36.1573 29.8183C35.8584 29.83 35.7319 29.7596 35.7319 29.4077C35.7319 28.399 35.7204 28.399 36.7092 28.399C37.514 28.399 38.3303 28.4107 39.1351 28.3873C39.457 28.3755 39.595 28.4459 39.595 28.8213C39.595 29.8065 39.6064 29.8065 38.6407 29.8065C38.3188 29.8183 37.9969 29.8183 37.6749 29.8183Z" fill="#BBBBBB"/>
<path d="M36.8124 27.4138C36.1226 27.4138 36.1226 27.4138 36.1226 26.6514C36.1226 26.0063 36.1226 26.0063 36.9159 26.0063C37.5022 26.0063 37.5022 26.0063 37.5022 26.8273C37.4907 27.5194 37.5827 27.4021 36.8124 27.4138Z" fill="#BBBBBB"/>
<path d="M38.4106 26.71C38.4106 26.0063 38.4106 26.0063 39.158 26.0063C39.7903 26.0063 39.7903 26.0063 39.7903 26.8273C39.7903 27.4138 39.7903 27.4255 38.974 27.4138C38.3187 27.4138 38.4221 27.5194 38.4106 26.71Z" fill="#BBBBBB"/>
<path d="M13.7273 15.8188C13.7263 15.7202 13.7501 15.6301 13.7409 15.5397C13.7074 12.1893 13.8484 10.1688 13.8231 6.82671C13.8208 6.59678 13.7789 6.50604 13.5242 6.49528C12.4233 6.435 12.4233 6.435 12.4344 7.53538C12.4633 10.4259 12.3259 11.9784 12.3465 14.8607C12.3562 15.8297 12.3562 15.8297 13.3414 15.8231C13.4647 15.8326 13.5878 15.8256 13.7273 15.8188Z" fill="#BBBBBB"/>
<path d="M6.80407 7.37515C6.87487 7.30661 6.95655 7.26182 7.01587 7.19298C9.42326 4.86255 10.986 3.5741 13.393 1.2554C13.5583 1.09547 13.5952 1.00257 13.4277 0.810437C12.7137 -0.0296547 12.7137 -0.0296552 11.9231 0.735732C9.84609 2.7463 8.62531 3.71518 6.54865 5.71402C5.85239 6.38802 5.85239 6.38802 6.53531 7.09823C6.6133 7.19414 6.70309 7.27863 6.80407 7.37515Z" fill="#BBBBBB"/>
<path d="M11.9998 27L7 24L8.54557 8.5962L13.1418 4.00001L15.6166 6.47488L15.6166 23" stroke="#BBBBBB" stroke-width="1.2"/>
<path d="M42.3435 15.8188C42.3445 15.7202 42.3208 15.6301 42.3299 15.5397C42.3634 12.1893 42.2224 10.1688 42.2477 6.82671C42.25 6.59678 42.2919 6.50604 42.5466 6.49528C43.6475 6.435 43.6475 6.435 43.6364 7.53538C43.6075 10.4259 43.7449 11.9784 43.7243 14.8607C43.7146 15.8297 43.7146 15.8297 42.7294 15.8231C42.6061 15.8326 42.483 15.8256 42.3435 15.8188Z" fill="#BBBBBB"/>
<path d="M49.2667 7.37515C49.1959 7.30661 49.1142 7.26182 49.0549 7.19298C46.6475 4.86255 45.0848 3.5741 42.6778 1.2554C42.5125 1.09547 42.4756 1.00257 42.6431 0.810437C43.3571 -0.0296547 43.3571 -0.0296552 44.1477 0.735732C46.2247 2.7463 47.4455 3.71518 49.5222 5.71402C50.2184 6.38802 50.2184 6.38802 49.5355 7.09823C49.4575 7.19414 49.3677 7.27863 49.2667 7.37515Z" fill="#BBBBBB"/>
<path d="M44.071 27L49.0708 24L47.5252 8.5962L42.929 4.00001L40.4542 6.47488L40.4542 23" stroke="#BBBBBB" stroke-width="1.2"/>
<path d="M12.9995 28.5V31.5H42.9995V26L40.9995 24H14.9995L12.9995 26" stroke="#BBBBBB" stroke-width="1.5"/>
<path d="M19.9995 15V11.5L20.9328 10H33.0662L33.9995 11.3333V15H19.9995Z" stroke="#BBBBBB" stroke-width="1.5"/>
<path d="M21 23V17H33V23" stroke="#BBBBBB" stroke-width="1.5"/>
<rect x="11.9995" y="34" width="6" height="5" stroke="#BBBBBB" stroke-width="1.5"/>
<rect x="37.9995" y="34" width="6" height="5" stroke="#BBBBBB" stroke-width="1.5"/>
</svg>
