<svg width="44" height="43" fill="none" xmlns="http://www.w3.org/2000/svg"><path d="M0 11.72c.082-.587.131-1.173.268-1.753.318-1.38.756-2.722 1.44-3.97.094-.17.055-.247-.076-.356-.466-.395-.926-.8-1.38-1.205C.093 4.293.148 4.09.18 3.92c.038-.186.191-.268.383-.301a21.3 21.3 0 0 1 2.634-.296c.959-.055 1.917-.05 2.875-.01.345.01.542.19.559.536.104 1.79.055 3.576-.285 5.34-.093.481-.438.596-.816.284-.405-.34-.816-.679-1.205-1.03-.148-.131-.23-.115-.345.028-.547.69-.843 1.484-1.024 2.333-.098.454-.12.92-.142 1.385-.006.104.022.208-.115.274-.104.05-.05.186-.044.28.088 2.102.728 4.014 2.043 5.667 2.13 2.673 4.928 4.036 8.34 3.795 4.107-.29 6.999-2.447 8.538-6.264 1.144-2.843.92-5.68-.62-8.324-1.823-3.133-4.616-4.787-8.241-4.967-1.451-.072-2.848.235-4.162.865-.241.115-.29.033-.35-.164-.176-.586-.51-1.063-1.041-1.391-.285-.176-.591-.263-.936-.356.164-.088.323-.176.492-.252C8.26.619 9.863.143 11.571.038c.055-.005.104-.022.16-.038h1.423c.531.093 1.068.093 1.594.214 4.797 1.084 8.034 3.948 9.583 8.614.953 2.858.75 5.723-.46 8.494-1.26 2.886-3.33 5.005-6.15 6.374a11.673 11.673 0 0 1-5.947 1.172c-3.779-.246-6.823-1.9-9.162-4.852C1.09 18.088.23 15.87.044 13.406c-.006-.088-.028-.175-.044-.263V11.72z" fill="#FFB536"/><path d="M3.373 23.127c.98.794 1.994 1.5 3.133 2.01.137.06.126.158.126.268v4.162c0 2.858-.006 5.712 0 8.57 0 1.057.652 1.681 1.73 1.681 2.054.006 4.108 0 6.161 0h13.138c3.477 0 6.955 0 10.427.006.608 0 1.133-.175 1.478-.718.181-.284.252-.602.252-.936-.005-2.355-.005-4.71-.005-7.064 0-2.043.005-4.086.005-6.134 0-2.694-.005-5.383.006-8.078 0-.251-.066-.312-.312-.312-4.48.011-8.96.011-13.445.011-.055 0-.11-.005-.186-.01.208-.57.367-1.14.465-1.72.482-2.755.077-5.394-1.018-7.94-.126-.286-.12-.291.186-.291 1.358 0 2.722.005 4.08-.006.219 0 .274.066.274.28.005 1.122-.055 2.245.027 3.368.093 1.358 1.128 2.557 2.437 2.886 1.413.356 2.848-.187 3.62-1.37a3.434 3.434 0 0 0 .559-1.938c-.006-.997.005-1.988 0-2.985 0-.147.01-.24.202-.235.64.01 1.276-.027 1.917.027 2.656.247 4.523 2.306 4.523 4.973V25.24c0 4.245.006 8.489 0 12.733 0 1.577-.57 2.902-1.796 3.915-.914.756-1.977 1.107-3.16 1.107h-6.763c-5.695 0-11.39.005-17.086.005H8.16c-2.552-.005-4.748-2.08-4.808-4.627-.055-2.262-.022-4.524-.022-6.791v-8.187c-.006-.082-.033-.17.043-.268z" fill="#FFB536"/><path d="M31.533 7.448v-2.46c-.006-1.018.63-1.653 1.654-1.658 1.002-.006 1.653.63 1.653 1.632.006 1.697.011 3.39-.005 5.087-.005.761-.422 1.298-1.068 1.49-.761.224-1.539.005-1.944-.564a1.593 1.593 0 0 1-.285-.926c-.005-.87 0-1.736-.005-2.601.005 0 .005 0 0 0zm-13.28 27.409c0-.477.005-.948-.006-1.424-.006-.18.038-.252.241-.252.936.01 1.878.005 2.815-.006.208 0 .28.055.274.274-.011.931-.011 1.857 0 2.788 0 .197-.044.273-.252.273-.959-.01-1.912-.01-2.87-.005-.153 0-.208-.044-.202-.203.005-.481 0-.963 0-1.445zm-4.973 1.648c-.482 0-.964-.005-1.451.006-.164.005-.22-.05-.22-.22.006-.963.006-1.932 0-2.896 0-.176.067-.208.225-.208.948.005 1.895.005 2.843-.006.197 0 .268.05.263.263-.011.936-.011 1.878 0 2.815 0 .213-.077.263-.269.263-.465-.011-.93-.006-1.396-.006.005-.005.005-.005.005-.01zm-1.665-8.329c0-.477.006-.948-.005-1.419 0-.153.05-.202.203-.202.963.005 1.933 0 2.897-.006.153 0 .23.033.23.214-.006.958-.011 1.911 0 2.87 0 .191-.055.251-.247.246-.958-.011-1.911-.011-2.87-.006-.164 0-.219-.049-.219-.219.017-.498.011-.985.011-1.478zm8.258 1.692c-.454 0-.914-.006-1.369.005-.18.006-.257-.033-.257-.235.011-.959.006-1.917 0-2.875 0-.148.044-.208.203-.208.969.005 1.933 0 2.902-.006.154 0 .225.033.225.214a125.24 125.24 0 0 0 0 2.875c0 .202-.077.24-.252.24-.482-.005-.97 0-1.451 0v-.01zm8.336 4.994c0 .477-.006.948.005 1.424 0 .159-.027.23-.208.23-.975-.005-1.95-.005-2.924 0-.154 0-.181-.066-.181-.197.005-.975.005-1.95 0-2.924 0-.165.06-.198.208-.198.958.006 1.917.006 2.87-.005.202 0 .24.077.235.257-.01.466-.005.937-.005 1.413zm4.978 1.643c-.482 0-.964-.005-1.452 0-.153 0-.208-.044-.208-.202.006-.975.006-1.95 0-2.925 0-.159.06-.197.208-.197.959.006 1.917.006 2.87 0 .17 0 .241.038.241.225-.005.936-.005 1.878.006 2.815 0 .202-.044.29-.269.284-.465-.01-.93 0-1.396 0zm-4.979-8.302c0 .482-.005.964 0 1.451 0 .137-.016.22-.186.22-.986-.006-1.966-.006-2.952 0-.131 0-.175-.044-.175-.176.006-.991.006-1.988 0-2.979 0-.115.038-.164.159-.164.991 0 1.988.005 2.979 0 .159 0 .175.076.175.202v1.446zm3.325-.027c0-.477.005-.948-.006-1.424-.005-.153.05-.203.203-.203.964.006 1.933.006 2.897 0 .17 0 .219.055.213.22-.005.947-.005 1.894.006 2.841 0 .209-.06.263-.263.258-.947-.011-1.895-.011-2.842 0-.17 0-.22-.055-.214-.22.011-.487.006-.98.006-1.472zm-5.001-4.946c-.476 0-.947-.005-1.423.006-.17.005-.22-.055-.22-.22.006-.963.006-1.932 0-2.896 0-.159.055-.203.209-.203.964.006 1.933.006 2.897 0 .17 0 .213.055.213.22-.005.947-.005 1.894.006 2.842 0 .208-.06.262-.263.257-.471-.016-.948-.006-1.419-.006zm6.643 0c-.465 0-.93-.005-1.396.006-.18.005-.258-.038-.258-.236.011-.963.006-1.933.006-2.896 0-.143.05-.187.192-.187.974.006 1.95.006 2.924 0 .159 0 .203.066.203.214 0 .947 0 1.895.005 2.842 0 .192-.038.274-.257.268-.471-.027-.942-.01-1.419-.01zM12.294 10.646c.258.104.428-.082.62-.263 1.248-1.177 2.502-2.344 3.756-3.516.312-.29.788-.323 1.068-.07.268.246.252.684-.05 1.034-1.15 1.33-2.3 2.667-3.455 3.992a.561.561 0 0 0-.159.438c.044.543-.12 1.03-.438 1.463a.524.524 0 0 0-.11.323 297.029 297.029 0 0 1-.23 3.85c-.043.635-.525.98-1.139.843-.361-.082-.503-.241-.542-.652a433.833 433.833 0 0 1-.328-3.762c-.017-.203-.06-.34-.252-.465-.29-.187-.389-.52-.493-.833-.323-.953.104-1.96.958-2.283.247-.088.499-.104.794-.099z" fill="#FFB536"/></svg>