<svg width="55" height="49" fill="none" xmlns="http://www.w3.org/2000/svg"><path d="M54.772 32.707c-.02-.12-.04-.24-.04-.361v-19.44c0-.38-.08-.701-.34-1.002-.903-1.102-.883-1.102-1.985-.16-.28.24-.26.38-.04.641.24.28.501.501.501.942-.02 3.607-.02 13.508 0 17.115 0 .36-.12.461-.46.44-1.244-.02-2.506 0-3.749 0-1.162 0-1.182 0-1.162-1.202 0-.56-.24-1.302.1-1.663.341-.38 1.082-.14 1.644-.1.54.02.64-.18.62-.662-.02-1.743-.08-9.78 0-11.523.061-1.162-.18-2.144-1.041-2.966-.521-.501-.962-1.122-1.403-1.704-.2-.24-.4-.36-.722-.36-1.523.02-3.026.02-4.549 0-.32 0-.52.1-.721.34-.682.842-1.363 1.704-2.064 2.526-.281.32-.381.62-.381 1.042.02 2.084.02 10.481-.02 12.565-.02.581.14.842.741.742.421-.08.581.1.561.541a12.4 12.4 0 0 0 0 1.724c.06.6-.12.841-.721.72-.381-.06-.561.081-.521.502.04.44 0 .902 0 1.343h3.066c0-2.064 0-4.129.02-6.213 0-.46-.22-.521-.561-.46-.601.1-.762-.161-.742-.742.04-1.263.02-8.838 0-10.101 0-.38.16-.641.341-.942.822-1.423 2.004-1.884 3.648-1.764 1.042.08 1.743.321 2.404 1.163.542.721.882 1.403.822 2.325-.08 1.082-.04 8.457-.02 9.56.02.42-.14.54-.521.52-.42-.02-.862.02-1.283 0-.42-.04-.56.1-.56.541.02 2.044.02 4.089.02 6.153 3.066-.08 6.092-.08 9.118-.08z" fill="#FFB536"/><path d="M36.555 30.863c-.401.08-.581-.06-.561-.521.02-3.567.02-13.428 0-16.995 0-.28.1-.5.28-.721 1.243-1.523 2.505-3.047 3.728-4.57.22-.26.44-.38.781-.36 1.824.02 3.648 0 5.472 0 .781 0 1.663-.2 2.304.1.642.3 1.043 1.122 1.524 1.723.921 1.123.901 1.123 2.004.14.26-.22.22-.36.02-.58-.762-.922-1.523-1.824-2.245-2.766-.26-.34-.541-.541-.982-.461-.42.08-.521-.12-.501-.521.02-.902.04-1.804 0-2.706-.02-.44.1-.661.561-.58.4.08.561-.081.581-.522.02-.46.06-.922.08-1.383h-2.024c-.1.04-.24.06-.4.06-1.844 0-3.688 0-5.532.02-.16 0-.28-.02-.38-.06H39.2c.06.441.1.902.16 1.343.06.46.221.621.642.541.42-.06.521.12.5.521-.02.922-.02 1.844 0 2.766.021.4-.1.581-.5.52-.441-.08-.702.141-.982.462a386.443 386.443 0 0 1-4.51 5.511c-.26.32-.38.641-.38 1.042.02 1.944.02 10.18 0 12.125 0 2.565-.02 5.13-.02 7.676h3.066c0-.401-.02-.782.02-1.183.08-.46-.06-.721-.641-.621zm6.273-28.799c1.082.02 2.164.02 3.246 0 .32 0 .481.06.461.441-.02.902-.02 1.804 0 2.706.02.4-.14.48-.5.46-.542-.02-1.063 0-1.604 0-.581 0-1.142-.02-1.724 0-.36.02-.38-.18-.38-.46 0-.301.06-.441.4-.441.642.02 1.263 0 1.904.02.28 0 .381-.08.401-.381.1-1.463.1-1.463-1.343-1.483-.3 0-.62-.02-.922 0-.34.02-.44-.1-.46-.441.04-.38.2-.42.52-.42zM18.217.862C18.137.3 17.777.04 17.115.04 11.805.02 6.493 0 1.182 0 .341 0 .02.34.02 1.162c0 1.203-.02 2.425 0 3.628 0 .06 0 .1-.02.14v10.14c.02.141.04.301.08.442.421 1.723 1.744 2.725 3.608 2.725.3 0 .42.04.4.381-.02 2.084-.02 4.169-.02 6.233 0 .38-.04.761-.14 1.142-.28 1.062-.541 2.124-.802 3.187-.22.901.14 1.362 1.083 1.362H5.57c.541 0 .541 0 .541.521-.02 4.129-.02 8.257-.04 12.386 0 .32.02.641.18.962a716.016 716.016 0 0 1 1.865 3.888c.18.38.42.681.881.701.481 0 .762-.28.962-.701a230.146 230.146 0 0 1 1.884-3.868c.12-.24.18-.501.18-.782V39.2c0-2.746.02-5.491.02-8.257 0-.32.08-.4.401-.38.521.02 1.022 0 1.543 0 .902 0 1.283-.482 1.063-1.343-.26-1.083-.521-2.165-.802-3.227-.1-.36-.14-.721-.14-1.102.02-2.084.02-4.169.02-6.233 0-.34.1-.4.42-.4 2.145.02 3.608-1.404 3.688-3.528V.862h-.02zm-8.036 38.117c0 1.343-.02 2.706 0 4.049 0 .42-.06.801-.28 1.182-.241.441-.462.922-.682 1.383-.04.08-.08.16-.1.22-.14.14-.18 0-.22-.08a61.254 61.254 0 0 1-.943-2.004c-.06-.12-.04-.28-.04-.42 0-4.109.02-8.217.02-12.346 0-.36.1-.46.441-.42.481.04.962.04 1.443 0 .32-.02.4.08.4.4-.04 2.686-.04 5.371-.04 8.037zm2.585-10.24c-2.525 0-5.07 0-7.656-.02.18-.742.361-1.423.521-2.105.04-.18.16-.16.301-.16 2.084 0 4.189.02 6.273.02.18 0 .28.06.32.26l.421 1.744c.06.16.08.26-.18.26zM5.892 18.518c0-.24.08-.28.3-.28 1.945.02 3.868.02 5.813.02.24 0 .28.08.28.3-.02 1.944-.02 3.868-.02 5.812 0 .22-.06.3-.28.3a24.19 24.19 0 0 0-1.704 0c-.22 0-.28-.08-.28-.3 0-.501 0-1.002-.04-1.483-.02-.361-.261-.602-.602-.702-.34-.1-.641-.04-.842.14-.3.281-.36.562-.36.862 0 .421-.02.822 0 1.243 0 .2-.06.26-.26.26-.582-.02-1.163-.02-1.744 0-.22 0-.261-.06-.261-.26 0-2.004.02-3.968 0-5.912zm10.502-4.99c-.02.42 0 .861-.02 1.282 0 .441-.181.822-.562 1.203-.3.32-.781.42-1.302.42-3.307 0-6.634 0-9.96-.02-.402 0-.802.02-1.203-.02-.902-.08-1.503-.741-1.523-1.643-.02-.42 0-.842-.02-1.262-.02-.301.08-.381.38-.381 2.005.02 4.009.02 6.013.02 2.605 0 5.21.02 7.816 0 .32 0 .42.1.38.4zm.02-2.566c0 .301-.06.381-.381.381-3.668-.02-7.335-.02-11.023-.04-.962 0-1.944-.02-2.906 0-.24 0-.3-.06-.3-.3.02-2.947.02-5.893.02-8.839 0-.28.08-.32.34-.32.521.02 1.022.02 1.544 0 .36-.02.42.12.4.44a53.18 53.18 0 0 0 0 2.526c0 .621.441 1.042.982 1.002a.87.87 0 0 0 .562-.26c.26-.241.28-.542.28-.862 0-.802.02-1.624 0-2.425 0-.281.06-.401.36-.381a19.8 19.8 0 0 0 1.544 0c.3-.02.38.1.38.38-.02 1.704-.02 3.408-.02 5.131 0 .4.06.762.442 1.002a.895.895 0 0 0 1.342-.561c.04-.18.04-.36.04-.541 0-1.664.02-3.327 0-4.99 0-.28.06-.401.381-.381.521.02 1.062.02 1.584 0 .28-.02.34.08.32.34-.02 1.704-.02 3.408-.02 5.131 0 .4.04.762.42 1.002.542.36 1.223.1 1.384-.541.1-.38.04-.762.04-1.142 0-1.463.02-2.926 0-4.41 0-.28.06-.4.38-.38.522.02 1.063.02 1.584 0 .28-.08.34.02.34.28-.02 2.906-.02 5.832-.02 8.758z" fill="#FFB536"/></svg>