<svg width="53" height="53" fill="none" xmlns="http://www.w3.org/2000/svg"><path d="M21.707 0h.851c.433.149.894.248 1.227.589.227.234.476.312.78.333 1.405.092 2.695.553 3.908 1.262 1.823 1.071 3.178 2.582 4.142 4.447.113.213.177.248.404.114.83-.483 1.646-.419 2.419.149.134.099.27.184.447.191.453.014.893.114 1.312.262 3.205 1.107 4.921 3.454 5.574 6.688.142.717.206 1.447.418 2.15a.55.55 0 0 0 .263.347c.454.283.688.702.695 1.24.007.37-.021.731 0 1.1.021.497-.135.908-.51 1.227-.157.135-.114.227.006.348.185.184.312.41.404.66.277.694.277 1.41.142 2.127-.234 1.212-.666 2.319-1.794 3-.113.07-.149.177-.191.283-.49 1.34-1.135 2.596-1.993 3.738-.12.163-.107.241.064.348.985.624 1.964 1.269 2.943 1.9 1.85 1.199 3.723 2.369 5.553 3.61 1.638 1.114 2.787 2.631 3.46 4.504.27.744.39 1.524.547 2.297v4.327c-.021.042-.05.078-.057.12-.326 1.256-1.283 2-2.574 2.007-1.681 0-3.355 0-5.036.007-.27 0-.617-.12-.78.057-.163.17-.05.518-.056.787-.022 1.419-1.135 2.553-2.547 2.553-4.553.008-9.099 0-13.652 0H14.282c-3.88 0-7.752.008-11.631 0-1.553-.007-2.624-1.085-2.638-2.638-.008-.801-.008-1.61-.008-2.411 0-1.461-.07-2.93.298-4.369.816-3.156 2.624-5.553 5.454-7.177 2.447-1.404 4.887-2.83 7.333-4.234.242-.135.249-.234.107-.454-.887-1.333-1.553-2.78-2.078-4.29a.436.436 0 0 0-.248-.277 2.97 2.97 0 0 1-.95-.73c-1.164-1.363-1.632-2.972-1.547-4.731.05-1.128.39-2.142 1.589-2.631-1.057-.334-1.454-.873-1.447-1.958 0-.425-.007-.85-.007-1.276 0-1 .46-1.603 1.425-1.83.157-.036.213-.092.22-.248.014-.447.05-.894.071-1.348.092-2.73.908-5.22 2.61-7.376 1.787-2.255 4.085-3.645 7-3.893.135-.014.298.014.404-.1.412-.418.915-.652 1.468-.801zM6.814 37.546c-.936.503-1.723 1.078-2.411 1.787-1.504 1.546-2.405 3.383-2.617 5.525-.178 1.787-.043 3.588-.071 5.383-.007.489.376.815.886.822h26.596c4.149 0 8.297 0 12.446-.007.589 0 .922-.347.922-.929 0-1.397.015-2.787 0-4.184-.042-3.029-1.234-5.51-3.588-7.426-.454-.369-.936-.702-1.511-.943v1.68c0 .817.007 1.632 0 2.448-.007 1.397-1.156 2.553-2.553 2.553-2.575.007-5.156 0-7.73 0-5.937 0-11.866.007-17.802 0a2.56 2.56 0 0 1-2.56-2.546c-.007-.461 0-.922 0-1.383-.007-.9-.007-1.809-.007-2.78zm15.276-1.802c1.05.014 2.036-.262 2.965-.73 1.893-.95 3.276-2.447 4.432-4.185a17.283 17.283 0 0 0 2.22-4.73c.107-.376.34-.617.738-.667.234-.028.418-.156.574-.319.298-.312.518-.674.695-1.064.426-.971.617-1.978.412-3.035-.093-.482-.178-.518-.617-.34-.532.22-1.086-.086-1.17-.653a5.882 5.882 0 0 1-.064-.702c-.008-.177-.05-.241-.256-.213a77.1 77.1 0 0 1-5.283.553c-4.66.32-9.298.142-13.93-.468-.765-.099-.808-.113-.843.653-.036.744-.76 1.142-1.355.744-.184-.12-.284-.05-.362.114-.05.106-.085.22-.106.333-.227 1.376.1 2.624.858 3.773.17.256.369.54.688.582.603.07.802.46.972.971.993 3.008 2.518 5.674 5.028 7.681 1.284 1.029 2.73 1.667 4.404 1.702zm-.553-17.638c1.092-.014 2.404-.014 3.716-.064 2.873-.113 5.717-.503 8.56-.886.206-.028.249-.114.242-.298a10.49 10.49 0 0 1 0-1.064c.014-.276-.05-.362-.348-.312-1.156.17-2.312.312-3.475.461-.581.071-1.014-.227-1.07-.723-.065-.532.276-.901.879-.972.688-.085 1.383-.191 2.07-.27.178-.02.249-.07.235-.255a11.381 11.381 0 0 1 0-.886c.028-2.497-.596-4.787-2.1-6.809-1.27-1.709-2.915-2.865-5.028-3.319-.27-.057-.433-.078-.39.305a40 40 0 0 1 .177 2.263c.057.992.192 1.978.185 2.971 0 .433-.298.73-.724.773-.468.05-.844-.198-.915-.638-.07-.468-.099-.936-.134-1.404-.107-1.426-.199-2.851-.305-4.277-.043-.61-.447-1-.993-.986-.54.007-.915.383-.965.986-.078.986-.156 1.979-.22 2.965-.127 1.787-.24 3.581-.369 5.368-.042.589-.41.95-.914.915-.511-.035-.823-.411-.788-1.014.071-1.227.163-2.447.256-3.674.099-1.44.198-2.872.319-4.312.021-.27-.071-.305-.29-.248-.334.085-.668.149-.994.263-2.347.815-3.971 2.446-5.085 4.616-.993 1.937-1.22 4.022-1.149 6.163.007.206.114.22.263.242.9.113 1.801.234 2.702.34.503.064.794.355.808.816.021.617-.432.957-1.134.865-1.355-.177-2.717-.348-4.071-.525-.185-.021-.284-.014-.277.22.014.39.014.78-.007 1.17-.014.22.085.277.284.298.624.07 1.24.149 1.858.234a66.25 66.25 0 0 0 9.191.702zm12.73.73c.986.348 1.398 1.128 1.554 2.072.255 1.531-.078 2.957-.788 4.304-.39.731-.907 1.355-1.673 1.724-.135.064-.178.17-.227.298-.532 1.51-1.206 2.95-2.085 4.29-.142.213-.085.284.106.398 2.426 1.397 4.837 2.822 7.27 4.198 2.553 1.454 4.326 3.54 5.276 6.32.057.17.1.248.312.17.553-.2 1.085.19 1.092.787.007.532.007 1.064 0 1.595 0 .54-.163.78-.673.944-.142.05-.185.099-.178.234.007.376.022.758 0 1.134-.014.27.057.362.348.355 1.822-.014 3.638 0 5.46 0 .667 0 1-.326 1-1 .008-.972.022-1.936 0-2.908-.056-2.56-1.099-4.638-3.162-6.156-.887-.645-1.83-1.212-2.752-1.808-1.993-1.29-3.986-2.575-5.972-3.872-.234-.15-.376-.128-.567.056-.461.447-1 .787-1.553 1.107a.855.855 0 0 1-.816.05c-.305-.136-.482-.37-.503-.71-.022-.39.17-.652.489-.83 1.07-.595 1.915-1.44 2.652-2.411.858-1.149 1.461-2.418 1.894-3.78.113-.362.333-.589.71-.653a.495.495 0 0 0 .325-.198c.596-.78.859-1.646.703-2.624-.022-.15-.078-.263-.227-.334a.86.86 0 0 1-.49-.765c-.007-.249-.1-.277-.319-.249-1.028.128-2.064.263-3.1.32-.545.028-.957-.228-1.013-.703-.071-.539.24-.915.808-.985.163-.022.326-.036.497-.05a54.51 54.51 0 0 0 3.553-.419c.085-.014.22.022.212-.12-.014-.256.15-.575-.255-.71-.198-.07-.298-.262-.369-.453a10.151 10.151 0 0 1-.46-1.632c-.2-1.014-.263-2.063-.688-3.028-1.036-2.369-2.71-3.886-5.405-4.042-.312-.022-.56-.135-.759-.383-.227-.284-.503-.277-.758-.029-.227.22-.27.433-.17.745.418 1.404.531 2.851.489 4.312-.007.22.007.34.298.383.844.135 1.397.83 1.404 1.702.007.461-.007.922 0 1.383 0 1.114-.411 1.674-1.49 1.972zm-12.134 23.71c2.73 0 5.46 0 8.191.007.234 0 .326-.043.326-.305-.007-2.716-.014-5.44.008-8.156 0-.383-.107-.589-.44-.773-.255-.135-.39-.142-.582.092-.993 1.184-2.142 2.206-3.503 2.95-2.958 1.61-5.844 1.405-8.645-.397-1.1-.71-2.043-1.596-2.894-2.588-.064-.078-.114-.192-.241-.185-.277.007-.716.475-.716.766 0 2.752.007 5.504-.008 8.262 0 .291.085.348.355.348 2.71-.021 5.433-.021 8.149-.021zM11.92 34.645c-.134-.028-.205.05-.284.1-.95.553-1.893 1.106-2.85 1.652-.2.113-.277.234-.277.468.014 1.581 0 3.17 0 4.752 0 .581.333.929.915.936.723.007 1.44-.014 2.163.007.277.007.326-.085.326-.34-.007-1.965 0-3.923 0-5.887.007-.567.007-1.128.007-1.688zm20.433-.07v7.659c0 .163-.043.326.234.319.766-.014 1.539.007 2.305-.007.524-.008.858-.383.858-.922 0-1.312-.057-2.624.021-3.937.057-.85-.184-1.354-.979-1.716-.83-.376-1.595-.9-2.44-1.397z" fill="#FFB536"/><path d="M26.006 47.673c0-.297-.014-.588 0-.886.029-.475.39-.83.844-.837a.834.834 0 0 1 .851.823 25.6 25.6 0 0 1 0 1.808c-.014.447-.411.787-.85.78a.831.831 0 0 1-.838-.801c-.014-.29 0-.589-.007-.887z" fill="#FFB536"/><path d="M26.006 47.645c0-.284-.014-.567 0-.851.029-.475.39-.837.837-.844.468-.007.844.347.858.851.014.581.014 1.156 0 1.738a.838.838 0 0 1-.85.822c-.469 0-.823-.34-.845-.83-.007-.297 0-.588 0-.886z" fill="#FFB536"/><path d="M27.706 47.666c0 .284.007.567 0 .851-.022.496-.39.851-.866.844-.468-.007-.815-.355-.83-.837a34.25 34.25 0 0 1 0-1.702c.015-.496.384-.865.845-.865.468 0 .83.354.85.858a10.5 10.5 0 0 1 0 .851z" fill="#FFB536"/><path d="M26.006 47.652c0-.284-.014-.568 0-.851.022-.482.383-.837.83-.844a.846.846 0 0 1 .865.844c.014.581.014 1.156 0 1.737a.837.837 0 0 1-.844.823c-.468 0-.822-.34-.844-.823-.014-.297-.007-.595-.007-.886z" fill="#FFB536"/><path d="M27.703 47.68c0 .298.014.589 0 .887a.84.84 0 0 1-.837.794.827.827 0 0 1-.851-.808 33.762 33.762 0 0 1-.007-1.695c.007-.525.369-.894.844-.901.49-.007.844.362.865.915.007.27 0 .539 0 .815-.007-.007-.007-.007-.014-.007z" fill="#FFB536"/><path d="M27.703 47.694c0 .284.007.568 0 .851a.84.84 0 0 1-.844.816.822.822 0 0 1-.844-.816 35.154 35.154 0 0 1-.007-1.73c.014-.496.383-.858.85-.858.469 0 .823.354.845.858.014.29 0 .582 0 .88z" fill="#FFB536"/><path d="M26.006 47.666c0-.298-.014-.588 0-.886a.857.857 0 0 1 .844-.83c.454 0 .837.34.844.815.014.603.014 1.199 0 1.802-.014.44-.397.787-.837.787a.826.826 0 0 1-.844-.816c-.014-.283-.007-.581-.007-.872z" fill="#FFB536"/><path d="M27.703 47.694c0 .284.007.568 0 .851a.84.84 0 0 1-.844.816.822.822 0 0 1-.844-.816 35.154 35.154 0 0 1-.007-1.73c.014-.496.383-.858.85-.858.469 0 .823.354.852.858.007.29-.007.582-.007.88z" fill="#FFB536"/><path d="M26.01 47.652c0-.298-.015-.589 0-.887a.856.856 0 0 1 .85-.815c.454 0 .823.354.837.83.014.602.014 1.205-.007 1.801-.014.44-.411.78-.851.773a.834.834 0 0 1-.837-.787c-.007-.305.007-.61.007-.915zm24.357-3.383c0 .284.007.567 0 .85a.843.843 0 0 1-.837.838.834.834 0 0 1-.858-.816 29.607 29.607 0 0 1 0-1.773.843.843 0 0 1 .858-.815c.46.007.815.347.837.83.007.297 0 .595 0 .886z" fill="#FFB536"/></svg>