<svg width="63" height="58" fill="none" xmlns="http://www.w3.org/2000/svg"><path d="M55 15.73c-1.908-.013-3.828-.013-5.737-.024-1.449 0-2.909-.012-4.357.011a1.12 1.12 0 0 1-.782-.293 379.38 379.38 0 0 0-4.128-3.436c-.241-.2-.402-.411-.345-.74.058-.316-.092-.398-.39-.386-.69.023-1.38.023-2.07 0-.287-.012-.437.07-.39.386.057.329-.058.446-.403.493-3.22.376-6.439.786-9.658 1.185-.115.012-.241-.024-.345.094.046.187.196.27.31.387 2.783 2.838 5.542 5.689 8.348 8.504 1.195 1.208 1.759 2.627 1.747 4.316a187.924 187.924 0 0 0 0 3.601c0 .293-.069.446-.38.399-.091-.012-.183 0-.275 0-.678 0-.678 0-.77-.692-1.07 1.02-2.311 1.618-3.76 1.618-1.437 0-2.679-.54-3.702-1.583-.15.07-.092.2-.092.293 0 2.686 0 5.372-.012 8.058 0 .317.07.434.403.434 2.276-.011 4.564-.011 6.84 0 .3 0 .392-.093.38-.398-.012-1.948 0-3.906-.023-5.854 0-.398.115-.492.494-.48.897.023.897.011.897.903 0 1.783.012 3.554 0 5.337 0 .387.08.504.472.504 2.437-.023 4.863 0 7.3-.012.31 0 .552.07.759.317.218.258.448.528.713.727.885.657 1.161 1.502 1.08 2.616-.103 1.501-.034 3.026-.023 4.54 0 .351-.091.445-.436.445a12805.94 12805.94 0 0 0-30.111 0c-.368 0-.472-.117-.46-.48.023-.846.023-1.69.011-2.535 0-.258.08-.34.334-.351 1.046-.024 1.046-.036 1.046 1.032 0 .915 0 .915.897.915 8.922 0 17.843 0 26.753.011.449 0 .598-.082.587-.574-.046-1.173-.023-2.346-.012-3.507 0-.305-.103-.505-.287-.74-.61-.809-1.38-1.02-2.368-1.02-7.899.047-15.786.024-23.684.012-.426 0-.782.07-1.035.434-.104.14-.219.258-.356.363-.403.305-.575.704-.495 1.209.046.34-.046.492-.437.48-.943-.023-.908-.011-.954-.95-.035-.598.15-1.032.586-1.419.53-.469.931-1.184 1.54-1.443.599-.258 1.38-.082 2.082-.082 1.897 0 3.794-.011 5.69 0 .346 0 .438-.093.426-.445-.011-3.12-.011-6.24 0-9.36 0-.34-.092-.575-.333-.822-5.37-5.466-10.738-10.943-16.108-16.41-.436-.445-.862-.879-1.195-1.407-.092-.21-.092-.316.138-.434.287-.14.552-.422.85-.434.334-.023.403.446.621.657 1.874 1.9 3.737 3.824 5.611 5.724 4.242 4.328 8.485 8.645 12.716 12.985 1.138 1.173 2.483 1.642 4.047 1.138 2.655-.857 3.621-4.317 1.414-6.546-2.955-2.99-5.887-6.005-8.83-9.008-3.093-3.155-6.197-6.31-9.278-9.477-1.207-1.232-2.587-1.654-4.22-1.08-1.563.54-2.655 2.311-2.437 3.977.046.364-.057.457-.368.516C8 8.164 8 8.175 8 7.05c.011-3.929 4.104-6.486 7.508-4.668.586.317 1.184.258 1.782.305 4.254.305 8.519.586 12.773.868.287.023.448.07.356.399-.011.047-.011.094-.011.14-.058.927-.058.904-.989.845-3.84-.27-7.692-.528-11.532-.798-.046 0-.091 0-.137.012-.023.176.126.235.218.329 2.276 2.334 4.564 4.656 6.84 6.99.185.188.357.247.61.211 3.185-.398 6.37-.797 9.566-1.184.333-.035.471-.117.471-.505a128.497 128.497 0 0 1 0-4.21c0-.329-.057-.47-.414-.481-.966-.035-1.92-.13-2.886-.188-.31-.012-.402-.14-.38-.457.047-.962.035-.974.955-.915 1.242.07 2.472.176 3.714.246.322.012.437.14.39.446-.057.363.093.445.426.434a29.097 29.097 0 0 1 2.023 0c.3.011.437-.07.391-.387-.057-.34.104-.54.357-.74a96.703 96.703 0 0 0 2.058-1.712c.172-.14.264-.176.437.024.724.844.724.832-.115 1.524-.449.376-1.058.68-1.288 1.162-.23.48-.069 1.16-.069 1.76 0 1.383 0 2.779-.011 4.163 0 .258.08.434.276.586a712.57 712.57 0 0 1 3.414 2.84c.161.14.322.21.54.21 2.668 0 5.324-.011 7.991 0 .345 0 .437-.129.39-.434-.08-.434.116-.54.507-.504.287.035.586.012.873.012C55 14.169 55 14.955 55 15.729zM39.49 7.87c0-.41-.011-.809 0-1.22.012-.27-.046-.386-.344-.386-.667.023-1.346.023-2.024 0-.276-.012-.322.105-.322.351.012.821.012 1.654 0 2.487 0 .246.035.364.322.364.264 0 .356-.082.334-.352-.024-.235 0-.47 0-.704 0-1.103 0-1.09 1.103-1.02.219.011.288.093.288.304-.012.481.011.974-.012 1.455-.011.258.092.317.322.305.207-.012.357-.012.345-.293-.023-.423-.012-.857-.012-1.29z" fill="#FFB536"/><path d="M55 11.988c-.333 0-.678-.024-1.012 0-.31.023-.425-.106-.368-.4.08-.457-.103-.597-.54-.55a6.739 6.739 0 0 1-1.288 0c-.322-.024-.448.105-.402.422.08.457-.115.574-.552.563a207.946 207.946 0 0 0-4.68-.012 1.07 1.07 0 0 1-.781-.293 50.137 50.137 0 0 0-1.886-1.572.642.642 0 0 1-.264-.551c.012-1.15.012-2.311 0-3.46 0-.247.08-.4.265-.552.436-.34.896-.668 1.276-1.067.62-.669 1.345-.845 2.219-.798 1.299.059 2.598.024 3.897 0 .356 0 .517.059.506.481-.023.422-.207.997.08 1.255.276.247.817.07 1.242.07.897.012.897 0 .897-.88 0-.95-.012-1.9 0-2.85 0-.257-.07-.351-.334-.351-2.69.011-5.38.011-8.07 0-.322 0-.495.21-.702.387-.184.164-.299.187-.483-.035-.701-.833-.701-.81.127-1.513.23-.2.46-.259.747-.259 3.277.012 6.542 0 9.819 0 .092 0 .184-.011.276-.023v6.932c-1.53 0-3.059-.012-4.588.012-.322 0-.425-.094-.402-.422.023-.329-.012-.657.011-.986.012-.293-.069-.41-.39-.398-.805.023-1.622.046-2.426-.012-.69-.047-1.196.2-1.736.621-.633.493-.817 1.02-.874 1.83-.092 1.255.253 2.147 1.322 2.78.23.14.425.258.701.258.943-.012 1.897-.035 2.84 0 .437.012.62-.105.552-.563-.035-.258 0-.434.345-.422 1.54.023 3.092.012 4.633.023.023.774.023 1.549.023 2.335zm-20.442 13.77c0 1.736-1.391 3.167-3.081 3.143-1.679-.023-3.07-1.43-3.07-3.131 0-1.736 1.391-3.144 3.093-3.144 1.678 0 3.047 1.408 3.058 3.132zm-2.391-.023c0 .422.011.844 0 1.255-.012.316.115.293.322.152.897-.61.908-2.146 0-2.768-.07-.047-.173-.117-.242-.106-.126.035-.08.188-.08.282v1.184zm-1.38-1.502c-1.15.61-1.299 2.158-.345 2.874.08.059.161.164.276.129.092-.024.07-.13.07-.2v-2.803zM16.278 7.108c0 1.736-1.391 3.167-3.081 3.144-1.69-.012-3.058-1.42-3.07-3.132-.011-1.713 1.414-3.155 3.093-3.144a3.107 3.107 0 0 1 3.058 3.132zm-2.587-1.642c-.62-.164-1.207-.059-1.679.434-.47.493-.62 1.079-.413 1.7.701-.703 1.39-1.419 2.092-2.134zm1.15 1.231c-.667.693-1.357 1.396-2.035 2.088.62.141 1.219.012 1.701-.563.403-.48.483-1.032.334-1.524zm5.967 34.051c.529 0 1.069.012 1.598 0 .264-.011.38.059.368.364a107.91 107.91 0 0 0 0 3.366c0 .305-.115.364-.38.364a100.79 100.79 0 0 0-3.253.011c-.322 0-.38-.129-.38-.41.012-1.09.023-2.182 0-3.273 0-.34.115-.422.426-.41.551 0 1.08-.012 1.62-.012zm.011 1.408c-.299.023-.713-.164-.667.469.046.774.012.786.575.774.31 0 .713.164.667-.47-.046-.867.08-.75-.575-.773zm2.611.563c0-.54.01-1.091 0-1.63-.012-.27.08-.353.344-.353a155.5 155.5 0 0 0 3.346 0c.241 0 .322.083.322.329-.012 1.138 0 2.275 0 3.413 0 .258-.092.352-.345.352a155.5 155.5 0 0 0-3.346 0c-.241 0-.322-.082-.31-.328 0-.599-.012-1.185-.012-1.783zm1.92-.563c-.369-.082-.587.023-.553.563.058.739-.103.68.598.692.644 0 .644 0 .644-.587 0-.774.057-.657-.69-.668zm-4.462-31.083c.069.07.15.117.207.187 2.345 2.393 4.69 4.786 7.036 7.167.161.164.195.258.023.446-.736.82-.736.82-1.506.035-2.024-2.065-4.036-4.129-6.06-6.182-.677-.692-.677-.692.024-1.384.08-.093.172-.176.276-.27zm33.169 37.155c.069.07.15.118.207.188 2.345 2.393 3.873 3.722 6.219 6.103.16.164.195.258.023.446-.736.82-.736.82-1.506.035-2.024-2.064-3.219-3.065-5.242-5.118-.678-.692-.678-.692.023-1.384.08-.093.172-.176.276-.27zm-45.114 0c-.07.07-.15.118-.207.188-2.346 2.393-3.874 3.722-6.22 6.103-.16.164-.195.258-.022.446.735.82.735.82 1.506.035 2.023-2.064 3.218-3.065 5.242-5.118.678-.692.678-.692-.023-1.384-.08-.093-.173-.176-.276-.27zm17.326-40.78c-1.162 0-2.323-.012-3.484 0-.299 0-.391-.082-.391-.399 0-1.032-.011-1.032 1.012-1.032 2.092 0 4.185.012 6.289 0 .356 0 .471.106.46.47-.023.95 0 .95-.943.95-.989.011-1.966.011-2.943.011zm9.565 34.966c-.977 0-1.954-.012-2.932.011-.31 0-.379-.093-.379-.398 0-1.02-.012-1.02.966-1.02 1.759 0 3.518.011 5.277-.012.368 0 .471.093.46.469-.023.95 0 .95-.943.95a85.43 85.43 0 0 1-2.449 0c0 .011 0 0 0 0zM23.406 19.576c.035.024.092.06.127.094l2.816 2.874c.058.059.161.14.08.235-.275.293-.551.586-.838.856-.08.082-.161-.047-.219-.106-.92-.938-1.84-1.876-2.748-2.815a.715.715 0 0 1-.138-.187c-.034-.07.805-.95.92-.95zm25.55 30.117c.038.016.102.038.143.065l3.356 2.22c.069.045.187.104.128.212-.208.345-.416.69-.64 1.013-.062.097-.168-.012-.237-.057a620.795 620.795 0 0 1-3.276-2.177.717.717 0 0 1-.175-.154c-.048-.062.588-1.098.7-1.122zm-34.912 0c-.039.016-.102.038-.143.065l-3.357 2.22c-.068.045-.187.104-.128.212.209.345.417.69.641 1.013.062.097.168-.012.236-.057 1.096-.725 2.192-1.45 3.277-2.177a.716.716 0 0 0 .174-.154c.049-.062-.588-1.098-.7-1.122zm28.643-39.676c.092.07.15.117.207.164.85.704 1.701 1.42 2.552 2.123.196.153.23.258.069.481-.644.856-.644.868-1.46.176a140.751 140.751 0 0 0-2.024-1.677c-.184-.141-.23-.258-.057-.446.184-.2.345-.434.529-.645.057-.059.126-.117.184-.176zm-1.012 34.801c-.506 0-1.012-.011-1.518 0-.299.012-.425-.058-.425-.41 0-1.009-.012-1.009.977-1.009.805 0 1.621.012 2.426-.012.322-.011.46.059.46.434 0 .986.011.986-.954.986-.322.011-.644.011-.966.011z" fill="#FFB536"/><path d="M46.917 3.214h-1.046c-.115 0-.287.035-.299-.117a13.035 13.035 0 0 1 0-1.162c.012-.14.161-.117.265-.117h2.242c.103 0 .253-.012.253.13a9.76 9.76 0 0 1 0 1.16c-.012.153-.196.118-.31.118-.369-.012-.737-.012-1.105-.012zM32.431 6.733c0 .715 0 .703-.942.715-.794.012-.391-.586-.426-.903-.046-.575-.15-.48.874-.54.655-.023.471.388.494.728zm2.299.011c0 .704 0 .704-.712.704-.667 0-.667 0-.667-.797 0-.692-.115-.61.759-.61.724 0 .61-.082.62.703zm6.082 35.67c-.69 0-.69 0-.69-.763 0-.645 0-.645.794-.645.586 0 .586 0 .586.821-.011.692.08.575-.69.587zm1.598-.704c0-.704 0-.704.748-.704.632 0 .632 0 .632.821 0 .587 0 .599-.816.587-.655 0-.552.105-.563-.704zm8.244-39.165c-.011.763.092.669-.701.669-.782 0-.678.117-.678-.727 0-.798-.092-.669.781-.669.69-.012.587-.07.598.727zm1.621-.739c.368-.011.724-.117.69.516-.046.892-.012.868-.863.915-.448.024-.563-.129-.551-.574.057-.997-.08-.833.724-.857zm-23.017 35.81c-.793-.011-.667.083-.667-.75 0-.751-.103-.669.76-.657.735 0 .62-.106.62.786-.012.704.08.61-.713.621zm2.345-1.419c.76.012.656-.094.656.762 0 .751.092.646-.76.646-.723 0-.608.07-.608-.81-.012-.68-.07-.586.712-.598zm2.277 1.42c-.817-.012-.69.082-.69-.775 0-.727-.08-.633.736-.633.735 0 .632-.117.643.821 0 .587 0 .587-.69.587zm-13.682-27.26c-.046.164-.16.246-.252.34-.679.704-.679.704-1.369-.011-.207-.212-.253-.34-.011-.587.724-.727.713-.739 1.437.035.069.07.138.153.195.223zm33.169 37.156c-.045.164-.16.246-.252.34-.679.704-.679.704-1.369-.012-.207-.21-.253-.34-.011-.586.724-.727.713-.739 1.437.035.069.07.138.153.195.223zm-43.734 0c.046.164.16.246.252.34.679.704.679.704 1.369-.012.207-.21.253-.34.011-.586-.724-.727-.713-.739-1.437.035-.069.07-.138.153-.195.223zM17.68 9.665c-.172-.023-.241-.152-.333-.246-.69-.68-.678-.669-.023-1.373.253-.27.39-.27.632 0 .656.704.667.692-.023 1.373-.08.082-.172.164-.253.246zm33.17 37.156c-.173-.023-.242-.152-.334-.246-.69-.68-.678-.669-.023-1.373.253-.27.39-.27.632 0 .656.704.667.692-.023 1.373-.08.082-.172.164-.253.246zm-38.7 0c.173-.023.242-.152.334-.246.69-.68.678-.669.023-1.373-.253-.27-.39-.27-.632 0-.656.704-.667.692.023 1.373.08.082.172.164.253.246z" fill="#FFB536"/><path d="M48.5 48.5V40L62 53.5V57h-6.5L42 48.5h6.5zm-34 0V40L1 53.5V57h6.5L21 48.5h-6.5z" stroke="#FFB536" stroke-width="1.2"/></svg>