<svg width="42" height="42" fill="none" xmlns="http://www.w3.org/2000/svg"><path d="M36.438 6.411c.013 1.454-.13 2.883-.52 4.285a13.726 13.726 0 0 1-12.892 10.036c-1.896.04-3.804-.013-5.713.026-4.596.104-8.738 3.765-9.465 8.31-.065.428.039.584.429.753 2.622 1.116 4.025 3.92 3.388 6.712-.636 2.805-3.116 4.7-6.011 4.61-2.766-.091-5.155-2.22-5.583-4.986-.416-2.688 1.026-5.246 3.57-6.323.416-.169.572-.377.624-.831.74-6.064 6.063-11.205 12.152-11.763 2.117-.195 4.233-.078 6.35-.091 5.128-.052 9.205-3.454 10.088-8.518.143-.83.169-1.662.117-2.674-.727.662-1.364 1.22-1.961 1.817-1.065 1.065-2.83.13-2.986-1.012-.091-.623.117-1.13.545-1.52 1.688-1.61 3.389-3.22 5.103-4.79A1.784 1.784 0 0 1 36.1.504a389.805 389.805 0 0 1 4.635 4.635c.506.52.337 2.064-.273 2.674-.636.637-1.766.637-2.48 0-.26-.233-.493-.48-.74-.727-.22-.233-.428-.493-.636-.727a.423.423 0 0 0-.169.052zM8.393 35.248c0-1.26-1.103-2.376-2.35-2.363-1.233.013-2.31 1.104-2.31 2.337 0 1.272 1.09 2.337 2.362 2.324 1.299-.013 2.298-1.013 2.298-2.298zm24.28-5.103c0 .624-.195 1.13-.675 1.546-.507.428-.974.921-1.48 1.363-.26.22-.273.376 0 .61.57.493 1.116 1.026 1.661 1.545.792.74.87 1.948.182 2.675-.623.662-1.87.597-2.623-.143a74.01 74.01 0 0 1-1.74-1.753c-.233-.247-.376-.247-.623 0a47.222 47.222 0 0 1-2.038 1.909c-1.039.909-2.636.441-2.882-.831-.143-.688.194-1.273.662-1.74a41.442 41.442 0 0 1 1.753-1.636c.285-.26.272-.415-.013-.65-.624-.544-1.169-1.168-1.818-1.661-.844-.636-.753-1.883-.208-2.48.597-.662 1.83-.688 2.532-.039.65.61 1.272 1.233 1.883 1.883.233.246.376.233.61 0a51.577 51.577 0 0 1 1.882-1.883c.598-.558 1.325-.597 2.052-.286.688.273.87.883.883 1.571zM16.106 12.319c-.325-.013-.753-.195-1.13-.572-.571-.584-1.168-1.155-1.74-1.752-.246-.26-.415-.273-.675-.013a39.979 39.979 0 0 1-2.038 1.895c-.61.533-1.338.585-2.052.234-.662-.325-.87-.922-.857-1.623.013-.454.221-.818.572-1.117.649-.57 1.259-1.181 1.908-1.752.26-.234.247-.377 0-.598-.61-.545-1.168-1.168-1.817-1.661-.896-.676-.767-1.91-.26-2.48.623-.714 1.818-.753 2.57-.065.61.571 1.221 1.168 1.78 1.791.324.364.519.286.804-.026a38.878 38.878 0 0 1 1.792-1.791 1.765 1.765 0 0 1 2.052-.26c.649.338 1.012.857.986 1.61-.013.454-.22.831-.545 1.13-.584.545-1.143 1.116-1.766 1.623-.428.35-.35.558.026.87.61.519 1.182 1.077 1.766 1.622.558.52.727 1.234.428 1.948-.26.65-.843 1-1.804.987z" fill="#FFB536"/></svg>