<svg width="51" height="41" fill="none" xmlns="http://www.w3.org/2000/svg"><path d="M15.57 22.997C15.545 14.77 21.42 7.565 29.483 5.93c.342-.072.691-.125 1.034-.184.105-.02.204-.04.25.125.237.836.856 1.251 1.66 1.41.718.138 1.422.072 2.061-.337.363-.23.646-.54.738-.968.046-.217.138-.25.336-.224 3.84.606 7.173 2.253 9.88 5.046 3.622 3.74 5.361 8.253 4.933 13.45-.547 6.652-3.893 11.558-9.88 14.483-7.778 3.8-17.118 1.185-21.96-5.987a17.48 17.48 0 0 1-2.963-9.748zM33.02 9.106a13.897 13.897 0 0 0-13.905 13.917c0 7.687 6.231 13.878 13.977 13.878 7.634 0 13.819-6.25 13.819-13.964 0-7.614-6.258-13.838-13.891-13.831zM6.646 23.721c-1.791 0-3.576.007-5.368 0a1.277 1.277 0 0 1-1.265-1.08c-.092-.606.297-1.212.91-1.39a1.72 1.72 0 0 1 .454-.052h10.637c.758 0 1.33.546 1.344 1.251.013.718-.573 1.278-1.344 1.278-1.785-.007-3.576-.007-5.368-.007zm2.003 6.435H4.137c-.784 0-1.357-.546-1.35-1.27.006-.725.553-1.252 1.324-1.252 3.016-.007 6.033-.014 9.05-.007.79 0 1.35.547 1.343 1.271-.006.731-.566 1.258-1.357 1.258-.757.007-1.515 0-2.272 0-.731.007-1.475.007-2.226 0zm-.02-12.836c-1.515 0-3.03.006-4.545 0-.586 0-1.027-.31-1.218-.837a1.262 1.262 0 0 1 .355-1.377c.244-.21.527-.303.85-.31 3.036 0 6.08-.006 9.116 0 .784 0 1.337.56 1.324 1.291-.007.705-.58 1.239-1.344 1.239-1.508-.007-3.023-.007-4.538-.007zm4.123-6.245H8.965c-.79 0-1.364-.527-1.377-1.245-.013-.737.56-1.277 1.377-1.277 2.568-.007 5.137-.007 7.706 0 .724 0 1.271.566 1.265 1.277-.007.698-.547 1.239-1.265 1.245-1.31.007-2.615 0-3.92 0zm-.02 25.273H8.978c-.81 0-1.397-.527-1.39-1.258.007-.738.573-1.272 1.383-1.272 2.536 0 5.072 0 7.6.007.785 0 1.345.514 1.351 1.225.007.758-.54 1.298-1.35 1.304-1.271 0-2.556-.006-3.84-.006zM33.13 3.04h-2.89c-.738 0-1.14-.402-1.146-1.133 0-.297-.007-.593.006-.89.027-.579.422-1 1.008-1.007 2.029-.013 4.058-.013 6.086 0 .56.006.962.421.995.988.02.336.013.678.006 1.02-.02.613-.44 1.022-1.06 1.022H33.13z" fill="#FFB536"/><path d="M33.032 3.54c.375 0 .744.007 1.12 0 .184-.006.256.073.256.25-.006.613 0 1.226-.013 1.838-.013.389-.224.665-.58.804-.506.204-1.027.197-1.54.026-.402-.138-.626-.448-.64-.87-.02-.592-.006-1.185-.013-1.771-.006-.218.093-.283.297-.283.369.013.744.006 1.113.006zm.494 13.186c0 1.463.006 2.918-.007 4.38 0 .284.06.435.35.56.836.363 1.224 1.239.968 2.101a1.781 1.781 0 0 1-1.897 1.259c-.857-.1-1.515-.797-1.568-1.687-.046-.724.382-1.416 1.107-1.706.23-.092.283-.21.283-.434-.007-2.977 0-5.948 0-8.925 0-.119-.08-.303.072-.356a.974.974 0 0 1 .613 0c.125.046.066.191.066.297.006 1.501.006 3.003.013 4.511-.007 0-.007 0 0 0z" fill="#FFB536"/><path d="M35.897 21.739c-.099.006-.112-.073-.138-.125-.211-.455-.514-.81-.995-1.002-.23-.092-.053-.184.02-.256.698-.699 1.396-1.397 2.094-2.088.033-.033.06-.066.093-.093.224-.204.415-.606.665-.586.237.02.454.369.665.593.184.198.534.356.507.6-.026.203-.33.381-.514.566-.737.738-1.468 1.475-2.206 2.213-.066.066-.132.118-.191.178z" fill="#FFB536"/></svg>