<svg width="46" height="48" fill="none" xmlns="http://www.w3.org/2000/svg"><path d="M32.02 0c1.989 2.99 3.984 5.973 6.035 9.046-3.614-.762-7.139-1.495-10.753-2.257l2.867-1.392a19.23 19.23 0 0 0-3.745-1.063C15.911 2.47 5.81 8.97 3.176 19.298c-1.94 7.605.706 15.718 6.796 20.656 4.465 3.62 9.594 5.102 15.3 4.437a20.14 20.14 0 0 0 17.55-16.836c.815-5.143-.186-9.93-3.005-14.32-.253-.39-.425-.788-.28-1.254.157-.521.52-.83 1.055-.906.535-.075.96.145 1.262.59a23.187 23.187 0 0 1 1.776 3.203c5.782 12.66-1.234 27.699-14.648 31.402-10.636 2.935-21.767-2.03-26.629-11.885-5.377-10.89-1.248-24.208 9.416-30.037C18.079.885 24.662.535 31.396 3.134c.295.117.357.062.363-.233.014-.48.062-.96.096-1.433.035-.48.062-.96.097-1.434.027-.013.048-.027.068-.034z" fill="#FFB536"/><path d="M22.2 17.343c0 1.372.007 2.744-.007 4.115 0 .24.062.323.309.309.35-.02.706.007 1.063-.014.233-.014.288.082.28.295a20.65 20.65 0 0 0 0 1.269c.008.233-.054.329-.301.315-.364-.02-.734.007-1.097-.007-.2-.007-.254.069-.254.26.007.618-.007 1.235.007 1.852 0 .206-.055.282-.268.275-.493-.014-.98-.02-1.474 0-.24.007-.288-.082-.281-.295.007-.597-.007-1.186.007-1.783.006-.24-.069-.316-.309-.309-1.111.014-2.215 0-3.326.014-.254 0-.363-.062-.322-.322v-.035c-.172-1.172.26-2.208.713-3.25.987-2.256 1.934-4.533 2.887-6.803.09-.206.178-.302.418-.295.549.02 1.098.014 1.646 0 .24-.007.309.069.309.309-.007 1.357 0 2.729 0 4.1zm-2.064-.28c-.014.006-.041.013-.048.027-.625 1.481-1.248 2.962-1.88 4.437-.082.199-.027.233.158.233.5-.007 1.002-.014 1.502 0 .24.007.309-.069.309-.302-.007-1.412-.007-2.825-.007-4.245.007-.055.02-.116-.034-.15zm-7.112 8.935c-.892 0-1.783-.007-2.675.007-.22 0-.301-.055-.288-.288.035-.775-.055-1.557.103-2.325.254-1.214.995-2.133 1.804-3.017.541-.59 1.09-1.173 1.508-1.859a4.45 4.45 0 0 0 .631-2.86c-.082-.768-.514-1.097-1.261-.987-.453.069-.714.343-.803.85-.082.501-.041 1.002-.034 1.51 0 .232-.062.321-.302.314-.466-.02-.94-.006-1.406-.006-.144 0-.24-.02-.233-.2.02-.658-.041-1.323.076-1.981.28-1.64 1.584-2.558 3.367-2.366 1.646.178 2.544 1.145 2.668 2.805.13 1.755-.494 3.244-1.591 4.567-.583.7-1.207 1.372-1.79 2.078-.37.446-.652.933-.693 1.536-.014.26.055.357.336.357 1.083-.014 2.167.007 3.25-.007.247 0 .323.069.316.309-.014.432-.014.87 0 1.303.007.212-.075.267-.274.267-.905-.014-1.804-.007-2.71-.007zm17.899 9.814c.26-.981.514-1.927.768-2.874.713-2.654 1.42-5.308 2.146-7.962.083-.295.035-.363-.274-.356-1.131.013-2.263-.007-3.388.006-.288.007-.35-.11-.336-.363a24.66 24.66 0 0 0 0-1.234c-.006-.192.035-.288.261-.288 1.886.006 3.772.006 5.65 0 .234 0 .24.102.255.288.102 1.152-.186 2.235-.487 3.332-.837 3.039-1.64 6.083-2.449 9.122-.068.26-.164.342-.438.336-.556-.028-1.111-.007-1.708-.007zM17.29 36.964c-.158-.117-.35-.22-.48-.37-.096-.117.075-.22.144-.316 2.784-3.936 5.575-7.86 8.36-11.795 2.804-3.957 5.609-7.921 8.4-11.892.172-.24.281-.206.467-.055.17.137.35.192.144.48-2.085 2.915-4.15 5.85-6.227 8.771-3.525 4.972-7.05 9.951-10.575 14.923-.055.096-.096.213-.233.254z" fill="#FFB536"/></svg>