<svg width="42" height="42" viewBox="0 0 42 42" fill="none" xmlns="http://www.w3.org/2000/svg">
<path d="M36.4382 6.41116C36.4512 7.86533 36.3084 9.29354 35.9189 10.6958C34.2959 16.5125 29.0635 20.5894 23.026 20.7322C21.1304 20.7711 19.2218 20.7192 17.3132 20.7582C12.717 20.862 8.57516 24.5234 7.84807 29.0677C7.78315 29.4962 7.88702 29.652 8.27653 29.8208C10.8992 30.9374 12.3015 33.7419 11.6653 36.5334C11.0291 39.3379 8.54919 41.2335 5.65382 41.1426C2.88829 41.0517 0.499286 38.9224 0.0708232 36.1568C-0.344656 33.4692 1.09654 30.9114 3.64134 29.8338C4.05682 29.665 4.21263 29.4572 4.26456 29.0028C5.00463 22.9394 10.328 17.7979 16.4173 17.2396C18.5337 17.0448 20.65 17.1617 22.7664 17.1487C27.8949 17.0968 31.9718 13.695 32.8547 8.63137C32.9975 7.80041 33.0235 6.96946 32.9716 5.95673C32.2445 6.6189 31.6083 7.1772 31.011 7.77445C29.9463 8.83911 28.1806 7.90428 28.0248 6.76172C27.9339 6.1385 28.1416 5.63213 28.5701 5.24262C30.258 3.63264 31.9588 2.02266 33.6727 0.451631C34.3608 -0.171587 35.4255 -0.14562 36.1006 0.503566C37.6587 2.03564 39.2037 3.58071 40.7358 5.13875C41.2422 5.6581 41.0734 7.20316 40.4632 7.8134C39.827 8.4496 38.6974 8.4496 37.9833 7.8134C37.7236 7.57969 37.4899 7.333 37.2432 7.08631C37.0225 6.8526 36.8147 6.59293 36.607 6.35922C36.5551 6.35922 36.4901 6.38519 36.4382 6.41116ZM8.39338 35.248C8.39338 33.9886 7.28977 32.872 6.04333 32.8849C4.80988 32.8979 3.73223 33.9886 3.73223 35.222C3.73223 36.4944 4.82286 37.5591 6.09527 37.5461C7.39364 37.5331 8.39338 36.5334 8.39338 35.248Z" fill="#FFB536"/>
<path d="M32.6728 30.1454C32.6728 30.7687 32.478 31.275 31.9976 31.6905C31.4913 32.119 31.0238 32.6123 30.5175 33.0538C30.2578 33.2745 30.2448 33.4303 30.5175 33.664C31.0888 34.1574 31.6341 34.6897 32.1794 35.2091C32.9714 35.9492 33.0493 37.1566 32.3612 37.8837C31.7379 38.5459 30.4915 38.481 29.7384 37.7409C29.1542 37.1696 28.5699 36.5854 27.9986 35.9881C27.7649 35.7414 27.6221 35.7414 27.3754 35.9881C26.7132 36.6373 26.0381 37.2865 25.337 37.8967C24.2983 38.8056 22.7013 38.3382 22.4546 37.0658C22.3118 36.3776 22.6493 35.7934 23.1168 35.3259C23.688 34.7547 24.2723 34.2223 24.8696 33.69C25.1552 33.4303 25.1422 33.2745 24.8566 33.0408C24.2334 32.4955 23.688 31.8723 23.0389 31.3789C22.1949 30.7427 22.2858 29.4963 22.8311 28.899C23.4284 28.2368 24.6618 28.2109 25.3629 28.86C26.0121 29.4703 26.6353 30.0935 27.2456 30.7427C27.4793 30.9894 27.6221 30.9764 27.8558 30.7427C28.466 30.1065 29.0893 29.4703 29.7384 28.86C30.3357 28.3017 31.0628 28.2628 31.7899 28.5744C32.478 28.8471 32.6598 29.4573 32.6728 30.1454Z" fill="#FFB536"/>
<path d="M16.1057 12.3188C15.7811 12.3058 15.3526 12.124 14.9761 11.7475C14.4048 11.1632 13.8076 10.592 13.2363 9.9947C12.9896 9.73503 12.8208 9.72205 12.5611 9.98172C11.899 10.6309 11.2238 11.2801 10.5227 11.8773C9.91245 12.4097 9.18537 12.4616 8.47126 12.111C7.80909 11.7865 7.60135 11.1892 7.61434 10.4881C7.62732 10.0337 7.83506 9.67011 8.18562 9.37149C8.83481 8.8002 9.44504 8.18997 10.0942 7.61868C10.3539 7.38498 10.3409 7.24216 10.0942 7.02143C9.48399 6.47612 8.92569 5.8529 8.27651 5.35952C7.38063 4.68436 7.51047 3.45091 8.01683 2.87963C8.64005 2.16552 9.83455 2.12657 10.5876 2.81471C11.1978 3.38599 11.8081 3.98324 12.3664 4.60646C12.691 4.97001 12.8857 4.8921 13.1714 4.5805C13.7427 3.97026 14.3399 3.37301 14.9631 2.78874C15.5084 2.26939 16.3394 2.16552 17.0145 2.52907C17.6637 2.86664 18.0273 3.38599 18.0013 4.13905C17.9883 4.59348 17.7806 4.97001 17.456 5.26863C16.8717 5.81395 16.3134 6.38523 15.6902 6.8916C15.2617 7.24216 15.3396 7.4499 15.7162 7.76151C16.3264 8.28085 16.8977 8.83915 17.482 9.38447C18.0403 9.90382 18.209 10.6179 17.9104 11.332C17.6507 11.9812 17.0665 12.3318 16.1057 12.3188Z" fill="#FFB536"/>
</svg>
