<svg width="46" height="48" viewBox="0 0 46 48" fill="none" xmlns="http://www.w3.org/2000/svg">
<path d="M32.0201 0C34.0089 2.99003 36.0045 5.97319 38.055 9.04551C34.441 8.28429 30.916 7.5505 27.3019 6.78928C28.3032 6.30237 29.2084 5.86347 30.1685 5.39713C28.9135 4.89651 27.6791 4.56048 26.4241 4.33417C15.911 2.46883 5.8094 8.97008 3.17598 19.298C1.23521 26.9034 3.88234 35.0162 9.97212 39.9539C14.4366 43.5748 19.5663 45.0561 25.272 44.3909C34.2284 43.3485 41.4085 36.4564 42.8213 27.5549C43.6373 22.4115 42.6361 17.6247 39.8175 13.2357C39.5638 12.8448 39.3923 12.447 39.5363 11.9807C39.6941 11.4595 40.0575 11.1509 40.5924 11.0754C41.1274 11 41.5526 11.2195 41.8543 11.6652C42.5332 12.687 43.123 13.7569 43.6305 14.8678C49.4117 27.5274 42.3961 42.5667 28.9821 46.27C18.3456 49.2051 7.21526 44.24 2.35304 34.3853C-3.02352 23.495 1.10491 10.1771 11.7689 4.34788C18.0781 0.884664 24.6616 0.534913 31.3961 3.13404C31.691 3.25062 31.7527 3.19576 31.7595 2.90087C31.7732 2.42082 31.8213 1.94077 31.8555 1.46758C31.8898 0.987531 31.9173 0.507482 31.9516 0.0342893C31.979 0.0205736 31.9996 0.00685786 32.0201 0Z" fill="#FFB536"/>
<path d="M22.1998 17.3435C22.1998 18.7151 22.2067 20.0866 22.193 21.4582C22.193 21.6982 22.2547 21.7805 22.5016 21.7668C22.8513 21.7462 23.2079 21.7737 23.5645 21.7531C23.7977 21.7394 23.8526 21.8354 23.8457 22.048C23.832 22.4732 23.832 22.8915 23.8457 23.3167C23.8526 23.5499 23.7909 23.6459 23.544 23.6322C23.1805 23.6116 22.8102 23.639 22.4467 23.6253C22.2478 23.6184 22.193 23.6939 22.193 23.8859C22.1998 24.5031 22.1861 25.1203 22.1998 25.7375C22.1998 25.9432 22.145 26.0187 21.9324 26.0118C21.4386 25.9981 20.9517 25.9913 20.4579 26.0118C20.2179 26.0187 20.1699 25.9295 20.1768 25.7169C20.1836 25.1203 20.1699 24.5305 20.1836 23.9339C20.1905 23.6939 20.115 23.6184 19.875 23.6253C18.764 23.639 17.6599 23.6253 16.549 23.639C16.2952 23.639 16.1855 23.5773 16.2266 23.3167C16.2266 23.303 16.2266 23.2961 16.2266 23.2824C16.0552 22.1097 16.4872 21.0742 16.9398 20.0318C17.9274 17.7755 18.8738 15.4987 19.827 13.2288C19.9162 13.023 20.0053 12.927 20.2453 12.9339C20.794 12.9545 21.3426 12.9476 21.8912 12.9339C22.1312 12.927 22.1998 13.0025 22.1998 13.2425C22.193 14.6004 22.1998 15.9719 22.1998 17.3435ZM20.1356 17.0623C20.1219 17.0692 20.0945 17.076 20.0876 17.0898C19.4635 18.5711 18.8395 20.0524 18.2086 21.5268C18.1263 21.7257 18.1811 21.76 18.3663 21.76C18.8669 21.7531 19.3675 21.7462 19.8682 21.76C20.1082 21.7668 20.1768 21.6914 20.1768 21.4582C20.1699 20.0455 20.1699 18.6328 20.1699 17.2132C20.1768 17.1583 20.1905 17.0966 20.1356 17.0623Z" fill="#FFB536"/>
<path d="M13.0239 25.9982C12.1323 25.9982 11.2408 25.9913 10.3493 26.005C10.1298 26.005 10.0476 25.9501 10.0613 25.717C10.0956 24.942 10.0064 24.1602 10.1641 23.3922C10.4179 22.1783 11.1585 21.2594 11.9678 20.3747C12.5095 19.7849 13.0582 19.202 13.4765 18.5162C14.0114 17.6384 14.2171 16.6783 14.1074 15.6565C14.0251 14.8884 13.5931 14.5592 12.8456 14.669C12.3929 14.7376 12.1323 15.0119 12.0432 15.5193C11.9609 16.02 12.002 16.5206 12.0089 17.0281C12.0089 17.2612 11.9472 17.3504 11.7072 17.3435C11.2408 17.323 10.7676 17.3367 10.3013 17.3367C10.1573 17.3367 10.0613 17.3161 10.0681 17.1378C10.0887 16.4794 10.027 15.8142 10.1436 15.1559C10.4247 13.5169 11.7277 12.5979 13.5108 12.7899C15.1567 12.9682 16.055 13.9352 16.1785 15.5948C16.3088 17.3504 15.6847 18.8386 14.5875 20.1621C14.0045 20.8616 13.3805 21.5337 12.7976 22.24C12.4272 22.6858 12.1461 23.1727 12.1049 23.7762C12.0912 24.0368 12.1598 24.1328 12.4409 24.1328C13.5245 24.1191 14.608 24.1397 15.6916 24.126C15.9385 24.126 16.0139 24.1945 16.007 24.4346C15.9933 24.8666 15.9933 25.3055 16.007 25.7376C16.0139 25.9501 15.9316 26.005 15.7327 26.005C14.8275 25.9913 13.9291 25.9982 13.0239 25.9982Z" fill="#FFB536"/>
<path d="M30.923 35.8117C31.1836 34.831 31.4373 33.8846 31.691 32.9382C32.4043 30.2842 33.1106 27.6303 33.8375 24.9763C33.9198 24.6814 33.8718 24.6128 33.5632 24.6197C32.4317 24.6334 31.3001 24.6128 30.1755 24.6265C29.8874 24.6334 29.8257 24.5168 29.8394 24.263C29.8531 23.8516 29.8463 23.4401 29.8394 23.0286C29.8326 22.8366 29.8737 22.7406 30.1 22.7406C31.9859 22.7475 33.8718 22.7475 35.7509 22.7406C35.9841 22.7406 35.9909 22.8435 36.0046 23.0286C36.1075 24.1807 35.8195 25.2643 35.5177 26.3615C34.6811 29.3996 33.8787 32.4445 33.0695 35.4825C33.0009 35.7431 32.9049 35.8254 32.6306 35.8185C32.0751 35.7911 31.5196 35.8117 30.923 35.8117Z" fill="#FFB536"/>
<path d="M17.2896 36.9638C17.1319 36.8472 16.9398 36.7444 16.8095 36.5935C16.7135 36.4769 16.885 36.374 16.9536 36.278C19.7378 32.3416 22.529 28.4189 25.3133 24.4825C28.1181 20.5255 30.923 16.5617 33.7142 12.591C33.8856 12.351 33.9953 12.3853 34.1805 12.5361C34.3519 12.6733 34.5302 12.7281 34.3245 13.0162C32.2397 15.9308 30.1755 18.8659 28.0976 21.7874C24.5726 26.7593 21.0477 31.7381 17.5228 36.7101C17.4679 36.8061 17.4267 36.9227 17.2896 36.9638Z" fill="#FFB536"/>
</svg>
