<svg width="55" height="49" viewBox="0 0 55 49" fill="none" xmlns="http://www.w3.org/2000/svg">
<path d="M54.7719 32.7066C54.7519 32.5864 54.7318 32.4661 54.7318 32.3459C54.7318 27.9569 54.7318 17.2952 54.7318 12.9062C54.7318 12.5254 54.6517 12.2048 54.3911 11.9042C53.4893 10.8019 53.5093 10.8019 52.4071 11.7438C52.1265 11.9843 52.1465 12.1246 52.367 12.3852C52.6075 12.6657 52.868 12.8862 52.868 13.3271C52.848 16.9344 52.848 26.8346 52.868 30.442C52.868 30.8027 52.7478 30.903 52.4071 30.8829C51.1645 30.8629 49.902 30.8829 48.6594 30.8829C47.4971 30.8829 47.477 30.8829 47.4971 29.6805C47.4971 29.1193 47.2566 28.3778 47.5973 28.0171C47.938 27.6363 48.6795 27.8768 49.2406 27.9169C49.7817 27.9369 49.8819 27.7365 49.8619 27.2555C49.8418 25.5119 49.7817 17.4755 49.8619 15.732C49.922 14.5696 49.6815 13.5876 48.8198 12.7659C48.2987 12.2649 47.8578 11.6436 47.4169 11.0625C47.2165 10.822 47.0161 10.7017 46.6954 10.7017C45.1723 10.7218 43.6692 10.7218 42.1461 10.7017C41.8255 10.7017 41.6251 10.8019 41.4247 11.0424C40.7433 11.8841 40.0619 12.7459 39.3605 13.5676C39.0799 13.8882 38.9797 14.1888 38.9797 14.6097C38.9997 16.694 38.9997 25.0911 38.9596 27.1753C38.9396 27.7565 39.0999 28.0171 39.7012 27.9169C40.122 27.8367 40.2823 28.0171 40.2623 28.458C40.2222 29.0391 40.2222 29.6003 40.2623 30.1815C40.3224 30.7827 40.1421 31.0232 39.5408 30.9029C39.16 30.8428 38.9797 30.9831 39.0198 31.404C39.0598 31.8449 39.0198 32.3058 39.0198 32.7467C40.0418 32.7467 41.0639 32.7467 42.086 32.7467C42.086 30.6825 42.086 28.6183 42.1061 26.534C42.1061 26.0731 41.8856 26.013 41.5449 26.0731C40.9437 26.1733 40.7834 25.9128 40.8034 25.3316C40.8435 24.069 40.8234 16.4935 40.8034 15.231C40.8034 14.8502 40.9637 14.5897 41.1441 14.289C41.9658 12.8661 43.1482 12.4052 44.7915 12.5254C45.8337 12.6056 46.5351 12.8461 47.1964 13.6878C47.7376 14.4093 48.0782 15.0907 48.0181 16.0126C47.938 17.0948 47.978 24.4698 47.9981 25.5721C48.0181 25.9929 47.8578 26.1132 47.477 26.0931C47.0562 26.0731 46.6153 26.1132 46.1944 26.0931C45.7735 26.0531 45.6333 26.1933 45.6333 26.6342C45.6533 28.6784 45.6533 30.7226 45.6533 32.7868C48.7196 32.7066 51.7457 32.7066 54.7719 32.7066Z" fill="#FFB536"/>
<path d="M36.5549 30.8629C36.154 30.9431 35.9737 30.8028 35.9937 30.3418C36.0138 26.7746 36.0138 16.9144 35.9937 13.3472C35.9937 13.0666 36.0939 12.8461 36.2743 12.6257C37.5168 11.1026 38.7794 9.57946 40.0019 8.05635C40.2223 7.79582 40.4428 7.67558 40.7835 7.69562C42.6072 7.71566 44.4309 7.69562 46.2546 7.69562C47.0362 7.69562 47.918 7.49521 48.5594 7.79582C49.2007 8.09644 49.6015 8.91811 50.0825 9.51934C51.0043 10.6416 50.9843 10.6416 52.0865 9.65963C52.3471 9.43918 52.307 9.29889 52.1066 9.07844C51.345 8.15656 50.5835 7.25472 49.862 6.3128C49.6015 5.9721 49.3209 5.77169 48.88 5.85185C48.4591 5.93202 48.3589 5.73161 48.379 5.33079C48.399 4.42895 48.4191 3.52711 48.379 2.62527C48.3589 2.18437 48.4792 1.96392 48.9401 2.04408C49.3409 2.12425 49.5013 1.96392 49.5213 1.52302C49.5414 1.06208 49.5814 0.601138 49.6015 0.140198H47.5773C47.4771 0.18028 47.3369 0.20032 47.1765 0.20032C45.3328 0.20032 43.489 0.20032 41.6452 0.220361C41.4849 0.220361 41.3647 0.20032 41.2645 0.160239H39.2003C39.2604 0.601139 39.3005 1.06208 39.3606 1.50298C39.4207 1.96392 39.581 2.12425 40.0019 2.04408C40.4227 1.98396 40.523 2.16433 40.5029 2.56515C40.4829 3.48703 40.4829 4.40891 40.5029 5.33079C40.523 5.73161 40.4027 5.91198 40.0019 5.85185C39.561 5.77169 39.3005 5.99214 39.0199 6.3128C37.5369 8.15656 36.0338 10.0003 34.5107 11.824C34.2501 12.1447 34.1299 12.4654 34.1299 12.8662C34.1499 14.8101 34.1499 23.0469 34.1299 24.9909C34.1299 27.5562 34.1099 30.1214 34.1099 32.6666C35.1319 32.6666 36.154 32.6666 37.1761 32.6666C37.1761 32.2658 37.1561 31.885 37.1962 31.4842C37.2763 31.0232 37.136 30.7627 36.5549 30.8629ZM42.8277 2.06412C43.9099 2.08417 44.9921 2.08417 46.0743 2.06412C46.3949 2.06412 46.5553 2.12425 46.5352 2.50502C46.5152 3.40686 46.5152 4.3087 46.5352 5.21055C46.5553 5.61136 46.3949 5.69153 46.0342 5.67149C45.4931 5.65145 44.972 5.67149 44.4309 5.67149C43.8497 5.67149 43.2886 5.65145 42.7074 5.67149C42.3467 5.69153 42.3266 5.49112 42.3266 5.21055C42.3266 4.90993 42.3868 4.76965 42.7275 4.76965C43.3688 4.78969 43.99 4.76965 44.6313 4.78969C44.9119 4.78969 45.0121 4.70952 45.0322 4.40891C45.1324 2.94592 45.1324 2.94592 43.6894 2.92588C43.3888 2.92588 43.0681 2.90584 42.7675 2.92588C42.4268 2.94592 42.3266 2.82568 42.3066 2.48498C42.3467 2.10421 42.507 2.06412 42.8277 2.06412Z" fill="#FFB536"/>
<path d="M18.2172 0.861759C18.137 0.300614 17.7763 0.0400818 17.1149 0.0400818C11.8041 0.0200409 6.49325 0 1.18241 0C0.340695 0 0.0200409 0.340695 0.0200409 1.16237C0.0200409 2.36483 0 3.58732 0.0200409 4.78977C0.0200409 4.8499 0.0200409 4.88998 0 4.93006V15.0708C0.0200409 15.211 0.0400818 15.3714 0.0801636 15.5117C0.501022 17.2352 1.82372 18.2372 3.68753 18.2372C3.98814 18.2372 4.10838 18.2773 4.08834 18.618C4.0683 20.7022 4.0683 22.7865 4.0683 24.8507C4.0683 25.2315 4.02822 25.6123 3.92802 25.993C3.64744 27.0552 3.38691 28.1174 3.12638 29.1796C2.90593 30.0814 3.26667 30.5423 4.20859 30.5423C4.66953 30.5423 5.11043 30.5423 5.57137 30.5423C6.11247 30.5423 6.11247 30.5423 6.11247 31.0634C6.09243 35.1918 6.09243 39.3202 6.07239 43.4487C6.07239 43.7693 6.09243 44.09 6.25276 44.4106C6.87403 45.6933 7.4953 46.9959 8.11656 48.2986C8.29693 48.6793 8.53742 48.98 8.99836 49C9.47935 49 9.75992 48.7194 9.96033 48.2986C10.5816 46.9959 11.2029 45.7133 11.8442 44.4307C11.9644 44.1902 12.0245 43.9297 12.0245 43.6491C12.0245 42.1661 12.0245 40.683 12.0245 39.2C12.0245 36.4544 12.0446 33.7088 12.0446 30.9431C12.0446 30.6225 12.1247 30.5423 12.4454 30.5624C12.9665 30.5824 13.4675 30.5624 13.9885 30.5624C14.8904 30.5624 15.2712 30.0814 15.0507 29.2196C14.7902 28.1374 14.5297 27.0552 14.2491 25.993C14.1489 25.6323 14.1088 25.2716 14.1088 24.8908C14.1288 22.8065 14.1288 20.7223 14.1288 18.6581C14.1288 18.3174 14.229 18.2573 14.5497 18.2573C16.6941 18.2773 18.1571 16.8544 18.2372 14.7301C18.2372 14.6098 18.2372 14.4695 18.2372 14.3493V13.9084C18.2372 13.7681 18.2372 13.6479 18.2372 13.5076C18.2372 13.4474 18.2372 13.3873 18.2372 13.3472V0.861759H18.2172ZM10.1808 38.9795C10.1808 40.3223 10.1607 41.6851 10.1808 43.0278C10.1808 43.4487 10.1207 43.8294 9.9002 44.2102C9.65971 44.6511 9.43926 45.1321 9.21881 45.593C9.17873 45.6732 9.13865 45.7534 9.11861 45.8135C8.97832 45.9538 8.93824 45.8135 8.89816 45.7333C8.57751 45.072 8.25685 44.4106 7.95624 43.7292C7.89611 43.609 7.91616 43.4487 7.91616 43.3084C7.91616 39.2 7.9362 35.0916 7.9362 30.9632C7.9362 30.6025 8.0364 30.5022 8.3771 30.5423C8.85808 30.5824 9.33906 30.5824 9.82004 30.5423C10.1407 30.5223 10.2209 30.6225 10.2209 30.9431C10.1808 33.6286 10.1808 36.3141 10.1808 38.9795ZM12.7661 28.7386C10.2409 28.7386 7.69571 28.7387 5.11043 28.7186C5.2908 27.9771 5.47117 27.2957 5.63149 26.6143C5.67157 26.4339 5.79182 26.454 5.93211 26.454C8.01636 26.454 10.1207 26.474 12.2049 26.474C12.3853 26.474 12.4855 26.5341 12.5256 26.7346C12.6658 27.3157 12.8061 27.8969 12.9464 28.4781C13.0065 28.6384 13.0266 28.7386 12.7661 28.7386ZM5.89202 18.5178C5.89202 18.2773 5.97219 18.2372 6.19264 18.2372C8.13661 18.2573 10.0605 18.2573 12.0045 18.2573C12.245 18.2573 12.2851 18.3374 12.2851 18.5579C12.265 20.5018 12.265 22.4258 12.265 24.3697C12.265 24.5902 12.2049 24.6703 11.9845 24.6703C11.4233 24.6503 10.8421 24.6503 10.281 24.6703C10.0605 24.6703 10.0004 24.5902 10.0004 24.3697C10.0004 23.8687 10.0004 23.3677 9.96033 22.8867C9.94029 22.526 9.6998 22.2855 9.3591 22.1853C9.0184 22.0851 8.71779 22.1452 8.51738 22.3256C8.21677 22.6061 8.15665 22.8867 8.15665 23.1873C8.15665 23.6082 8.13661 24.009 8.15665 24.4299C8.15665 24.6303 8.09652 24.6904 7.89611 24.6904C7.31493 24.6703 6.73374 24.6703 6.15256 24.6904C5.93211 24.6904 5.89202 24.6303 5.89202 24.4299C5.89202 22.4258 5.91207 20.4618 5.89202 18.5178ZM16.3935 13.5276C16.3734 13.9485 16.3935 14.3894 16.3734 14.8102C16.3734 15.2511 16.193 15.6319 15.8123 16.0127C15.5117 16.3333 15.0307 16.4335 14.5096 16.4335C11.2029 16.4335 7.87607 16.4335 4.54928 16.4135C4.14847 16.4135 3.74765 16.4335 3.34683 16.3935C2.44499 16.3133 1.84376 15.6519 1.82372 14.7501C1.80368 14.3292 1.82372 13.9084 1.80368 13.4875C1.78364 13.1869 1.88384 13.1067 2.18446 13.1067C4.18855 13.1268 6.19264 13.1268 8.19673 13.1268C10.802 13.1268 13.4074 13.1468 16.0127 13.1268C16.3333 13.1268 16.4335 13.227 16.3935 13.5276ZM16.4135 10.9624C16.4135 11.263 16.3534 11.3431 16.0327 11.3431C12.3652 11.3231 8.69775 11.3231 5.01022 11.3031C4.04826 11.3031 3.06626 11.283 2.10429 11.3031C1.8638 11.3031 1.80368 11.2429 1.80368 11.0025C1.82372 8.05644 1.82372 5.11043 1.82372 2.16442C1.82372 1.88384 1.90389 1.84376 2.16442 1.84376C2.68548 1.8638 3.1865 1.8638 3.70757 1.84376C4.0683 1.82372 4.12843 1.96401 4.10838 2.28466C4.08834 3.12638 4.08834 3.9681 4.10838 4.80982C4.10838 5.43108 4.54928 5.85194 5.09039 5.81186C5.31084 5.79182 5.49121 5.71166 5.65153 5.55133C5.91207 5.31084 5.93211 5.01022 5.93211 4.68957C5.93211 3.88793 5.95215 3.06626 5.93211 2.26462C5.93211 1.98405 5.99223 1.8638 6.29284 1.88384C6.79386 1.90389 7.31493 1.90389 7.83599 1.88384C8.13661 1.8638 8.21677 1.98405 8.21677 2.26462C8.19673 3.9681 8.19673 5.67157 8.19673 7.39509C8.19673 7.79591 8.25685 8.15665 8.63763 8.39714C9.15869 8.71779 9.84008 8.43722 9.98037 7.83599C10.0204 7.65562 10.0204 7.47526 10.0204 7.29489C10.0204 5.63149 10.0405 3.9681 10.0204 2.3047C10.0204 2.02413 10.0806 1.90389 10.4012 1.92393C10.9223 1.94397 11.4634 1.94397 11.9845 1.92393C12.265 1.90389 12.3252 2.00409 12.3051 2.26462C12.2851 3.9681 12.2851 5.67157 12.2851 7.39509C12.2851 7.79591 12.3252 8.15665 12.7059 8.39714C13.247 8.75787 13.9284 8.49734 14.0888 7.85603C14.189 7.47526 14.1288 7.09448 14.1288 6.7137C14.1288 5.25072 14.1489 3.78773 14.1288 2.3047C14.1288 2.02413 14.189 1.90389 14.5096 1.92393C15.0307 1.94397 15.5718 1.94397 16.0928 1.92393C16.3734 1.84376 16.4335 1.94397 16.4335 2.2045C16.4135 5.11043 16.4135 8.0364 16.4135 10.9624Z" fill="#FFB536"/>
</svg>
