<svg width="53" height="53" viewBox="0 0 53 53" fill="none" xmlns="http://www.w3.org/2000/svg">
<path d="M21.7074 0C21.991 0 22.2747 0 22.5584 0C22.991 0.148934 23.452 0.248224 23.7853 0.588646C24.0123 0.822686 24.2605 0.900699 24.5655 0.921975C25.9697 1.01417 27.2605 1.47516 28.4732 2.18437C30.2959 3.25528 31.6505 4.7659 32.615 6.63113C32.7285 6.84389 32.7923 6.87935 33.0193 6.7446C33.8491 6.26234 34.6647 6.32617 35.4377 6.89354C35.5725 6.99283 35.7072 7.07793 35.8845 7.08503C36.3384 7.09921 36.7781 7.1985 37.1965 7.34743C40.4022 8.4538 42.1185 10.8013 42.771 14.0353C42.9128 14.7516 42.9766 15.4821 43.1894 16.1842C43.239 16.3473 43.31 16.4466 43.4518 16.5317C43.9057 16.8154 44.1397 17.2338 44.1468 17.7728C44.1539 18.1416 44.1255 18.5033 44.1468 18.8721C44.1681 19.3686 44.0121 19.7799 43.6362 20.0991C43.4802 20.2338 43.5227 20.326 43.6433 20.4466C43.8277 20.631 43.9553 20.8579 44.0475 21.1061C44.3241 21.8012 44.3241 22.5175 44.1894 23.2338C43.9553 24.4465 43.5227 25.5529 42.3951 26.2337C42.2816 26.3047 42.2461 26.411 42.2036 26.5174C41.7142 27.8578 41.0688 29.1131 40.2107 30.255C40.0901 30.4181 40.1043 30.4961 40.2745 30.6025C41.2603 31.2266 42.239 31.872 43.2178 32.5032C45.0688 33.7017 46.9411 34.8719 48.7709 36.1131C50.4092 37.2265 51.5581 38.7442 52.2318 40.6166C52.5013 41.3612 52.6219 42.1414 52.7779 42.9144C52.7779 44.3541 52.7779 45.8009 52.7779 47.2406C52.7567 47.2831 52.7283 47.3186 52.7212 47.3612C52.395 48.6165 51.4375 49.3611 50.1468 49.3682C48.4659 49.3682 46.7922 49.3682 45.1113 49.3753C44.8418 49.3753 44.4943 49.2548 44.3312 49.4321C44.1681 49.6023 44.2816 49.9498 44.2745 50.2193C44.2532 51.6377 43.1397 52.7724 41.7284 52.7724C37.1753 52.7795 32.6292 52.7724 28.0761 52.7724C23.4804 52.7724 18.8847 52.7724 14.2819 52.7724C10.4025 52.7724 6.53022 52.7795 2.65083 52.7724C1.09766 52.7654 0.0267487 51.6874 0.0125644 50.1342C0.00547231 49.3328 0.00547231 48.5243 0.00547231 47.7229C0.00547231 46.2619 -0.0654489 44.7938 0.303341 43.3541C1.11893 40.1981 2.92742 37.801 5.75718 36.1769C8.20396 34.7727 10.6437 33.3471 13.0904 31.9429C13.3316 31.8081 13.3387 31.7089 13.1968 31.489C12.3103 30.1557 11.6436 28.7089 11.1188 27.1983C11.0692 27.0635 11.0053 26.9855 10.8706 26.9217C10.5089 26.7444 10.1898 26.5032 9.92025 26.1912C8.75715 24.8295 8.28907 23.2196 8.37417 21.4608C8.42382 20.3331 8.76424 19.3189 9.96281 18.8296C8.90608 18.4962 8.50892 17.9572 8.51602 16.8721C8.51602 16.4466 8.50892 16.0211 8.50892 15.5956C8.50892 14.5956 8.96991 13.9928 9.93444 13.7658C10.0905 13.7303 10.1472 13.6736 10.1543 13.5176C10.1685 13.0708 10.2039 12.624 10.2252 12.1701C10.3174 9.43961 11.133 6.95028 12.8351 4.79427C14.6223 2.53898 16.9202 1.14892 19.835 0.900699C19.9698 0.886515 20.1329 0.914883 20.2393 0.801409C20.6506 0.382974 21.1542 0.148934 21.7074 0ZM6.81391 37.5457C5.87775 38.0492 5.09052 38.6237 4.40259 39.3329C2.89906 40.879 1.99836 42.7158 1.78559 44.8576C1.60829 46.6449 1.74304 48.4463 1.71467 50.2406C1.70758 50.7299 2.09056 51.0562 2.60119 51.0633C7.57986 51.0633 12.5514 51.0633 17.5301 51.0633C21.4166 51.0633 25.3102 51.0633 29.1966 51.0633C33.3455 51.0633 37.4944 51.0633 41.6433 51.0562C42.2319 51.0562 42.5653 50.7086 42.5653 50.1271C42.5653 48.7299 42.5795 47.3399 42.5653 45.9427C42.5227 42.9144 41.3312 40.4322 38.9767 38.5173C38.5228 38.1485 38.0405 37.8152 37.466 37.574C37.466 38.1698 37.466 38.7159 37.466 39.2549C37.466 40.0705 37.4731 40.8861 37.466 41.7017C37.459 43.0988 36.31 44.2548 34.9129 44.2548C32.3384 44.2619 29.7569 44.2548 27.1825 44.2548C21.2464 44.2548 15.3174 44.2619 9.38125 44.2548C7.96992 44.2548 6.83518 43.1201 6.821 41.7087C6.81391 41.2478 6.821 40.7868 6.821 40.3258C6.81391 39.4251 6.81391 38.5173 6.81391 37.5457ZM22.0903 35.7443C23.14 35.7585 24.1258 35.4819 25.0548 35.0138C26.9484 34.0634 28.3314 32.567 29.4874 30.8294C30.459 29.3685 31.2108 27.794 31.7072 26.099C31.8136 25.7231 32.0477 25.482 32.4448 25.4323C32.6789 25.404 32.8633 25.2763 33.0193 25.1132C33.3172 24.8011 33.537 24.4394 33.7143 24.0494C34.1398 23.0778 34.3313 22.0707 34.1257 21.0139C34.0335 20.5317 33.9484 20.4962 33.5086 20.6735C32.9767 20.8934 32.4235 20.5884 32.3384 20.021C32.303 19.787 32.2817 19.553 32.2746 19.3189C32.2675 19.1416 32.225 19.0778 32.0193 19.1062C30.2675 19.3473 28.5087 19.5388 26.7357 19.6594C22.0761 19.9785 17.4379 19.8012 12.8067 19.1913C12.0408 19.092 11.9982 19.0778 11.9628 19.8437C11.9273 20.5884 11.2039 20.9856 10.6082 20.5884C10.4238 20.4679 10.3245 20.5388 10.2465 20.7019C10.1968 20.8083 10.1614 20.9217 10.1401 21.0352C9.91316 22.4111 10.2394 23.6593 10.9983 24.8082C11.1685 25.0635 11.367 25.3472 11.6862 25.3898C12.289 25.4607 12.4876 25.8508 12.6578 26.3614C13.6507 29.3685 15.1755 32.0351 17.6861 34.0422C18.9698 35.0705 20.4166 35.7088 22.0903 35.7443ZM21.5371 18.1062C22.6293 18.092 23.9414 18.092 25.2534 18.0423C28.1257 17.9289 30.9697 17.5388 33.8136 17.1558C34.0193 17.1275 34.0618 17.0424 34.0547 16.858C34.0406 16.5034 34.0335 16.1488 34.0547 15.7941C34.0689 15.5176 34.0051 15.4324 33.7072 15.4821C32.5512 15.6523 31.3952 15.7941 30.2321 15.9431C29.6505 16.014 29.2179 15.7161 29.1612 15.2197C29.0973 14.6878 29.4378 14.319 30.0406 14.2481C30.7285 14.163 31.4236 14.0566 32.1115 13.9786C32.2888 13.9573 32.3597 13.9076 32.3455 13.7232C32.3314 13.4254 32.3384 13.1346 32.3455 12.8367C32.3739 10.3403 31.7498 8.04955 30.2463 6.0283C28.9768 4.3191 27.3314 3.16308 25.218 2.70919C24.9485 2.65245 24.7853 2.63118 24.8279 3.01415C24.913 3.76591 24.9626 4.51768 25.0052 5.27654C25.0619 6.26943 25.1967 7.25524 25.1896 8.24813C25.1896 8.68075 24.8917 8.97862 24.4662 9.02117C23.9981 9.07082 23.6222 8.82259 23.5513 8.38288C23.4804 7.9148 23.452 7.44672 23.4166 6.97864C23.3102 5.55313 23.218 4.12761 23.1116 2.7021C23.069 2.09217 22.6648 1.70211 22.1187 1.71629C21.5797 1.72338 21.2038 2.09927 21.1542 2.7021C21.0762 3.6879 20.9981 4.6808 20.9343 5.6666C20.8067 7.45382 20.6932 9.24812 20.5655 11.0353C20.523 11.624 20.1542 11.9857 19.6506 11.9502C19.14 11.9148 18.828 11.5389 18.8634 10.936C18.9343 9.70911 19.0265 8.48927 19.1187 7.26233C19.218 5.82263 19.3173 4.39002 19.4379 2.95032C19.4592 2.68082 19.367 2.64536 19.1471 2.7021C18.8138 2.7872 18.4804 2.85103 18.1542 2.96451C15.8067 3.7801 14.1826 5.41129 13.0692 7.58147C12.0763 9.51762 11.8493 11.6027 11.9202 13.7445C11.9273 13.9502 12.0337 13.9644 12.1826 13.9857C13.0833 14.0991 13.984 14.2197 14.8847 14.3261C15.3883 14.3899 15.6791 14.6807 15.6932 15.1417C15.7145 15.7587 15.2606 16.0991 14.5585 16.0069C13.2039 15.8296 11.8422 15.6594 10.4876 15.4821C10.3032 15.4608 10.2039 15.4679 10.211 15.7019C10.2252 16.092 10.2252 16.4821 10.2039 16.8721C10.1898 17.092 10.289 17.1487 10.4876 17.17C11.1117 17.2409 11.7287 17.319 12.3458 17.4041C15.3315 17.8438 18.3173 18.0778 21.5371 18.1062ZM34.2675 18.8367C35.2533 19.1842 35.6646 19.9643 35.8207 20.9076C36.076 22.4395 35.7427 23.865 35.0334 25.2125C34.6434 25.943 34.1257 26.5671 33.3597 26.9359C33.225 26.9997 33.1824 27.1061 33.1328 27.2337C32.6009 28.7444 31.9271 30.1841 31.0477 31.5245C30.9058 31.7372 30.9626 31.8082 31.1541 31.9216C33.5796 33.3188 35.9909 34.7443 38.4235 36.1202C40.9766 37.574 42.7497 39.6591 43.7 42.4392C43.7568 42.6094 43.7993 42.6875 44.0121 42.6094C44.5653 42.4109 45.0972 42.8009 45.1043 43.3967C45.1114 43.9286 45.1114 44.4605 45.1043 44.9924C45.1043 45.5314 44.9411 45.7725 44.4305 45.9356C44.2887 45.9853 44.2461 46.0349 44.2532 46.1697C44.2603 46.5456 44.2745 46.9285 44.2532 47.3044C44.239 47.5739 44.3099 47.6661 44.6007 47.659C46.4234 47.6449 48.239 47.659 50.0616 47.659C50.7283 47.659 51.0616 47.3328 51.0616 46.659C51.0687 45.6874 51.0829 44.7229 51.0616 43.7513C51.0049 41.191 49.9624 39.113 47.8986 37.5953C47.012 36.9499 46.0688 36.3826 45.1468 35.7868C43.1539 34.4961 41.161 33.2124 39.1752 31.9145C38.9412 31.7656 38.7994 31.7869 38.6079 31.9713C38.1469 32.4181 37.6079 32.7585 37.0547 33.0776C36.7923 33.2337 36.5157 33.2479 36.2391 33.1273C35.9341 32.9925 35.7568 32.7585 35.7356 32.4181C35.7143 32.028 35.9058 31.7656 36.2249 31.5883C37.2958 30.9926 38.1398 30.1486 38.8774 29.177C39.7355 28.0281 40.3384 26.7586 40.771 25.3969C40.8844 25.0352 41.1043 24.8082 41.4802 24.7444C41.622 24.7231 41.7213 24.6522 41.8064 24.5458C42.4022 23.7657 42.6646 22.9004 42.5085 21.9217C42.4873 21.7728 42.4305 21.6593 42.2816 21.5884C41.9695 21.4324 41.8064 21.1558 41.7922 20.8225C41.7851 20.5742 41.6929 20.5459 41.4731 20.5742C40.4447 20.7019 39.4093 20.8366 38.3738 20.8934C37.8277 20.9217 37.4164 20.6664 37.3597 20.1913C37.2887 19.6523 37.6008 19.2764 38.1682 19.2055C38.3313 19.1842 38.4944 19.17 38.6646 19.1558C39.8561 19.0636 41.0334 18.9076 42.2178 18.7374C42.3029 18.7232 42.4376 18.7587 42.4305 18.6168C42.4163 18.3615 42.5795 18.0423 42.1752 17.9076C41.9766 17.8367 41.8773 17.6452 41.8064 17.4537C41.6078 16.9218 41.4518 16.3757 41.3454 15.8225C41.1469 14.8083 41.083 13.7587 40.6575 12.7942C39.622 10.4254 37.9483 8.9077 35.2533 8.75167C34.9413 8.7304 34.693 8.61692 34.4944 8.3687C34.2675 8.08501 33.9909 8.09211 33.7356 8.34033C33.5086 8.56019 33.4661 8.77295 33.5654 9.085C33.9838 10.4892 34.0973 11.936 34.0547 13.397C34.0476 13.6169 34.0618 13.7374 34.3526 13.78C35.1966 13.9147 35.7498 14.6098 35.7568 15.4821C35.7639 15.9431 35.7498 16.4041 35.7568 16.8651C35.7568 17.9785 35.3455 18.5388 34.2675 18.8367ZM22.1329 42.5456C24.8633 42.5456 27.5938 42.5456 30.3243 42.5527C30.5583 42.5527 30.6505 42.5102 30.6505 42.2477C30.6434 39.5315 30.6363 36.8081 30.6576 34.0918C30.6576 33.7088 30.5512 33.5032 30.2179 33.3188C29.9626 33.184 29.8278 33.1769 29.6363 33.411C28.6434 34.5954 27.4945 35.6166 26.1328 36.3613C23.1754 37.9712 20.2889 37.7655 17.4875 35.9641C16.3883 35.2549 15.445 34.3684 14.594 33.3755C14.5301 33.2975 14.4805 33.184 14.3528 33.1911C14.0762 33.1982 13.6365 33.6663 13.6365 33.9571C13.6365 36.7088 13.6436 39.4605 13.6294 42.2194C13.6294 42.5102 13.7145 42.5669 13.984 42.5669C16.6932 42.5456 19.4166 42.5456 22.1329 42.5456ZM11.9202 34.645C11.7855 34.6166 11.7146 34.6946 11.6365 34.7443C10.6862 35.2975 9.74295 35.8507 8.78552 36.3968C8.58694 36.5102 8.50892 36.6308 8.50892 36.8648C8.52311 38.4464 8.50892 40.035 8.50892 41.6166C8.50892 42.1981 8.84225 42.5456 9.42381 42.5527C10.1472 42.5598 10.8635 42.5385 11.5869 42.5598C11.8635 42.5669 11.9131 42.4747 11.9131 42.2194C11.906 40.2549 11.9131 38.2974 11.9131 36.3329C11.9202 35.7656 11.9202 35.2053 11.9202 34.645ZM32.3526 34.5741C32.3526 34.9216 32.3526 35.1911 32.3526 35.4606C32.3526 37.7159 32.3526 39.9712 32.3526 42.2336C32.3526 42.3967 32.3101 42.5598 32.5867 42.5527C33.3526 42.5385 34.1257 42.5598 34.8916 42.5456C35.4164 42.5385 35.7498 42.1626 35.7498 41.6236C35.7498 40.3116 35.693 38.9996 35.771 37.6875C35.8278 36.8365 35.5866 36.3329 34.7923 35.9712C33.9625 35.5953 33.1966 35.0705 32.3526 34.5741Z" fill="#FFB536"/>
<path d="M26.0063 47.6733C26.0063 47.3755 25.9921 47.0847 26.0063 46.7868C26.0347 46.3116 26.3964 45.957 26.8503 45.9499C27.3042 45.9428 27.6871 46.2904 27.7013 46.7726C27.7226 47.3754 27.7226 47.9783 27.7013 48.5811C27.6871 49.0279 27.29 49.3683 26.8503 49.3612C26.3964 49.3542 26.0418 49.0279 26.0134 48.5598C25.9992 48.2691 26.0134 47.9712 26.0063 47.6733Z" fill="#FFB536"/>
<path d="M26.0063 47.6449C26.0063 47.3613 25.9921 47.0776 26.0063 46.7939C26.0347 46.3187 26.3964 45.957 26.8432 45.9499C27.3113 45.9428 27.6871 46.2974 27.7013 46.801C27.7155 47.3825 27.7155 47.957 27.7013 48.5386C27.6871 49.0137 27.3113 49.3612 26.8503 49.3612C26.3822 49.3612 26.0276 49.0208 26.0063 48.5315C25.9992 48.2336 26.0063 47.9428 26.0063 47.6449Z" fill="#FFB536"/>
<path d="M27.7057 47.666C27.7057 47.9497 27.7127 48.2334 27.7057 48.517C27.6844 49.0135 27.3156 49.3681 26.8404 49.361C26.3723 49.3539 26.0248 49.0064 26.0106 48.5241C25.9965 47.9568 25.9965 47.3894 26.0106 46.822C26.0248 46.3256 26.3936 45.9568 26.8546 45.9568C27.3227 45.9568 27.6844 46.3114 27.7057 46.8149C27.7198 47.0986 27.7127 47.3823 27.7057 47.666Z" fill="#FFB536"/>
<path d="M26.0063 47.6519C26.0063 47.3682 25.9921 47.0845 26.0063 46.8009C26.0276 46.3186 26.3893 45.964 26.8361 45.9569C27.3042 45.9498 27.6871 46.3044 27.7013 46.8009C27.7155 47.3824 27.7155 47.9569 27.7013 48.5384C27.6871 49.0136 27.3113 49.3611 26.8574 49.3611C26.3893 49.3611 26.0347 49.0207 26.0134 48.5384C25.9992 48.2406 26.0063 47.9427 26.0063 47.6519Z" fill="#FFB536"/>
<path d="M27.7027 47.6803C27.7027 47.9781 27.7169 48.2689 27.7027 48.5668C27.6815 49.0136 27.3127 49.354 26.8659 49.3611C26.4049 49.3682 26.029 49.0207 26.0148 48.5526C26.0006 47.9852 25.9935 47.4179 26.0077 46.8576C26.0148 46.3328 26.3765 45.964 26.8517 45.9569C27.3411 45.9498 27.6957 46.3186 27.7169 46.8718C27.724 47.1413 27.7169 47.4108 27.7169 47.6874C27.7098 47.6803 27.7098 47.6803 27.7027 47.6803Z" fill="#FFB536"/>
<path d="M27.7027 47.6944C27.7027 47.978 27.7098 48.2617 27.7027 48.5454C27.6815 49.0135 27.3127 49.361 26.8588 49.361C26.3907 49.361 26.029 49.0206 26.0148 48.5454C26.0006 47.9709 25.9935 47.3894 26.0077 46.8149C26.0219 46.3185 26.3907 45.9568 26.8588 45.9568C27.3269 45.9568 27.6815 46.3114 27.7027 46.8149C27.7169 47.1057 27.7027 47.3965 27.7027 47.6944Z" fill="#FFB536"/>
<path d="M26.0063 47.6661C26.0063 47.3682 25.9921 47.0775 26.0063 46.7796C26.0276 46.3115 26.3964 45.9569 26.8503 45.9498C27.3042 45.9498 27.6871 46.2903 27.6942 46.7654C27.7084 47.3683 27.7084 47.964 27.6942 48.5668C27.68 49.0065 27.2971 49.354 26.8574 49.354C26.3964 49.354 26.0276 49.0136 26.0134 48.5385C25.9992 48.2548 26.0063 47.9569 26.0063 47.6661Z" fill="#FFB536"/>
<path d="M27.7027 47.6944C27.7027 47.978 27.7098 48.2617 27.7027 48.5454C27.6815 49.0135 27.3127 49.361 26.8588 49.361C26.3907 49.361 26.029 49.0206 26.0148 48.5454C26.0006 47.9709 25.9935 47.3894 26.0077 46.8149C26.0219 46.3185 26.3907 45.9568 26.8588 45.9568C27.3269 45.9568 27.6815 46.3114 27.7098 46.8149C27.7169 47.1057 27.7027 47.3965 27.7027 47.6944Z" fill="#FFB536"/>
<path d="M26.0091 47.6519C26.0091 47.3541 25.9949 47.0633 26.0091 46.7654C26.0374 46.2973 26.4133 45.9498 26.8601 45.9498C27.314 45.9498 27.6828 46.3044 27.697 46.7796C27.7112 47.3824 27.7112 47.9853 27.6899 48.581C27.6757 49.0207 27.2786 49.3611 26.8389 49.354C26.3921 49.347 26.0233 49.0136 26.002 48.5668C25.9949 48.2619 26.0091 47.9569 26.0091 47.6519Z" fill="#FFB536"/>
<path d="M50.3666 44.2689C50.3666 44.5526 50.3737 44.8363 50.3666 45.1199C50.3525 45.5951 49.9908 45.9497 49.5298 45.9568C49.0688 45.9639 48.6858 45.6164 48.6716 45.1412C48.6504 44.5526 48.6574 43.9568 48.6716 43.3682C48.6858 42.9001 49.0759 42.5455 49.5298 42.5526C49.9908 42.5597 50.3454 42.9001 50.3666 43.3824C50.3737 43.6802 50.3666 43.9781 50.3666 44.2689Z" fill="#FFB536"/>
</svg>
