<svg width="44" height="43" viewBox="0 0 44 43" fill="none" xmlns="http://www.w3.org/2000/svg">
<path d="M0 11.7193C0.0821447 11.1333 0.131431 10.5474 0.268339 9.96689C0.585965 8.58686 1.02407 7.24516 1.70861 5.99656C1.80171 5.8268 1.76337 5.75013 1.63194 5.6406C1.16645 5.24631 0.706444 4.84106 0.25191 4.43581C0.0930973 4.29343 0.14786 4.0908 0.180718 3.92104C0.219052 3.73484 0.372389 3.6527 0.56406 3.61984C1.43479 3.46103 2.31648 3.37341 3.19817 3.32412C4.15652 3.26936 5.11488 3.27483 6.07323 3.31317C6.41824 3.32412 6.61538 3.50484 6.63181 3.84985C6.73586 5.6406 6.68658 7.42588 6.34705 9.18925C6.25395 9.67117 5.90894 9.78617 5.53108 9.47402C5.12583 9.13449 4.7151 8.79496 4.32629 8.44447C4.17843 8.31304 4.09628 8.32947 3.98128 8.47185C3.43365 9.16187 3.13793 9.95593 2.95721 10.8048C2.85863 11.2593 2.83673 11.7248 2.81482 12.1903C2.80935 12.2943 2.83673 12.3984 2.69982 12.4641C2.59577 12.5134 2.65054 12.6503 2.65601 12.7434C2.74363 14.8463 3.38436 16.7575 4.69868 18.4114C6.82896 21.0838 9.62736 22.4474 13.0391 22.2064C17.1463 21.9162 20.0378 19.7585 21.5767 15.9415C22.7212 13.0993 22.4967 10.2626 20.9578 7.61755C19.1342 4.4851 16.3413 2.83125 12.716 2.65053C11.2648 2.57934 9.86831 2.88602 8.554 3.51579C8.31304 3.63079 8.26375 3.54865 8.20352 3.3515C8.02827 2.76554 7.69422 2.2891 7.16302 1.96052C6.87825 1.78528 6.57157 1.69766 6.22657 1.60456C6.39086 1.51694 6.54967 1.42932 6.71943 1.35265C8.25828 0.618823 9.86284 0.142384 11.5714 0.0383342C11.6262 0.0328579 11.6755 0.0164289 11.7303 0C12.2067 0 12.6777 0 13.1541 0C13.6853 0.0930973 14.222 0.0930973 14.7477 0.213576C19.545 1.29789 22.7815 4.162 24.3313 8.82781C25.2841 11.6864 25.0815 14.5506 23.8712 17.3216C22.6117 20.2076 20.5416 22.3269 17.7213 23.696C15.8484 24.6051 13.8605 25.0048 11.7741 24.8679C7.99542 24.6215 4.95059 22.9676 2.6122 20.0159C1.08979 18.0883 0.230005 15.8703 0.0438105 13.406C0.0383342 13.3184 0.0164289 13.2308 0 13.1431C0 12.6667 0 12.1957 0 11.7193Z" fill="#FFB536"/>
<path d="M3.37341 23.1266C4.35367 23.9207 5.36679 24.6271 6.50586 25.1364C6.64277 25.1966 6.63182 25.2952 6.63182 25.4047C6.63182 26.7902 6.63182 28.1812 6.63182 29.5667C6.63182 32.4254 6.62634 35.2785 6.63182 38.1372C6.63182 39.1941 7.2835 39.8184 8.36233 39.8184C10.4159 39.8239 12.4696 39.8184 14.5232 39.8184C18.9042 39.8184 23.2853 39.8184 27.6609 39.8184C31.1383 39.8184 34.6158 39.8184 38.0877 39.8239C38.6956 39.8239 39.2213 39.6486 39.5664 39.1065C39.7471 38.8217 39.8183 38.5041 39.8183 38.17C39.8128 35.8152 39.8128 33.4604 39.8128 31.1056C39.8128 29.0629 39.8183 27.0202 39.8183 24.9721C39.8183 22.2778 39.8128 19.5889 39.8237 16.8945C39.8237 16.6426 39.758 16.5824 39.5116 16.5824C35.032 16.5934 30.5523 16.5934 26.0672 16.5934C26.0125 16.5934 25.9577 16.5879 25.8811 16.5824C26.0892 16.0129 26.248 15.4433 26.3465 14.8628C26.8285 12.1083 26.4232 9.46867 25.3279 6.92219C25.202 6.63742 25.2075 6.63194 25.5141 6.63194C26.8723 6.63194 28.2359 6.63742 29.594 6.62646C29.813 6.62646 29.8678 6.69218 29.8678 6.90576C29.8733 8.0284 29.813 9.15104 29.8952 10.2737C29.9883 11.6318 31.0233 12.8311 32.3321 13.1597C33.745 13.5157 35.1798 12.9735 35.952 11.7906C36.3353 11.1992 36.5161 10.553 36.5106 9.85201C36.5051 8.85532 36.5161 7.86411 36.5106 6.86742C36.5106 6.71956 36.5215 6.62646 36.7132 6.63194C37.3539 6.64289 37.9892 6.60456 38.6299 6.65932C41.2859 6.90576 43.1533 8.96485 43.1533 11.6318C43.1533 16.1662 43.1533 20.7006 43.1533 25.2404C43.1533 29.4846 43.1588 33.7287 43.1533 37.9729C43.1533 39.5501 42.5838 40.8753 41.3571 41.8884C40.4426 42.6442 39.3802 42.9946 38.1973 42.9946C35.941 42.9946 33.6903 42.9946 31.434 42.9946C25.7387 42.9946 20.0433 43.0001 14.3479 43.0001C12.2834 43.0001 10.2243 43.0001 8.15971 43.0001C5.60775 42.9947 3.41174 40.9191 3.35151 38.3726C3.29674 36.1109 3.3296 33.8492 3.3296 31.582C3.3296 28.8548 3.3296 26.1221 3.3296 23.3949C3.32412 23.3128 3.29674 23.2252 3.37341 23.1266Z" fill="#FFB536"/>
<path d="M31.5327 7.44781C31.5327 6.62636 31.5327 5.80492 31.5327 4.98895C31.5273 3.97035 32.1625 3.3351 33.1866 3.32962C34.1888 3.32415 34.8404 3.9594 34.8404 4.96157C34.8459 6.65922 34.8514 8.3514 34.835 10.0491C34.8295 10.8103 34.4133 11.3469 33.7671 11.5386C33.0059 11.7631 32.2282 11.5441 31.823 10.9746C31.6258 10.7007 31.5437 10.3831 31.5382 10.0491C31.5328 9.17833 31.5382 8.31307 31.5327 7.44781C31.5382 7.44781 31.5382 7.44781 31.5327 7.44781Z" fill="#FFB536"/>
<path d="M18.2525 34.8566C18.2525 34.3802 18.258 33.9092 18.247 33.4328C18.2415 33.2521 18.2854 33.1809 18.488 33.1809C19.4244 33.1918 20.3664 33.1864 21.3028 33.1754C21.5109 33.1754 21.5821 33.2302 21.5766 33.4492C21.5657 34.3802 21.5657 35.3057 21.5766 36.2367C21.5766 36.4338 21.5328 36.5105 21.3247 36.5105C20.3664 36.4995 19.4135 36.4995 18.4551 36.505C18.3018 36.505 18.247 36.4612 18.2525 36.3024C18.258 35.8205 18.2525 35.3386 18.2525 34.8566Z" fill="#FFB536"/>
<path d="M13.2801 36.5053C12.7982 36.5053 12.3163 36.4998 11.8289 36.5107C11.6646 36.5162 11.6099 36.4615 11.6099 36.2917C11.6153 35.3279 11.6153 34.3586 11.6099 33.3947C11.6099 33.2195 11.6756 33.1866 11.8344 33.1866C12.7818 33.1921 13.7292 33.1921 14.6766 33.1812C14.8737 33.1812 14.9449 33.2304 14.9395 33.444C14.9285 34.3805 14.9285 35.3224 14.9395 36.2588C14.9395 36.4724 14.8628 36.5217 14.6711 36.5217C14.2056 36.5107 13.7401 36.5162 13.2747 36.5162C13.2801 36.5107 13.2801 36.5107 13.2801 36.5053Z" fill="#FFB536"/>
<path d="M11.6154 28.1757C11.6154 27.6992 11.6209 27.2283 11.61 26.7573C11.61 26.604 11.6593 26.5547 11.8126 26.5547C12.7764 26.5601 13.7457 26.5547 14.7096 26.5492C14.8629 26.5492 14.9396 26.5821 14.9396 26.7628C14.9341 27.7211 14.9286 28.674 14.9396 29.6324C14.9396 29.824 14.8848 29.8843 14.6931 29.8788C13.7348 29.8678 12.7819 29.8678 11.8235 29.8733C11.6593 29.8733 11.6045 29.824 11.6045 29.6543C11.6209 29.1559 11.6154 28.6685 11.6154 28.1757Z" fill="#FFB536"/>
<path d="M19.8735 29.8678C19.419 29.8678 18.959 29.8624 18.5045 29.8733C18.3237 29.8788 18.2471 29.8405 18.2471 29.6378C18.258 28.6795 18.2525 27.7211 18.2471 26.7628C18.2471 26.6149 18.2909 26.5547 18.4497 26.5547C19.419 26.5601 20.3828 26.5547 21.3521 26.5492C21.5055 26.5492 21.5767 26.5821 21.5767 26.7628C21.5657 27.7211 21.5657 28.6795 21.5767 29.6378C21.5767 29.8405 21.5 29.8788 21.3248 29.8788C20.8428 29.8733 20.3554 29.8788 19.8735 29.8788C19.8735 29.8678 19.8735 29.8678 19.8735 29.8678Z" fill="#FFB536"/>
<path d="M28.2086 34.8623C28.2086 35.3387 28.2031 35.8097 28.214 36.2861C28.214 36.4449 28.1867 36.5161 28.0059 36.5161C27.0312 36.5107 26.0564 36.5107 25.0816 36.5161C24.9283 36.5161 24.9009 36.4504 24.9009 36.319C24.9064 35.3442 24.9064 34.3694 24.9009 33.3946C24.9009 33.2304 24.9611 33.1975 25.109 33.1975C26.0673 33.203 27.0257 33.203 27.9786 33.192C28.1812 33.192 28.2195 33.2687 28.214 33.4494C28.2031 33.9149 28.2086 34.3859 28.2086 34.8623Z" fill="#FFB536"/>
<path d="M33.1867 36.5053C32.7048 36.5053 32.2228 36.4998 31.7354 36.5053C31.5821 36.5053 31.5273 36.4615 31.5273 36.3027C31.5328 35.3279 31.5328 34.3531 31.5273 33.3783C31.5273 33.2195 31.5876 33.1812 31.7354 33.1812C32.6938 33.1866 33.6522 33.1866 34.605 33.1812C34.7748 33.1812 34.846 33.2195 34.846 33.4057C34.8405 34.3421 34.8405 35.2841 34.8515 36.2205C34.8515 36.4231 34.8077 36.5107 34.5831 36.5053C34.1176 36.4943 33.6522 36.5053 33.1867 36.5053Z" fill="#FFB536"/>
<path d="M28.2082 28.2031C28.2082 28.685 28.2027 29.1669 28.2082 29.6543C28.2082 29.7912 28.1918 29.8733 28.022 29.8733C27.0363 29.8679 26.056 29.8679 25.0703 29.8733C24.9388 29.8733 24.895 29.8295 24.895 29.6981C24.9005 28.7069 24.9005 27.7102 24.895 26.719C24.895 26.604 24.9334 26.5547 25.0538 26.5547C26.045 26.5547 27.0417 26.5602 28.0329 26.5547C28.1918 26.5547 28.2082 26.6314 28.2082 26.7573C28.2082 27.2392 28.2082 27.7211 28.2082 28.2031Z" fill="#FFB536"/>
<path d="M31.5327 28.1757C31.5327 27.6992 31.5382 27.2283 31.5273 26.7518C31.5218 26.5985 31.5765 26.5492 31.7299 26.5492C32.6937 26.5547 33.663 26.5547 34.6268 26.5492C34.7966 26.5492 34.8459 26.604 34.8404 26.7682C34.835 27.7156 34.8349 28.6631 34.8459 29.6105C34.8459 29.8186 34.7857 29.8733 34.583 29.8678C33.6356 29.8569 32.6882 29.8569 31.7408 29.8678C31.5711 29.8678 31.5218 29.8131 31.5273 29.6488C31.5382 29.1614 31.5327 28.6685 31.5327 28.1757Z" fill="#FFB536"/>
<path d="M26.5325 23.2305C26.0561 23.2305 25.5851 23.225 25.1087 23.236C24.9389 23.2415 24.8896 23.1812 24.8896 23.0169C24.8951 22.0531 24.8951 21.0838 24.8896 20.12C24.8896 19.9612 24.9444 19.9174 25.0977 19.9174C26.0616 19.9228 27.0309 19.9228 27.9947 19.9174C28.1645 19.9174 28.2083 19.9721 28.2083 20.1364C28.2028 21.0838 28.2028 22.0312 28.2138 22.9786C28.2138 23.1867 28.1535 23.2415 27.9509 23.236C27.4799 23.2196 27.0035 23.2305 26.5325 23.2305Z" fill="#FFB536"/>
<path d="M33.1753 23.2305C32.7098 23.2305 32.2444 23.225 31.7789 23.236C31.5982 23.2415 31.5215 23.1977 31.5215 23.0005C31.5324 22.0367 31.527 21.0674 31.527 20.1036C31.527 19.9612 31.5762 19.9174 31.7186 19.9174C32.6934 19.9228 33.6682 19.9228 34.643 19.9174C34.8018 19.9174 34.8456 19.9831 34.8456 20.1309C34.8456 21.0783 34.8456 22.0257 34.8511 22.9731C34.8511 23.1648 34.8127 23.247 34.5937 23.2415C34.1227 23.2141 33.6518 23.2305 33.1753 23.2305Z" fill="#FFB536"/>
<path d="M12.2943 10.646C12.5517 10.7501 12.7215 10.5639 12.9132 10.3832C14.1618 9.20575 15.4158 8.03929 16.6699 6.86736C16.9821 6.57712 17.4585 6.54426 17.7378 6.79617C18.0061 7.0426 17.9897 7.48071 17.6885 7.83119C16.5385 9.16193 15.3885 10.4982 14.2329 11.8234C14.1179 11.9549 14.0632 12.0808 14.0741 12.2615C14.1179 12.8037 13.9537 13.2911 13.636 13.7237C13.5594 13.8223 13.532 13.9208 13.5265 14.0468C13.4553 15.3337 13.3841 16.6152 13.2965 17.8967C13.2527 18.5319 12.7708 18.8769 12.1574 18.74C11.796 18.6579 11.6536 18.499 11.6153 18.0883C11.5003 16.8342 11.3907 15.5802 11.2867 14.3261C11.2703 14.1235 11.2265 13.9866 11.0348 13.8606C10.7445 13.6744 10.646 13.3404 10.5419 13.0282C10.2188 12.0753 10.646 11.0677 11.5003 10.7446C11.7467 10.657 11.9986 10.6405 12.2943 10.646Z" fill="#FFB536"/>
</svg>
