<svg width="51" height="41" viewBox="0 0 51 41" fill="none" xmlns="http://www.w3.org/2000/svg">
<path d="M15.5709 22.9968C15.5445 14.7702 21.4197 7.56458 29.4816 5.93112C29.8241 5.85867 30.1732 5.80598 30.5157 5.7467C30.6211 5.72694 30.7199 5.70718 30.766 5.87184C31.0031 6.70833 31.6222 7.12328 32.4258 7.28136C33.1437 7.41967 33.8485 7.35381 34.4873 6.94545C34.8496 6.71492 35.1328 6.40535 35.225 5.97723C35.2711 5.75987 35.3634 5.72694 35.5609 5.75329C39.4009 6.35925 42.7337 8.00587 45.4407 10.7986C49.0633 14.5397 50.8021 19.0515 50.374 24.2482C49.8273 30.9006 46.4814 35.8075 40.4942 38.732C32.7156 42.5324 23.3759 39.9175 18.5348 32.7448C16.6116 29.8863 15.5775 26.5074 15.5709 22.9968ZM33.0186 9.10582C25.3255 9.11241 19.1144 15.3235 19.1144 23.0231C19.1144 30.7096 25.3453 36.9009 33.091 36.9009C40.7248 36.9009 46.9095 30.6503 46.9095 22.9375C46.9095 15.3235 40.6523 9.09924 33.0186 9.10582Z" fill="#FFB536"/>
<path d="M6.64612 23.7212C4.85459 23.7212 3.06964 23.7278 1.27811 23.7212C0.639218 23.7212 0.10571 23.2536 0.0134989 22.6411C-0.0787123 22.0351 0.309892 21.4291 0.922438 21.2513C1.06734 21.2118 1.22542 21.1986 1.37691 21.1986C4.92045 21.1986 8.47058 21.1986 12.0141 21.1986C12.7716 21.1986 13.3446 21.7453 13.3578 22.45C13.3709 23.168 12.7847 23.7278 12.0141 23.7278C10.2292 23.7212 8.43765 23.7212 6.64612 23.7212Z" fill="#FFB536"/>
<path d="M8.64867 30.1563C7.14695 30.1563 5.64522 30.1563 4.13691 30.1563C3.35312 30.1563 2.78009 29.6097 2.78668 28.8851C2.79326 28.1606 3.33994 27.6337 4.11057 27.6337C7.12719 27.6271 10.1438 27.6205 13.1604 27.6271C13.9508 27.6271 14.5107 28.1738 14.5041 28.8983C14.4975 29.6294 13.9376 30.1563 13.1473 30.1563C12.3898 30.1629 11.6324 30.1563 10.8749 30.1563C10.1438 30.1629 9.39954 30.1629 8.64867 30.1563Z" fill="#FFB536"/>
<path d="M8.62896 17.3191C7.11406 17.3191 5.59917 17.3257 4.08427 17.3191C3.49807 17.3191 3.05677 17.0096 2.86576 16.4827C2.68793 15.9953 2.83283 15.4486 3.22143 15.1061C3.46514 14.8953 3.74836 14.8031 4.0711 14.7965C7.10748 14.7965 10.1504 14.7899 13.1868 14.7965C13.9706 14.7965 14.5239 15.3564 14.5107 16.0875C14.5041 16.7922 13.9311 17.3257 13.1671 17.3257C11.6588 17.3191 10.1439 17.3191 8.62896 17.3191Z" fill="#FFB536"/>
<path d="M12.7519 11.0752C11.4873 11.0752 10.2293 11.0752 8.96469 11.0752C8.17431 11.0752 7.60129 10.5483 7.58811 9.83033C7.57494 9.09264 8.14797 8.55255 8.96469 8.55255C11.5334 8.54596 14.1022 8.54596 16.6709 8.55255C17.3954 8.55255 17.9421 9.11899 17.9355 9.83033C17.9289 10.5285 17.3888 11.0686 16.6709 11.0752C15.3602 11.0818 14.0561 11.0752 12.7519 11.0752Z" fill="#FFB536"/>
<path d="M12.732 36.3476C11.4806 36.3476 10.2291 36.3476 8.9777 36.3476C8.16756 36.3476 7.58136 35.8207 7.58795 35.0896C7.59453 34.3519 8.16097 33.8184 8.97111 33.8184C11.5069 33.8184 14.0427 33.8184 16.5719 33.8249C17.3557 33.8249 17.9156 34.3387 17.9222 35.05C17.9288 35.8075 17.3821 36.3476 16.5719 36.3542C15.3008 36.3542 14.0164 36.3476 12.732 36.3476Z" fill="#FFB536"/>
<path d="M33.1305 3.03968C32.1689 3.03968 31.2006 3.03968 30.239 3.03968C29.5013 3.03968 29.0995 2.6379 29.093 1.9068C29.093 1.6104 29.0864 1.31401 29.0995 1.01762C29.1259 0.438003 29.5211 0.0164663 30.1073 0.00987977C32.1359 -0.00329326 34.1646 -0.00329326 36.1932 0.00987977C36.7531 0.0164663 37.1548 0.431417 37.1878 0.997857C37.2075 1.33377 37.2009 1.67627 37.1944 2.01877C37.1746 2.63131 36.7531 3.03968 36.1339 3.03968C35.1262 3.03968 34.1316 3.03968 33.1305 3.03968Z" fill="#FFB536"/>
<path d="M33.0319 3.54016C33.4073 3.54016 33.7762 3.54674 34.1516 3.54016C34.336 3.53357 34.4085 3.61261 34.4085 3.79044C34.4019 4.40299 34.4085 5.01553 34.3953 5.62808C34.3821 6.01668 34.1714 6.29332 33.8157 6.43163C33.3085 6.63582 32.7882 6.62923 32.2744 6.45798C31.8727 6.31966 31.6487 6.0101 31.6356 5.58856C31.6158 4.99578 31.629 4.40299 31.6224 3.81679C31.6158 3.59943 31.7146 3.53357 31.9188 3.53357C32.2876 3.54674 32.663 3.54016 33.0319 3.54016Z" fill="#FFB536"/>
<path d="M33.5258 16.7264C33.5258 18.1887 33.5324 19.6443 33.5192 21.1065C33.5192 21.3897 33.5785 21.5412 33.8683 21.6663C34.7048 22.0286 35.0934 22.9046 34.8365 23.7674C34.5994 24.5842 33.7893 25.1177 32.9396 25.0255C32.0834 24.9267 31.4247 24.2285 31.372 23.3393C31.3259 22.6148 31.7541 21.9232 32.4786 21.6334C32.7091 21.5412 32.7618 21.4226 32.7618 21.1987C32.7552 18.2216 32.7618 15.2511 32.7618 12.274C32.7618 12.1554 32.6827 11.971 32.8342 11.9183C33.0252 11.8524 33.2492 11.8524 33.4468 11.9183C33.5719 11.9644 33.5127 12.1093 33.5127 12.2147C33.5192 13.7164 33.5192 15.2181 33.5258 16.7264C33.5192 16.7264 33.5192 16.7264 33.5258 16.7264Z" fill="#FFB536"/>
<path d="M35.897 21.7387C35.7982 21.7453 35.785 21.6663 35.7587 21.6136C35.5479 21.1591 35.2449 20.8034 34.7641 20.6124C34.5336 20.5202 34.7114 20.428 34.7839 20.3555C35.482 19.6574 36.1802 18.9592 36.8784 18.2676C36.9113 18.2347 36.9377 18.2017 36.9706 18.1754C37.1945 17.9712 37.3855 17.5694 37.6358 17.5892C37.8729 17.609 38.0903 17.958 38.3011 18.182C38.4855 18.3796 38.8346 18.5377 38.8082 18.7814C38.7819 18.9855 38.4789 19.1634 38.2945 19.3478C37.5568 20.0855 36.8257 20.8232 36.088 21.5609C36.0221 21.6267 35.9563 21.6794 35.897 21.7387Z" fill="#FFB536"/>
</svg>
