<svg width="63" height="58" viewBox="0 0 63 58" fill="none" xmlns="http://www.w3.org/2000/svg">
<path d="M55 15.7292C53.0915 15.7175 51.1715 15.7175 49.263 15.7057C47.8143 15.7057 46.3542 15.694 44.9056 15.7175C44.5952 15.7175 44.3537 15.6236 44.1238 15.4242C42.7556 14.2747 41.3875 13.1252 39.9963 11.9875C39.7549 11.7881 39.5939 11.577 39.6514 11.2485C39.7089 10.9318 39.5595 10.8497 39.2605 10.8615C38.5707 10.8849 37.8809 10.8849 37.1911 10.8615C36.9036 10.8497 36.7542 10.9318 36.8002 11.2485C36.8576 11.577 36.7427 11.6943 36.3978 11.7412C33.1786 12.1165 29.9594 12.527 26.7402 12.9258C26.6252 12.9376 26.4988 12.9024 26.3953 13.0197C26.4413 13.2074 26.5908 13.2895 26.7057 13.4068C29.488 16.2453 32.2473 19.0955 35.0526 21.9106C36.2483 23.1188 36.8117 24.538 36.8002 26.2271C36.7887 27.4235 36.7887 28.6316 36.8002 29.828C36.8002 30.1213 36.7312 30.2737 36.4208 30.2268C36.3288 30.2151 36.2368 30.2268 36.1448 30.2268C35.4665 30.2268 35.4665 30.2268 35.3745 29.5348C34.3053 30.5552 33.0636 31.1534 31.615 31.1534C30.1778 31.1534 28.9362 30.6139 27.9129 29.57C27.7635 29.6403 27.8209 29.7694 27.8209 29.8632C27.8209 32.5493 27.8209 35.2353 27.8094 37.9213C27.8094 38.238 27.8784 38.3553 28.2118 38.3553C30.4883 38.3436 32.7762 38.3436 35.0526 38.3553C35.3515 38.3553 35.4435 38.2615 35.432 37.9565C35.4205 36.0094 35.432 34.0506 35.409 32.1035C35.409 31.7047 35.524 31.6109 35.9034 31.6226C36.8002 31.6461 36.8002 31.6344 36.8002 32.5258C36.8002 34.3087 36.8117 36.0798 36.8002 37.8627C36.8002 38.2498 36.8806 38.3671 37.2715 38.3671C39.7089 38.3436 42.1348 38.3671 44.5722 38.3553C44.8826 38.3553 45.124 38.4257 45.331 38.672C45.5494 38.9301 45.7794 39.1999 46.0438 39.3993C46.9291 40.0561 47.205 40.9006 47.1245 42.0149C47.021 43.5163 47.09 45.0411 47.1015 46.5542C47.1015 46.9061 47.0095 47 46.6646 47C36.6277 46.9882 26.5908 46.9882 16.5538 47C16.1859 47 16.0824 46.8827 16.0939 46.5191C16.1169 45.6745 16.1169 44.83 16.1054 43.9855C16.1054 43.7274 16.1859 43.6453 16.4388 43.6336C17.4851 43.6101 17.4851 43.5984 17.4851 44.6658C17.4851 45.5807 17.4851 45.5807 18.3819 45.5807C27.3036 45.5807 36.2253 45.5807 45.1355 45.5924C45.5839 45.5924 45.7334 45.5103 45.7219 45.0177C45.6759 43.8447 45.6989 42.6718 45.7104 41.5106C45.7104 41.2056 45.6069 41.0062 45.423 40.7716C44.8136 39.9623 44.0433 39.7511 43.0546 39.7511C35.1561 39.7981 27.2691 39.7746 19.3706 39.7629C18.9452 39.7629 18.5888 39.8333 18.3359 40.1969C18.2324 40.3376 18.1174 40.4549 17.9795 40.5605C17.5771 40.8654 17.4046 41.2643 17.4851 41.7686C17.5311 42.1088 17.4391 42.2613 17.0482 42.2495C16.1054 42.2261 16.1399 42.2378 16.0939 41.2994C16.0594 40.7012 16.2434 40.2672 16.6803 39.8802C17.2092 39.411 17.6115 38.6955 18.2209 38.4374C18.8187 38.1794 19.6005 38.3553 20.3019 38.3553C22.1989 38.3553 24.0959 38.3436 25.9929 38.3553C26.3378 38.3553 26.4298 38.2615 26.4183 37.9096C26.4068 34.7896 26.4068 31.6695 26.4183 28.5495C26.4183 28.2093 26.3263 27.9748 26.0849 27.7284C20.7158 22.2625 15.3466 16.7848 9.9775 11.3189C9.54061 10.8732 9.11522 10.4392 8.7818 9.91137C8.68982 9.70024 8.68982 9.59468 8.91977 9.47738C9.20719 9.33663 9.47162 9.05512 9.77055 9.04339C10.104 9.01993 10.1729 9.48911 10.3914 9.70024C12.2654 11.6004 14.1279 13.524 16.002 15.4242C20.2444 19.7524 24.4868 24.0688 28.7177 28.4088C29.8559 29.5817 31.2011 30.0509 32.7647 29.5465C35.4205 28.6903 36.3863 25.2301 34.1788 23.0015C31.2241 20.0104 28.2923 16.996 25.3491 13.9932C22.2564 10.838 19.1522 7.68277 16.0709 4.51581C14.8637 3.28422 13.4841 2.86196 11.8515 3.4367C10.2879 3.97626 9.1957 5.74741 9.41414 7.41299C9.46013 7.77661 9.35665 7.87044 9.04623 7.92909C8 8.16368 8 8.17541 8 7.04938C8.0115 3.12001 12.1045 0.562983 15.5076 2.38105C16.0939 2.69775 16.6918 2.6391 17.2896 2.68602C21.5435 2.99098 25.809 3.27249 30.0629 3.554C30.3503 3.57746 30.5113 3.62437 30.4193 3.9528C30.4078 3.99972 30.4078 4.04664 30.4078 4.09355C30.3503 5.02018 30.3503 4.99672 29.419 4.93808C25.579 4.6683 21.7275 4.41025 17.8875 4.14047C17.8415 4.14047 17.7955 4.14047 17.7495 4.1522C17.7265 4.32814 17.876 4.38679 17.968 4.48063C20.2444 6.81479 22.5323 9.13723 24.8087 11.4714C24.9927 11.6591 25.1651 11.7177 25.4181 11.6825C28.6027 11.2837 31.7874 10.8849 34.9836 10.4978C35.317 10.4627 35.455 10.3806 35.455 9.99348C35.432 8.58594 35.432 7.1784 35.455 5.7826C35.455 5.45417 35.3975 5.31342 35.0411 5.30169C34.0753 5.2665 33.1211 5.17267 32.1553 5.11402C31.8449 5.10229 31.7529 4.97326 31.7759 4.65657C31.8219 3.69475 31.8104 3.68302 32.7302 3.74167C33.9719 3.81205 35.2021 3.91761 36.4437 3.98799C36.7657 3.99972 36.8806 4.12874 36.8346 4.43371C36.7772 4.79732 36.9266 4.87943 37.26 4.8677C37.9269 4.84424 38.6052 4.84424 39.2835 4.8677C39.5824 4.87943 39.7204 4.79732 39.6744 4.48063C39.6169 4.14047 39.7779 3.94107 40.0308 3.74167C40.7322 3.17865 41.4105 2.60391 42.0888 2.02917C42.2613 1.88841 42.3532 1.85322 42.5257 2.05263C43.25 2.89715 43.25 2.88542 42.4107 3.57746C41.9623 3.9528 41.353 4.25777 41.1231 4.73867C40.8931 5.21958 41.0541 5.89989 41.0541 6.4981C41.0541 7.88217 41.0541 9.27798 41.0426 10.6621C41.0426 10.9201 41.1231 11.096 41.3185 11.2485C42.4567 12.1869 43.5949 13.137 44.7331 14.0871C44.8941 14.2278 45.055 14.2982 45.2735 14.2982C47.9408 14.2982 50.5966 14.2865 53.264 14.2982C53.6089 14.2982 53.7008 14.1692 53.6549 13.8642C53.5744 13.4302 53.7698 13.3246 54.1607 13.3598C54.4482 13.395 54.7471 13.3716 55.0345 13.3716C55 14.1692 55 14.955 55 15.7292ZM39.4905 7.87044C39.4905 7.45991 39.479 7.06111 39.4905 6.65058C39.502 6.3808 39.4445 6.26351 39.1456 6.26351C38.4787 6.28697 37.8004 6.28697 37.1221 6.26351C36.8461 6.25178 36.8002 6.36907 36.8002 6.61539C36.8117 7.43645 36.8117 8.26925 36.8002 9.10204C36.8002 9.34836 36.8346 9.46565 37.1221 9.46565C37.3865 9.46565 37.4785 9.38355 37.4555 9.11377C37.4325 8.87918 37.4555 8.64459 37.4555 8.41C37.4555 7.30743 37.4555 7.31916 38.5592 7.38954C38.7776 7.40127 38.8466 7.48337 38.8466 7.6945C38.8351 8.17541 38.8581 8.66805 38.8351 9.14896C38.8236 9.407 38.9271 9.46565 39.1571 9.45392C39.364 9.44219 39.5135 9.44219 39.502 9.16069C39.479 8.73842 39.4905 8.30443 39.4905 7.87044Z" fill="#FFB536"/>
<path d="M55 11.9875C54.6666 11.9875 54.3217 11.9641 53.9883 11.9875C53.6779 12.011 53.5629 11.882 53.6204 11.5887C53.7009 11.1313 53.5169 10.9905 53.08 11.0374C52.6546 11.0844 52.2178 11.0726 51.7924 11.0374C51.4704 11.014 51.344 11.143 51.39 11.4597C51.4704 11.9171 51.275 12.0344 50.8381 12.0227C49.2745 11.9993 47.7224 11.9993 46.1588 12.011C45.8484 12.011 45.6069 11.9289 45.377 11.7177C44.7677 11.1782 44.1353 10.6621 43.4915 10.146C43.3075 9.99351 43.2271 9.84103 43.2271 9.59471C43.2385 8.44522 43.2385 7.284 43.2271 6.13451C43.2271 5.8882 43.3075 5.73571 43.4915 5.58323C43.9284 5.24307 44.3883 4.91465 44.7677 4.51585C45.3885 3.84727 46.1128 3.67133 46.9866 3.71824C48.2858 3.77689 49.5849 3.7417 50.8841 3.71824C51.2405 3.71824 51.4015 3.77689 51.39 4.19915C51.367 4.62141 51.183 5.19616 51.4704 5.45421C51.7464 5.70052 52.2867 5.52458 52.7121 5.52458C53.6089 5.53631 53.6089 5.52458 53.6089 4.64487C53.6089 3.69478 53.5974 2.7447 53.6089 1.79461C53.6089 1.53656 53.5399 1.44273 53.2755 1.44273C50.5852 1.45445 47.8949 1.45445 45.2045 1.44273C44.8826 1.44273 44.7102 1.65386 44.5032 1.8298C44.3193 1.99401 44.2043 2.01747 44.0203 1.79461C43.319 0.961817 43.319 0.985276 44.1468 0.281507C44.3768 0.0821063 44.6067 0.0234589 44.8941 0.0234589C48.1708 0.0351884 51.436 0.0234589 54.7126 0.0234589C54.8046 0.0234589 54.8966 0.0117295 54.9886 0C54.9886 2.31071 54.9886 4.62141 54.9886 6.93212C53.4594 6.93212 51.9303 6.92039 50.4012 6.94385C50.0793 6.94385 49.9758 6.85001 49.9988 6.52159C50.0218 6.19316 49.9873 5.86474 50.0103 5.53631C50.0218 5.24307 49.9413 5.12578 49.6194 5.13751C48.8146 5.16097 47.9983 5.18443 47.1935 5.12578C46.5037 5.07886 45.9978 5.32518 45.4575 5.74744C44.8251 6.24008 44.6412 6.76791 44.5837 7.57724C44.4917 8.83229 44.8366 9.72373 45.9059 10.3571C46.1358 10.4979 46.3313 10.6152 46.6072 10.6152C47.5499 10.6034 48.5042 10.58 49.447 10.6152C49.8839 10.6269 50.0678 10.5096 49.9988 10.0522C49.9643 9.79411 49.9988 9.61817 50.3437 9.6299C51.8843 9.65336 53.4364 9.64163 54.9771 9.65336C55 10.4275 55 11.2016 55 11.9875Z" fill="#FFB536"/>
<path d="M34.5582 25.7579C34.5582 27.4939 33.167 28.9249 31.4769 28.9014C29.7984 28.878 28.4072 27.4704 28.4072 25.7697C28.4072 24.0337 29.7984 22.6262 31.4999 22.6262C33.1785 22.6262 34.5467 24.0337 34.5582 25.7579ZM32.1668 25.7345C32.1668 26.1567 32.1783 26.579 32.1668 26.9895C32.1553 27.3062 32.2817 27.2828 32.4887 27.142C33.3855 26.5321 33.397 24.9955 32.4887 24.3739C32.4197 24.3269 32.3162 24.2566 32.2472 24.2683C32.1208 24.3035 32.1668 24.456 32.1668 24.5498C32.1668 24.9603 32.1668 25.3474 32.1668 25.7345ZM30.7871 24.2331C29.6374 24.843 29.488 26.3913 30.4422 27.1068C30.5227 27.1655 30.6032 27.271 30.7181 27.2358C30.8101 27.2124 30.7871 27.1068 30.7871 27.0364C30.7871 26.1215 30.7871 25.2066 30.7871 24.2331Z" fill="#FFB536"/>
<path d="M16.278 7.10804C16.278 8.844 14.8868 10.275 13.1967 10.2515C11.5067 10.2398 10.1385 8.83227 10.127 7.11977C10.1155 5.40726 11.5412 3.96454 13.2197 3.97627C14.9213 3.99973 16.278 5.3838 16.278 7.10804ZM13.6911 5.46591C13.0703 5.3017 12.4839 5.40726 12.0125 5.8999C11.5412 6.39254 11.3917 6.97901 11.5986 7.60068C12.3 6.89691 12.9898 6.18141 13.6911 5.46591ZM14.8408 6.6975C14.174 7.38954 13.4842 8.09331 12.8058 8.78535C13.4267 8.92611 14.0245 8.79708 14.5074 8.22234C14.9098 7.74143 14.9903 7.19014 14.8408 6.6975Z" fill="#FFB536"/>
<path d="M20.8077 40.7482C21.3366 40.7482 21.8769 40.7599 22.4058 40.7482C22.6702 40.7365 22.7852 40.8069 22.7737 41.1118C22.7622 42.2379 22.7507 43.3522 22.7737 44.4782C22.7737 44.7832 22.6587 44.8418 22.3943 44.8418C21.3136 44.8301 20.2214 44.8301 19.1406 44.8535C18.8187 44.8535 18.7612 44.7245 18.7612 44.443C18.7727 43.3522 18.7842 42.2613 18.7612 41.1705C18.7612 40.8303 18.8762 40.7482 19.1866 40.7599C19.7385 40.7599 20.2673 40.7482 20.8077 40.7482ZM20.8192 42.1558C20.5203 42.1792 20.1064 41.9915 20.1524 42.6249C20.1984 43.3991 20.1639 43.4108 20.7272 43.3991C21.0376 43.3991 21.44 43.5633 21.3941 42.9299C21.3481 42.0619 21.4745 42.1792 20.8192 42.1558Z" fill="#FFB536"/>
<path d="M23.4292 42.7187C23.4292 42.1791 23.4407 41.6278 23.4292 41.0883C23.4177 40.8185 23.5096 40.7364 23.7741 40.7364C24.8893 40.7481 26.0045 40.7481 27.1197 40.7364C27.3612 40.7364 27.4416 40.8185 27.4416 41.0648C27.4302 42.2026 27.4416 43.3403 27.4416 44.4781C27.4416 44.7361 27.3497 44.83 27.0967 44.83C25.9815 44.8182 24.8663 44.8182 23.7511 44.83C23.5096 44.83 23.4292 44.7479 23.4407 44.5016C23.4407 43.9033 23.4292 43.3169 23.4292 42.7187ZM25.3492 42.1557C24.9813 42.0735 24.7628 42.1791 24.7973 42.7187C24.8548 43.4576 24.6938 43.399 25.3952 43.4107C26.039 43.4107 26.039 43.4107 26.039 42.8242C26.039 42.0501 26.0965 42.1674 25.3492 42.1557Z" fill="#FFB536"/>
<path d="M20.8878 11.0726C20.9568 11.143 21.0373 11.1899 21.0948 11.2603C23.4402 13.6531 25.7856 16.0459 28.131 18.427C28.292 18.5912 28.3264 18.6851 28.154 18.8727C27.4182 19.6938 27.4182 19.6938 26.6479 18.9079C24.6244 16.8435 22.6124 14.7791 20.5889 12.7265C19.9106 12.0344 19.9106 12.0344 20.6119 11.3424C20.6924 11.2486 20.7844 11.1665 20.8878 11.0726Z" fill="#FFB536"/>
<path d="M54.0568 48.2285C54.1258 48.2989 54.2062 48.3458 54.2637 48.4162C56.6091 50.809 58.1375 52.138 60.4829 54.5191C60.6438 54.6833 60.6783 54.7771 60.5059 54.9648C59.7701 55.7859 59.7701 55.7859 58.9998 55C56.9763 52.9356 55.7813 51.935 53.7579 49.8824C53.0795 49.1903 53.0795 49.1903 53.7809 48.4983C53.8613 48.4045 53.9533 48.3224 54.0568 48.2285Z" fill="#FFB536"/>
<path d="M8.94273 48.2285C8.87375 48.2989 8.79327 48.3458 8.73578 48.4162C6.39038 50.809 4.86203 52.138 2.51663 54.5191C2.35567 54.6833 2.32118 54.7771 2.49364 54.9648C3.22945 55.7859 3.22945 55.7859 3.99976 55C6.02324 52.9356 7.21817 51.935 9.24165 49.8824C9.91998 49.1903 9.91998 49.1903 9.21866 48.4983C9.13818 48.4045 9.0462 48.3224 8.94273 48.2285Z" fill="#FFB536"/>
<path d="M26.2686 7.44821C25.1074 7.44821 23.9462 7.43648 22.7849 7.44821C22.486 7.44821 22.394 7.3661 22.394 7.04941C22.394 6.01721 22.3826 6.01721 23.4058 6.01721C25.4983 6.01721 27.5907 6.02894 29.6947 6.01721C30.0511 6.01721 30.1661 6.12278 30.1546 6.48639C30.1316 7.43648 30.1546 7.43648 29.2118 7.43648C28.2231 7.44821 27.2458 7.44821 26.2686 7.44821Z" fill="#FFB536"/>
<path d="M35.8341 42.4138C34.8569 42.4138 33.8796 42.402 32.9024 42.4255C32.5919 42.4255 32.523 42.3317 32.523 42.0267C32.523 41.0062 32.5115 41.0062 33.4887 41.0062C35.2478 41.0062 37.0068 41.018 38.7659 40.9945C39.1338 40.9945 39.2372 41.0883 39.2258 41.4637C39.2028 42.4138 39.2257 42.4138 38.283 42.4138C37.4552 42.4255 36.6389 42.4255 35.8341 42.4138C35.8341 42.4255 35.8341 42.4138 35.8341 42.4138Z" fill="#FFB536"/>
<path d="M23.4062 19.5765C23.4406 19.6 23.4981 19.6352 23.5326 19.6704C24.4754 20.6322 25.4066 21.5823 26.3494 22.5441C26.4069 22.6027 26.5104 22.6848 26.4299 22.7787C26.1539 23.0719 25.878 23.3652 25.5906 23.6349C25.5101 23.717 25.4296 23.588 25.3721 23.5294C24.4524 22.591 23.5326 21.6527 22.6243 20.7143C22.5669 20.6557 22.5209 20.597 22.4864 20.5266C22.4519 20.4562 23.2912 19.5765 23.4062 19.5765Z" fill="#FFB536"/>
<path d="M48.9555 49.693C48.9942 49.7087 49.0577 49.7311 49.0988 49.7582C50.2223 50.5011 51.332 51.2349 52.4554 51.9777C52.5239 52.023 52.6423 52.0816 52.5832 52.1902C52.3749 52.5348 52.1666 52.8794 51.9421 53.2034C51.8806 53.3005 51.7749 53.1912 51.7064 53.146C50.6103 52.4212 49.5143 51.6965 48.4296 50.9693C48.3611 50.924 48.3038 50.8763 48.2553 50.8148C48.2068 50.7532 48.8431 49.7171 48.9555 49.693Z" fill="#FFB536"/>
<path d="M14.044 49.693C14.0053 49.7087 13.9418 49.7311 13.9007 49.7582C12.7773 50.5011 11.6675 51.2349 10.5441 51.9777C10.4756 52.023 10.3572 52.0816 10.4163 52.1902C10.6246 52.5348 10.8329 52.8794 11.0574 53.2034C11.1189 53.3005 11.2247 53.1912 11.2932 53.146C12.3892 52.4212 13.4852 51.6965 14.57 50.9693C14.6385 50.924 14.6957 50.8763 14.7442 50.8148C14.7927 50.7532 14.1564 49.7171 14.044 49.693Z" fill="#FFB536"/>
<path d="M42.6867 10.017C42.7787 10.0873 42.8362 10.1343 42.8937 10.1812C43.7445 10.8849 44.5952 11.6004 45.446 12.3042C45.6415 12.4567 45.676 12.5623 45.515 12.7851C44.8712 13.6414 44.8712 13.6531 44.0549 12.9611C43.388 12.3981 42.7097 11.835 42.0314 11.2838C41.8474 11.143 41.8015 11.0257 41.9739 10.838C42.1579 10.6386 42.3188 10.404 42.5028 10.1929C42.5603 10.1343 42.6292 10.0756 42.6867 10.017Z" fill="#FFB536"/>
<path d="M41.6749 44.8183C41.1691 44.8183 40.6632 44.8066 40.1573 44.8183C39.8584 44.83 39.7319 44.7596 39.7319 44.4078C39.7319 43.399 39.7204 43.399 40.7092 43.399C41.514 43.399 42.3303 43.4108 43.1351 43.3873C43.457 43.3756 43.595 43.4459 43.595 43.8213C43.595 44.8066 43.6064 44.8066 42.6407 44.8066C42.3188 44.8183 41.9969 44.8183 41.6749 44.8183Z" fill="#FFB536"/>
<path d="M46.9175 3.21386C46.5726 3.21386 46.2162 3.21386 45.8713 3.21386C45.7563 3.21386 45.5839 3.24905 45.5724 3.09657C45.5494 2.7095 45.5609 2.32242 45.5724 1.93535C45.5839 1.7946 45.7333 1.81806 45.8368 1.81806C46.5841 1.81806 47.3314 1.81806 48.0787 1.81806C48.1822 1.81806 48.3317 1.80633 48.3317 1.94708C48.3546 2.33415 48.3546 2.72122 48.3317 3.1083C48.3202 3.26078 48.1362 3.22559 48.0212 3.22559C47.6533 3.21386 47.2854 3.21386 46.9175 3.21386Z" fill="#FFB536"/>
<path d="M32.4313 6.73271C32.4313 7.4482 32.4313 7.43647 31.4885 7.4482C30.6952 7.45993 31.0976 6.86173 31.0631 6.54503C31.0171 5.97029 30.9137 6.06413 31.9369 6.00548C32.5922 5.98202 32.4083 6.39255 32.4313 6.73271Z" fill="#FFB536"/>
<path d="M34.7308 6.74439C34.7308 7.44815 34.7308 7.44815 34.018 7.44815C33.3512 7.44815 33.3512 7.44815 33.3512 6.65055C33.3512 5.95851 33.2362 6.04062 34.11 6.04062C34.8343 6.04062 34.7193 5.95851 34.7308 6.74439Z" fill="#FFB536"/>
<path d="M40.8124 42.4138C40.1226 42.4138 40.1226 42.4138 40.1226 41.6514C40.1226 41.0063 40.1226 41.0063 40.9159 41.0063C41.5022 41.0063 41.5022 41.0063 41.5022 41.8274C41.4907 42.5194 41.5827 42.4021 40.8124 42.4138Z" fill="#FFB536"/>
<path d="M42.4106 41.7101C42.4106 41.0063 42.4106 41.0063 43.158 41.0063C43.7903 41.0063 43.7903 41.0063 43.7903 41.8273C43.7903 42.4138 43.7903 42.4255 42.974 42.4138C42.3187 42.4138 42.4221 42.5194 42.4106 41.7101Z" fill="#FFB536"/>
<path d="M50.6542 2.5453C50.6427 3.30772 50.7462 3.21388 49.9529 3.21388C49.1711 3.21388 49.2746 3.33117 49.2746 2.48665C49.2746 1.68905 49.1826 1.81807 50.0564 1.81807C50.7462 1.80634 50.6427 1.7477 50.6542 2.5453Z" fill="#FFB536"/>
<path d="M52.2749 1.80631C52.6428 1.79458 52.9992 1.68902 52.9647 2.32241C52.9187 3.21385 52.9532 3.19039 52.1024 3.23731C51.654 3.26077 51.5391 3.10828 51.5506 2.66256C51.6081 1.66556 51.4701 1.82977 52.2749 1.80631Z" fill="#FFB536"/>
<path d="M29.2582 37.6164C28.4649 37.6047 28.5914 37.6985 28.5914 36.8657C28.5914 36.115 28.4879 36.1971 29.3502 36.2089C30.086 36.2089 29.971 36.1033 29.971 36.9947C29.9595 37.6985 30.0515 37.6047 29.2582 37.6164Z" fill="#FFB536"/>
<path d="M31.6033 36.1971C32.3621 36.2088 32.2586 36.1032 32.2586 36.9595C32.2586 37.7102 32.3506 37.6046 31.4998 37.6046C30.7755 37.6046 30.8905 37.675 30.8905 36.7953C30.879 36.115 30.8215 36.2088 31.6033 36.1971Z" fill="#FFB536"/>
<path d="M33.8795 37.6165C33.0632 37.6047 33.1897 37.6986 33.1897 36.8423C33.1897 36.1151 33.1092 36.2089 33.9255 36.2089C34.6613 36.2089 34.5579 36.0916 34.5693 37.03C34.5693 37.6165 34.5693 37.6165 33.8795 37.6165Z" fill="#FFB536"/>
<path d="M20.1985 10.3571C20.1525 10.5213 20.0375 10.6034 19.9456 10.6972C19.2672 11.401 19.2672 11.401 18.5774 10.6855C18.3705 10.4744 18.3245 10.3454 18.5659 10.099C19.2902 9.37182 19.2787 9.36009 20.003 10.1342C20.072 10.2046 20.141 10.2867 20.1985 10.3571Z" fill="#FFB536"/>
<path d="M53.3674 47.513C53.3215 47.6772 53.2065 47.7593 53.1145 47.8531C52.4362 48.5569 52.4362 48.5569 51.7464 47.8414C51.5394 47.6303 51.4934 47.5012 51.7349 47.2549C52.4592 46.5277 52.4477 46.516 53.172 47.2901C53.241 47.3605 53.31 47.4426 53.3674 47.513Z" fill="#FFB536"/>
<path d="M9.63256 47.513C9.67855 47.6772 9.79352 47.7593 9.88549 47.8531C10.5638 48.5569 10.5638 48.5569 11.2536 47.8414C11.4606 47.6303 11.5066 47.5012 11.2651 47.2549C10.5408 46.5277 10.5523 46.516 9.82801 47.2901C9.75903 47.3605 9.69004 47.4426 9.63256 47.513Z" fill="#FFB536"/>
<path d="M17.6804 9.66511C17.508 9.64165 17.439 9.51263 17.347 9.4188C16.6572 8.73849 16.6687 8.75022 17.324 8.04645C17.5769 7.77667 17.7149 7.77667 17.9563 8.04645C18.6117 8.75022 18.6232 8.73849 17.9333 9.4188C17.8529 9.5009 17.7609 9.58301 17.6804 9.66511Z" fill="#FFB536"/>
<path d="M50.8494 46.821C50.6769 46.7975 50.6079 46.6685 50.5159 46.5747C49.8261 45.8944 49.8376 45.9061 50.4929 45.2023C50.7459 44.9326 50.8838 44.9326 51.1253 45.2023C51.7806 45.9061 51.7921 45.8944 51.1023 46.5747C51.0218 46.6568 50.9298 46.7389 50.8494 46.821Z" fill="#FFB536"/>
<path d="M12.1506 46.821C12.3231 46.7975 12.3921 46.6685 12.4841 46.5747C13.1739 45.8944 13.1624 45.9061 12.5071 45.2023C12.2541 44.9326 12.1162 44.9326 11.8747 45.2023C11.2194 45.9061 11.2079 45.8944 11.8977 46.5747C11.9782 46.6568 12.0702 46.7389 12.1506 46.821Z" fill="#FFB536"/>
<path d="M48.5 48.5V42.5V40L62 53.5V57H55.5L42 48.5H48.5Z" stroke="#FFB536" stroke-width="1.2"/>
<path d="M14.5 48.5V42.5V40L1 53.5V57H7.5L21 48.5H14.5Z" stroke="#FFB536" stroke-width="1.2"/>
</svg>
