<svg width="52" height="48" fill="none" xmlns="http://www.w3.org/2000/svg"><path d="M45.526 12.97c-1.573-.01-3.157-.01-4.73-.02-1.195 0-2.399-.01-3.593.01a.924.924 0 0 1-.645-.242 342.725 342.725 0 0 0-3.403-2.834c-.2-.164-.332-.338-.285-.609.048-.261-.075-.329-.322-.319a25.1 25.1 0 0 1-1.706 0c-.237-.01-.36.058-.322.32.047.27-.048.367-.332.405-2.655.31-5.31.648-7.964.977-.094.01-.199-.02-.284.078.038.154.161.222.256.319 2.294 2.34 4.57 4.69 6.882 7.012.986.996 1.45 2.166 1.442 3.559-.01.986-.01 1.982 0 2.97 0 .24-.057.367-.313.328-.076-.01-.152 0-.228 0-.56 0-.56 0-.635-.57-.882.84-1.905 1.334-3.1 1.334-1.185 0-2.209-.445-3.053-1.306-.123.058-.075.165-.075.242 0 2.215 0 4.43-.01 6.645 0 .26.057.357.332.357 1.877-.01 3.764-.01 5.64 0 .247 0 .323-.077.313-.329-.01-1.605 0-3.22-.019-4.826 0-.329.095-.406.408-.396.74.02.74.01.74.745 0 1.47.009 2.93 0 4.4 0 .32.066.416.388.416 2.01-.02 4.01 0 6.02-.01.256 0 .455.058.626.261.18.213.37.436.587.6.73.542.958 1.238.892 2.157-.086 1.238-.029 2.495-.02 3.743 0 .29-.075.367-.36.367-8.276-.01-16.552-.01-24.828 0-.303 0-.389-.096-.38-.396.02-.697.02-1.393.01-2.09 0-.212.067-.28.275-.29.863-.019.863-.028.863.852 0 .754 0 .754.74.754 7.356 0 14.713 0 22.06.01.37 0 .492-.068.483-.474-.038-.967-.019-1.934-.01-2.892 0-.251-.085-.416-.236-.61-.503-.667-1.138-.84-1.953-.84-6.513.038-13.017.019-19.53.009-.35 0-.644.058-.852.358a1.45 1.45 0 0 1-.294.3c-.332.251-.474.58-.408.996.038.28-.038.406-.36.396-.778-.019-.75-.01-.787-.783-.028-.493.123-.851.483-1.17.437-.387.768-.977 1.27-1.19.494-.213 1.138-.068 1.717-.068 1.564 0 3.128-.01 4.692 0 .285 0 .36-.077.351-.367-.01-2.573-.01-5.146 0-7.718a.873.873 0 0 0-.275-.677c-4.427-4.507-8.854-9.024-13.281-13.53-.36-.368-.711-.726-.986-1.161-.076-.175-.076-.262.113-.358.237-.116.455-.348.702-.358.275-.02.332.367.512.541 1.545 1.567 3.08 3.153 4.626 4.72 3.498 3.57 6.996 7.128 10.485 10.707.939.967 2.048 1.354 3.337.938 2.19-.706 2.986-3.56 1.166-5.397-2.436-2.466-4.854-4.952-7.28-7.428-2.55-2.601-5.11-5.203-7.651-7.814-.995-1.016-2.133-1.364-3.48-.89-1.288.445-2.19 1.905-2.009 3.278.038.3-.047.378-.303.426-.863.193-.863.203-.863-.725.01-3.24 3.384-5.349 6.19-3.85.484.261.977.213 1.47.252 3.507.251 7.025.483 10.532.716.237.019.37.058.294.328-.01.039-.01.078-.01.116-.047.764-.047.745-.815.697-3.166-.223-6.342-.435-9.508-.658-.038 0-.076 0-.114.01-.019.145.104.193.18.27 1.877 1.925 3.764 3.84 5.64 5.765a.526.526 0 0 0 .503.174c2.626-.329 5.252-.658 7.888-.977.275-.029.388-.097.388-.416a105.75 105.75 0 0 1 0-3.472c0-.27-.047-.387-.341-.396-.796-.03-1.583-.107-2.38-.155-.255-.01-.331-.116-.312-.377.038-.793.028-.803.787-.755 1.023.058 2.038.145 3.062.203.265.01.36.116.322.368-.047.3.076.367.35.358.55-.02 1.11-.02 1.67 0 .246.01.36-.058.322-.32-.048-.28.085-.444.293-.609a83.214 83.214 0 0 0 1.697-1.412c.142-.116.218-.145.36.02.598.696.598.686-.094 1.257-.37.31-.872.56-1.062.957-.19.397-.057.958-.057 1.451 0 1.141 0 2.292-.01 3.434 0 .212.067.357.228.483.939.774 1.877 1.557 2.816 2.34a.632.632 0 0 0 .445.175c2.2 0 4.39-.01 6.589 0 .284 0 .36-.107.322-.358-.066-.358.095-.445.417-.416.237.03.484.01.72.01-.028.657-.028 1.305-.028 1.944zM32.738 6.49c0-.339-.01-.668 0-1.006.01-.223-.038-.32-.285-.32-.55.02-1.109.02-1.668 0-.228-.009-.265.088-.265.29.009.678.009 1.365 0 2.051 0 .203.028.3.265.3.218 0 .294-.068.275-.29-.02-.194 0-.387 0-.58 0-.91 0-.9.91-.842.18.01.237.078.237.252-.01.396.01.802-.01 1.199-.009.213.076.261.266.251.17-.01.294-.01.284-.241-.019-.349-.01-.706-.01-1.064zM19.64 41c1.436-.023 2.626 1.129 2.672 2.595.046 1.412-1.152 2.67-2.58 2.694-1.48.038-2.755-1.167-2.732-2.618.023-1.604 1.282-2.67 2.64-2.67zm-1.38 2.633c0 .798.613 1.428 1.38 1.428.791 0 1.413-.614 1.413-1.405.008-.79-.622-1.435-1.382-1.428-.798.008-1.412.614-1.412 1.405zM32.64 41c1.436-.023 2.626 1.129 2.672 2.595.046 1.412-1.152 2.67-2.58 2.694-1.48.03-2.755-1.167-2.732-2.618.023-1.604 1.282-2.67 2.64-2.67zm-1.38 2.633c0 .798.613 1.428 1.38 1.428.791 0 1.413-.614 1.413-1.405.008-.79-.622-1.435-1.382-1.428-.798.008-1.412.614-1.412 1.405z" fill="#BBB"/><path d="M45.526 9.884c-.275 0-.559-.019-.834 0-.256.02-.35-.087-.303-.328.066-.378-.086-.494-.446-.455-.35.039-.71.03-1.061 0-.266-.02-.37.087-.332.348.066.377-.095.474-.455.464-1.29-.019-2.57-.019-3.859-.01a.883.883 0 0 1-.644-.241 41.257 41.257 0 0 0-1.555-1.296.53.53 0 0 1-.218-.455c.01-.947.01-1.905 0-2.853a.53.53 0 0 1 .218-.454c.36-.28.74-.552 1.052-.88.512-.552 1.11-.697 1.83-.658 1.071.048 2.142.02 3.214 0 .293 0 .426.048.417.396-.02.349-.171.823.066 1.035.228.203.673.058 1.024.058.74.01.74 0 .74-.725 0-.783-.01-1.567 0-2.35 0-.213-.058-.29-.276-.29-2.218.01-4.436.01-6.655 0-.265 0-.407.174-.578.319-.152.135-.246.155-.398-.03-.578-.686-.578-.667.104-1.247.19-.164.38-.213.617-.213 2.701.01 5.394 0 8.095 0 .076 0 .152-.01.228-.019v5.716c-1.26 0-2.522-.01-3.783.01-.265 0-.35-.078-.331-.349.019-.27-.01-.541.01-.812.009-.242-.058-.338-.323-.329-.664.02-1.337.039-2-.01-.57-.038-.987.165-1.432.513-.521.406-.673.842-.72 1.509-.076 1.035.208 1.77 1.09 2.292.19.116.35.213.578.213.777-.01 1.564-.03 2.341 0 .36.01.512-.087.456-.464-.029-.213 0-.358.284-.349 1.27.02 2.55.01 3.82.02.02.638.02 1.276.02 1.924zM28.67 21.239c0 1.431-1.146 2.611-2.54 2.592-1.384-.02-2.53-1.18-2.53-2.582 0-1.432 1.146-2.592 2.55-2.592 1.383 0 2.512 1.16 2.52 2.582zm-1.97-.02c0 .349.009.697 0 1.035-.01.262.094.242.265.126.739-.503.748-1.77 0-2.282-.057-.039-.143-.097-.2-.087-.104.029-.066.155-.066.232v.977zm-1.139-1.237c-.948.503-1.07 1.78-.284 2.37.066.048.133.135.228.106.076-.02.056-.107.056-.165v-2.311zM13.598 5.861c0 1.431-1.147 2.611-2.54 2.592-1.394-.01-2.523-1.17-2.532-2.582-.01-1.412 1.166-2.602 2.55-2.592a2.561 2.561 0 0 1 2.522 2.582zm-2.133-1.354c-.512-.135-.996-.048-1.384.358-.389.406-.512.89-.342 1.402.579-.58 1.147-1.17 1.726-1.76zm.948 1.016c-.55.57-1.119 1.15-1.678 1.721.512.116 1.005.01 1.403-.464.332-.397.398-.851.275-1.258zM17.332 33.6c.436 0 .882.01 1.318 0 .218-.01.313.048.304.3-.01.928-.02 1.846 0 2.775 0 .252-.095.3-.313.3a79.99 79.99 0 0 0-2.683.01c-.266 0-.313-.107-.313-.339.01-.9.019-1.799 0-2.698 0-.28.095-.349.35-.339.456 0 .892-.01 1.338-.01zm.01 1.16c-.246.02-.588-.135-.55.387.038.638.01.648.474.638.256 0 .588.136.55-.387-.038-.715.066-.619-.474-.638zm2.152.464c0-.445.01-.9 0-1.344-.009-.223.067-.29.285-.29.92.01 1.839.01 2.759 0 .199 0 .265.067.265.27-.01.939 0 1.877 0 2.815 0 .213-.076.29-.284.29-.92-.01-1.84-.01-2.76 0-.198 0-.265-.068-.255-.27 0-.494-.01-.978-.01-1.47zm1.584-.464c-.304-.068-.484.02-.455.464.047.61-.086.561.492.57.531 0 .531 0 .531-.483 0-.638.048-.541-.568-.551zm-3.68-25.63c.057.058.124.097.171.155 1.934 1.973 3.868 3.946 5.802 5.91.133.135.161.212.019.367-.607.677-.607.677-1.242.029-1.668-1.702-3.328-3.405-4.996-5.097-.56-.57-.56-.57.019-1.141.066-.078.142-.146.227-.223zm27.351 30.637c.056.058.123.097.17.155 1.934 1.973 3.194 3.069 5.128 5.032.133.136.162.213.02.368-.608.677-.608.677-1.243.029-1.668-1.702-2.653-2.527-4.322-4.22-.56-.57-.56-.57.02-1.141.065-.078.141-.145.227-.223zm-37.199 0c-.058.058-.124.097-.171.155-1.934 1.973-3.195 3.069-5.128 5.032-.133.136-.162.213-.02.368.607.677.607.677 1.242.029 1.669-1.702 2.654-2.527 4.323-4.22.56-.57.56-.57-.02-1.141-.066-.078-.141-.145-.227-.223zM21.835 6.142c-.957 0-1.915-.01-2.872 0-.247 0-.322-.068-.322-.33 0-.85-.01-.85.834-.85 1.725 0 3.45.01 5.185 0 .294 0 .39.087.38.386-.02.784 0 .784-.778.784-.815.01-1.62.01-2.427.01zm7.888 28.831c-.806 0-1.612-.01-2.418.01-.255 0-.312-.078-.312-.33 0-.84-.01-.84.796-.84 1.45 0 2.9.009 4.351-.01.304 0 .389.077.38.386-.02.784 0 .784-.778.784-.682.01-1.355.01-2.02 0 0 .01 0 0 0 0zM19.475 16.142c.028.02.076.048.104.077l2.323 2.37c.047.048.133.116.066.193-.227.242-.455.484-.692.706-.066.068-.132-.038-.18-.087a521.404 521.404 0 0 1-2.266-2.32.587.587 0 0 1-.113-.155c-.029-.059.663-.784.758-.784zm21.067 24.833c.032.013.084.031.118.054l2.768 1.83c.056.037.154.085.105.175-.171.284-.343.568-.528.836-.05.08-.138-.01-.195-.048-.903-.598-1.807-1.195-2.702-1.795a.59.59 0 0 1-.143-.127c-.04-.05.484-.905.577-.925zm-28.786 0c-.032.013-.085.031-.119.054l-2.767 1.83c-.057.037-.154.085-.106.175.172.284.344.568.53.836.05.08.137-.01.193-.048.904-.598 1.808-1.195 2.702-1.795a.59.59 0 0 0 .144-.127c.04-.05-.485-.905-.577-.925zM35.373 8.26c.076.058.124.096.171.135.702.58 1.403 1.17 2.105 1.75.16.126.19.213.056.397-.53.706-.53.716-1.203.145-.55-.464-1.11-.928-1.669-1.383-.152-.116-.19-.213-.047-.367.151-.165.284-.358.436-.532.047-.049.104-.097.151-.145zm-.833 28.695c-.418 0-.835-.01-1.252 0-.247.01-.351-.048-.351-.338 0-.832-.01-.832.806-.832.663 0 1.337.01 2-.01.265-.01.38.049.38.358 0 .813.009.813-.787.813-.266.01-.531.01-.797.01z" fill="#BBB"/><path d="M38.862 2.65h-.863c-.095 0-.237.03-.246-.097-.02-.319-.01-.638 0-.957.01-.116.132-.097.218-.097h1.848c.086 0 .209-.01.209.106.019.32.019.639 0 .958-.01.126-.161.097-.256.097-.303-.01-.607-.01-.91-.01zM26.917 5.552c0 .59 0 .58-.777.59-.655.01-.323-.484-.351-.745-.038-.474-.123-.397.72-.445.54-.02.389.32.408.6zm1.896.009c0 .58 0 .58-.588.58-.55 0-.55 0-.55-.657 0-.57-.094-.503.626-.503.597 0 .503-.068.512.58zm5.015 29.412c-.57 0-.57 0-.57-.629 0-.532 0-.532.655-.532.483 0 .483 0 .483.677-.01.57.067.474-.568.484zm1.317-.581c0-.58 0-.58.617-.58.521 0 .521 0 .521.677 0 .484 0 .494-.673.484-.54 0-.455.087-.465-.58zm6.798-32.293c-.01.628.076.551-.578.551-.645 0-.56.097-.56-.6 0-.657-.075-.55.645-.55.569-.01.484-.059.493.599zm1.337-.609c.303-.01.597-.097.568.425-.038.735-.01.716-.71.754-.37.02-.465-.106-.456-.474.048-.822-.066-.686.597-.706zM24.3 31.017c-.654-.01-.55.068-.55-.619 0-.619-.085-.551.626-.542.607 0 .512-.087.512.648-.01.58.067.503-.587.513zm1.934-1.17c.626.01.54-.078.54.628 0 .62.077.532-.625.532-.597 0-.502.058-.502-.667-.01-.561-.057-.484.587-.493zm1.877 1.17c-.673-.01-.569.068-.569-.638 0-.6-.066-.523.607-.523.607 0 .522-.096.531.677 0 .484 0 .484-.569.484zM16.83 8.54c-.038.135-.132.203-.208.28-.56.58-.56.58-1.128-.01-.171-.173-.209-.28-.01-.483.597-.6.588-.609 1.185.03.057.057.114.125.161.183zm27.35 30.637c-.038.136-.132.203-.208.28-.56.581-.56.581-1.128-.009-.171-.174-.209-.28-.01-.483.597-.6.588-.61 1.185.029.057.058.114.125.161.183zm-36.062 0c.038.136.133.203.209.28.559.581.559.581 1.128-.009.17-.174.208-.28.01-.483-.598-.6-.589-.61-1.186.029a2.77 2.77 0 0 0-.161.183zM14.754 7.97c-.142-.02-.199-.126-.275-.204-.569-.56-.56-.55-.019-1.131.209-.223.322-.223.522 0 .54.58.55.57-.02 1.131-.066.068-.142.136-.208.203zm27.35 30.637c-.142-.02-.2-.126-.275-.203-.57-.561-.56-.552-.02-1.132.21-.222.323-.222.522 0 .54.58.55.57-.019 1.132-.066.067-.142.135-.208.203zm-31.91 0c.142-.02.2-.126.275-.203.569-.561.56-.552.02-1.132-.21-.222-.323-.222-.522 0-.54.58-.55.57.019 1.132.066.067.142.135.208.203z" fill="#BBB"/><path d="M40.167 39.991v-7.008l11.131 11.131V47h-5.36l-11.13-7.009h5.359zm-28.035 0v-7.008L1 44.114V47h5.36l11.131-7.009h-5.36z" stroke="#BBB" stroke-width="1.2"/></svg>