<svg width="52" height="27" fill="none" xmlns="http://www.w3.org/2000/svg"><path d="M19.64 20c1.436-.023 2.626 1.129 2.672 2.595.046 1.412-1.152 2.67-2.58 2.694-1.48.038-2.755-1.167-2.732-2.618.023-1.604 1.282-2.67 2.64-2.67zm-1.38 2.633c0 .798.613 1.428 1.38 1.428.791 0 1.413-.614 1.413-1.405.008-.79-.622-1.435-1.382-1.428-.798.008-1.412.614-1.412 1.405zM32.64 20c1.436-.023 2.626 1.129 2.672 2.595.046 1.412-1.152 2.67-2.58 2.694-1.48.03-2.755-1.167-2.732-2.618.023-1.604 1.282-2.67 2.64-2.67zm-1.38 2.633c0 .798.613 1.428 1.38 1.428.791 0 1.413-.614 1.413-1.405.008-.79-.622-1.435-1.382-1.428-.798.008-1.412.614-1.412 1.405zM28 3.997c0 .98-.802 1.789-1.776 1.775-.967-.013-1.769-.808-1.769-1.769 0-.98.802-1.776 1.783-1.776.967 0 1.756.796 1.762 1.77zm-1.378-.014c0 .239.006.477 0 .71-.007.178.066.165.185.085.517-.344.524-1.212 0-1.563-.04-.027-.099-.067-.139-.06-.073.02-.046.106-.046.16v.668zm-.795-.848c-.663.345-.749 1.22-.2 1.624.047.033.094.092.16.072.053-.013.04-.072.04-.112V3.135z" fill="#BBB"/><path d="M22.5 4c0-1 .7-3 3.5-3s3.833 2 4 3" stroke="#BBB"/><path d="M17.332 12.6c.436 0 .882.01 1.318 0 .218-.01.313.048.304.3-.01.928-.02 1.846 0 2.775 0 .252-.095.3-.313.3a79.99 79.99 0 0 0-2.683.01c-.266 0-.313-.107-.313-.339.01-.9.019-1.799 0-2.698 0-.28.095-.349.35-.339.456 0 .892-.01 1.338-.01zm.01 1.16c-.246.02-.588-.135-.55.387.038.638.01.648.474.638.256 0 .588.136.55-.387-.038-.715.066-.619-.474-.638zm2.152.464c0-.445.01-.9 0-1.344-.009-.223.067-.29.285-.29.92.01 1.839.01 2.759 0 .199 0 .265.067.265.27-.01.939 0 1.877 0 2.815 0 .213-.076.29-.284.29-.92-.01-1.84-.01-2.76 0-.198 0-.265-.068-.255-.27 0-.494-.01-.978-.01-1.47zm1.584-.464c-.304-.068-.484.02-.455.464.047.61-.086.561.492.57.531 0 .531 0 .531-.483 0-.638.048-.541-.568-.551zm23.671 5.007c.056.058.123.097.17.155 1.934 1.973 3.194 3.069 5.128 5.032.133.136.162.213.02.368-.608.677-.608.677-1.243.029-1.668-1.702-2.653-2.527-4.322-4.22-.56-.57-.56-.57.02-1.141.065-.078.141-.145.227-.223zm-37.199 0c-.058.058-.124.097-.171.155-1.934 1.973-3.195 3.069-5.128 5.032-.133.136-.162.213-.02.368.607.677.607.677 1.242.029 1.669-1.702 2.654-2.527 4.323-4.22.56-.57.56-.57-.02-1.141-.066-.078-.141-.145-.227-.223zm22.173-4.794c-.806 0-1.612-.01-2.418.01-.255 0-.312-.078-.312-.33 0-.84-.01-.84.796-.84 1.45 0 2.9.009 4.351-.01.304 0 .389.077.38.386-.02.784 0 .784-.778.784-.682.01-1.355.01-2.02 0 0 .01 0 0 0 0zm10.819 6.002c.032.013.084.031.118.054l2.768 1.83c.056.037.154.085.105.175-.171.284-.343.568-.528.835-.05.08-.138-.01-.195-.047-.903-.598-1.807-1.195-2.702-1.795a.59.59 0 0 1-.143-.127c-.04-.05.484-.905.577-.925zm-28.786 0c-.032.013-.085.031-.119.054l-2.767 1.83c-.057.037-.154.085-.106.175.172.284.344.568.53.835.05.08.137-.01.193-.047.904-.598 1.808-1.195 2.702-1.795a.59.59 0 0 0 .144-.127c.04-.05-.485-.905-.577-.925zm22.784-4.02c-.418 0-.835-.01-1.252 0-.247.01-.351-.048-.351-.338 0-.832-.01-.832.806-.832.663 0 1.337.01 2-.01.265-.01.38.049.38.358 0 .813.009.813-.787.813-.266.01-.531.01-.797.01zm-.712-1.982c-.57 0-.57 0-.57-.629 0-.532 0-.532.655-.532.483 0 .483 0 .483.677-.01.57.067.474-.568.484zm1.317-.58c0-.58 0-.58.617-.58.521 0 .521 0 .521.676 0 .484 0 .493-.673.484-.54 0-.455.087-.465-.58zM24.3 10.017c-.654-.01-.55.068-.55-.619 0-.619-.085-.551.626-.542.607 0 .512-.087.512.648-.01.58.067.503-.587.513zm1.934-1.17c.626.01.54-.078.54.628 0 .62.077.532-.625.532-.597 0-.502.058-.502-.667-.01-.561-.057-.484.587-.493zm1.877 1.17c-.673-.01-.569.068-.569-.638 0-.6-.066-.522.607-.522.607 0 .522-.097.531.677 0 .483 0 .483-.569.483zm16.069 8.16c-.038.136-.132.204-.208.28-.56.581-.56.581-1.128-.009-.171-.174-.209-.28-.01-.483.597-.6.588-.61 1.185.029.057.058.114.125.161.183zm-36.062 0c.038.136.133.204.209.28.559.581.559.581 1.128-.009.17-.174.208-.28.01-.483-.598-.6-.589-.61-1.186.029a2.77 2.77 0 0 0-.161.183zm33.986-.57c-.142-.02-.2-.126-.275-.203-.57-.561-.56-.552-.02-1.132.21-.222.323-.222.522 0 .54.58.55.57-.019 1.132-.066.067-.142.135-.208.203zm-31.91 0c.142-.02.2-.126.275-.203.569-.561.56-.552.02-1.132-.21-.222-.323-.222-.522 0-.54.58-.55.57.019 1.132.066.067.142.135.208.203z" fill="#BBB"/><path d="M40.167 18.991v-7.009l11.131 11.132V26h-5.36l-11.13-7.009h5.359zm-28.035 0v-7.009L1 23.114V26h5.36l11.131-7.009h-5.36z" stroke="#BBB" stroke-width="1.2"/><path fill-rule="evenodd" clip-rule="evenodd" d="M21.953 5c-.002 1.753 0 3.506.006 5.259.01.29-.067.367-.35.367l-.475-.002-.67-.002H19.21l-.73.002-1.564.002c-.166 0-.338-.012-.51-.024-.426-.03-.854-.06-1.205.092-.322.136-.573.426-.827.719l-.1.114-.08.09a3.362 3.362 0 0 1-.264.267c-.36.319-.512.677-.483 1.17l.003.076c.016.339.024.51.115.6.093.093.274.098.643.107h.026c.322.01.398-.116.36-.396-.066-.416.076-.745.407-.996.114-.087.209-.184.294-.3.209-.3.503-.358.854-.358l2.796.004c5.578.01 11.152.02 16.733-.014.815 0 1.45.174 1.952.842.152.193.238.358.238.609-.01.957-.03 1.925.009 2.892.01.406-.114.474-.483.474-7.348-.01-14.704-.01-22.06-.01-.368 0-.553 0-.646-.092-.094-.094-.094-.283-.094-.662 0-.442 0-.66-.11-.764-.105-.102-.314-.097-.725-.088h-.028c-.208.01-.274.078-.274.29.009.697.009 1.393-.01 2.09-.01.3.076.396.38.396 8.275-.01 16.551-.01 24.827 0 .284 0 .36-.077.36-.367-.002-.31-.007-.62-.013-.93-.016-.94-.032-1.882.033-2.813.066-.919-.162-1.615-.892-2.157-.218-.164-.407-.387-.587-.6-.171-.203-.37-.26-.626-.26-.862.003-1.722.002-2.58.001h-.005c-1.144-.001-2.288-.003-3.435.008-.322 0-.389-.097-.389-.416.006-.928.004-1.852.002-2.777v-.155L30.52 5.82c0-.366 0-.547-.09-.64-.09-.09-.267-.095-.621-.104l-.028-.001c-.313-.01-.408.068-.408.396.01.81.012 1.624.014 2.437v.434l.002 1.061.003.894c.01.252-.066.33-.313.33a550.893 550.893 0 0 0-5.161-.003l-.48.002c-.274 0-.331-.096-.331-.357.008-1.757.01-3.513.01-5.269h-1.163z" fill="#BBB"/></svg>