<svg width="65" height="79" fill="none" xmlns="http://www.w3.org/2000/svg"><path d="M32.246 18.134c2.287 0 4.556.018 6.842-.017.537 0 .762.121.745.71-.017 4.33-.017 8.66-.017 12.973 0 .485-.087.901-.52 1.213-.19.121-.364.294-.485.485-1.403 2.044-3.343 2.633-5.75 2.373-1.507-.174-3.049-.035-4.59-.018-.416 0-.728-.104-.988-.415-.017-.018-.034-.035-.052-.07-.935-.935-2.217-1.732-2.702-2.875-.467-1.091-.155-2.546-.155-3.845-.018-1.299.034-2.598-.018-3.897-.017-.624.208-.78.797-.762 2.892.017 5.768.017 8.66.017.295 0 .572 0 .866-.017.624-.035 1.091-.347 1.074-1.005-.017-.658-.485-.935-1.126-.935h-5.542c-1.351 0-2.72-.017-4.07.017-.503.018-.659-.156-.642-.64.035-.867.052-1.733 0-2.599-.034-.606.226-.71.763-.71 2.303.035 4.607.017 6.91.017zM43.071.017c2.044 0 4.105-.017 6.149 0 2.217.018 3.62 1.403 3.62 3.62.017 1.94 0 3.863 0 5.803 0 1.524-.693 2.65-2.079 3.187a250.168 250.168 0 0 1-9.3 3.516c-.642.225-1.42.034-2.131.034-.866 0-1.732.018-2.598 0-.295 0-.797.19-.762-.398.017-.468-.277-1.022.485-1.282 2.407-.866 4.797-1.801 7.205-2.702 1.646-.623 3.274-1.264 4.936-1.87.676-.243.953-.659.936-1.369-.035-1.264 0-2.546-.018-3.81 0-1.091-.294-1.386-1.403-1.386-3.758 0-7.5-.017-11.258.018-.693 0-.987-.14-.918-.884a8.714 8.714 0 0 0 0-1.645C35.848.12 36.16 0 36.818 0c2.096.035 4.175.017 6.253.017zm-21.719 0c2.13 0 4.278.018 6.408-.017.52 0 .728.139.693.676-.07.848.346 1.957-.156 2.511-.467.52-1.576.139-2.407.156-3.153.017-6.288 0-9.44 0-1.316 0-1.559.26-1.559 1.576 0 1.16.035 2.304-.017 3.464-.035.866.312 1.317 1.108 1.611 3.915 1.455 7.83 2.944 11.726 4.417.33.12.71.138.745.675.07 1.005.017 1.074-.97 1.091-1.386.035-2.771-.069-4.157.052-.242.018-.502-.104-.745-.19-2.753-1.022-5.49-2.079-8.261-3.1-1.75-.641-2.893-1.75-2.789-4.054.087-1.732 0-3.464.017-5.196.018-2.286 1.403-3.654 3.742-3.672h6.062zm9.543 58.145c1.334.884 1.334.884 2.512.052.19.26.086.555.086.832.017 2.563.035 5.127 0 7.707-.017.728.156 1.3.814 1.663 1.091.572 1.42 1.455 1.369 2.685-.104 2.355-.052 4.728-.018 7.101 0 .59-.138.814-.762.797a138.488 138.488 0 0 0-5.37 0c-.623.017-.779-.19-.779-.78a292.64 292.64 0 0 0 0-7.794c-.017-.675.139-1.195.728-1.507 1.247-.658 1.524-1.68 1.455-3.013-.104-2.13-.035-4.261-.035-6.409v-1.334zm4.001-12.21c0 2.372-.017 4.728.017 7.1 0 .607-.173 1.04-.606 1.438a32.023 32.023 0 0 0-1.714 1.715c-.278.295-.485.312-.78 0a73.652 73.652 0 0 0-2.009-2.026c-.26-.243-.294-.537-.294-.866 0-4.971.017-9.925-.018-14.896 0-.554.19-.675.71-.658 1.334.035 2.65.07 3.984.017.589-.017.727.156.727.71-.034 2.512-.017 4.989-.017 7.466zM34.03 8.054c0 2.46-.017 4.902.017 7.361 0 .606-.19.814-.796.78a19.51 19.51 0 0 0-2.252 0c-.433.017-.623-.104-.623-.59.017-4.988.017-9.976 0-14.964 0-.503.173-.641.658-.624.78.035 1.559.052 2.338 0 .572-.034.658.208.658.71a517.143 517.143 0 0 0 0 7.327zM20.433 72.885c-.727-.607-1.35-1.109-1.957-1.611-2.633-2.2-5.248-4.417-7.88-6.6-.538-.432-.451-.605.068-.952 1.386-.883 2.737-1.819 4.105-2.72.312-.207.537-.398.762.14 1.611 3.758 3.24 7.5 4.868 11.258.034.104.017.225.034.485zm23.591-.156c-.139-.277.052-.468.138-.658 1.524-3.55 3.066-7.084 4.59-10.635.26-.589.45-.797 1.057-.346 1.333.952 2.719 1.853 4.087 2.753.33.208.503.347.087.676-3.256 2.702-6.495 5.439-9.752 8.158-.034.035-.138.035-.207.052zm-31.09 3.758c-2.096.71-3.984 1.351-6.01 2.027.19-1.316.363-2.512.519-3.707.035-.26.156-.346.416-.242 1.628.606 3.256 1.23 5.075 1.922zM43.73 25.479c1.888 0 1.957.103 1.732 2.026-.035.277-.139.416-.416.416h-2.84c-.278 0-.434-.104-.434-.399v-1.628c0-.363.208-.415.503-.415h1.455zM55.04 76.92c.156.555-.19.832-.71 1.023-.208.069-.416.173-.641.277-.987.45-1.455.207-1.698-.866-.069-.295.087-.364.278-.433.762-.278 1.506-.555 2.269-.797.502-.156.502-.139.502.797zm7.586-14.358c.52.416 1.144.78 1.577 1.299.207.242-.33.52-.52.797-.173.26-.381.155-.572-.018-.346-.311-.71-.606-1.056-.9-.156-.139-.33-.295-.121-.503.19-.225.311-.554.692-.675zM1.9 62.596c.174.191.382.416.572.659.19.242-.035.38-.173.502-.312.294-.64.572-.97.849-.173.156-.346.363-.572.086-.207-.26-.52-.467-.554-.848 0-.087 1.507-1.248 1.698-1.248z" fill="#939393"/></svg>