<svg width="122" height="79" fill="none" xmlns="http://www.w3.org/2000/svg"><path d="M81.3 78h20.8a1.3 1.3 0 0 0 1.3-1.3V66.3a1.3 1.3 0 0 0-1.3-1.3H81.3c-.719 0-1.3.581-1.3 1.3v10.4a1.3 1.3 0 0 0 1.3 1.3zm1.3-10.4h18.2v7.8H82.6v-7.8zm37.46-.842l-8.49-6.007a1.3 1.3 0 0 0-1.812.31l-6.007 8.49a1.3 1.3 0 0 0 .31 1.812l8.49 6.007a1.3 1.3 0 0 0 1.812-.31l6.007-8.49a1.3 1.3 0 0 0-.31-1.812zm-7.068 7.739l-6.367-4.506 4.505-6.367 6.367 4.506-4.505 6.367zM66.3 65h-9.625a36.06 36.06 0 0 0-.558-2.6H61.1c.719 0 1.3-.581 1.3-1.3V50.7a1.3 1.3 0 0 0-1.3-1.3H49.297a33.68 33.68 0 0 0-2.497-2.6h9.1a1.3 1.3 0 0 0 1.3-1.3V35.1a1.3 1.3 0 0 0-1.3-1.3H35.1a1.3 1.3 0 0 0-1.3 1.3v4.197l-1.083-.423a1.295 1.295 0 0 1-.73-1.687c.023-.046.045-.103.068-.148l1.62-2.988a26.7 26.7 0 0 0 1.3-2.84h15.714a1.3 1.3 0 0 0 1.3-1.3V19.5a1.3 1.3 0 0 0-1.3-1.3h-14.3a25.24 25.24 0 0 0-.57-2.6H44.2a1.3 1.3 0 0 0 1.3-1.3V3.9a1.3 1.3 0 0 0-1.3-1.3H26.992A14.334 14.334 0 0 0 18.804 0H1.3A1.3 1.3 0 0 0 0 1.3v75.4A1.3 1.3 0 0 0 1.3 78h65a1.3 1.3 0 0 0 1.3-1.3V66.3a1.3 1.3 0 0 0-1.3-1.3zm-6.5-13v7.8h-4.447a34.596 34.596 0 0 0-.981-2.406c-.103-.24-.228-.479-.342-.707a25.6 25.6 0 0 0-.855-1.665c-.126-.24-.263-.49-.411-.73a29.301 29.301 0 0 0-1.129-1.79c-.091-.126-.17-.274-.262-.41-.023-.035-.034-.058-.057-.092H59.8zM36.4 40.311V36.4h18.2v7.8H43.618c-.262-.194-.535-.365-.81-.547-.239-.16-.467-.32-.706-.48-.365-.227-.73-.444-1.106-.66-.217-.126-.445-.263-.662-.389a20.06 20.06 0 0 0-1.311-.66 7.449 7.449 0 0 0-.525-.263 38.889 38.889 0 0 0-1.893-.821l-.205-.069zm13-19.511v7.8H35.864l.069-.285c.114-.445.216-.901.307-1.346.035-.148.057-.296.092-.433.102-.57.194-1.14.25-1.722.012-.103.012-.205.023-.308.046-.49.08-.97.092-1.46.01-.17.01-.33.01-.501.012-.536 0-1.061-.022-1.597v-.137L49.4 20.8zM42.9 5.2V13h-7.96c-.023-.069-.068-.137-.09-.205a28.172 28.172 0 0 0-.856-1.882 1.226 1.226 0 0 1-.091-.171 29.347 29.347 0 0 0-.947-1.642l-.273-.445c-.377-.57-.765-1.14-1.187-1.676-.034-.046-.068-.08-.102-.125-.4-.502-.81-.981-1.243-1.449-.069-.068-.114-.148-.183-.216L42.9 5.2zM2.6 2.6h16.193c2.543 0 5.018.833 7.047 2.36.194.137.388.286.57.445a.97.97 0 0 0 .115.103 22.483 22.483 0 0 1 6.294 9.225c.57 1.586.958 3.227 1.152 4.904.376 3.318 0 6.682-1.106 9.83a20.998 20.998 0 0 1-1.471 3.318l-1.62 2.988a3.898 3.898 0 0 0 1.54 5.291c.148.08.296.148.445.205l3.889 1.517c.604.24 1.197.49 1.778.764a30.193 30.193 0 0 1 4.995 2.965 29.561 29.561 0 0 1 5.28 4.983 30.26 30.26 0 0 1 5.2 9.157c.103.274.182.536.274.81.524 1.62.9 3.284 1.128 4.983a29.16 29.16 0 0 1 .286 4.117v4.812h-52V2.6H2.6zM65 75.4h-7.8v-4.812c0-.89-.046-1.78-.125-2.692-.012-.102 0-.205-.012-.308H65V75.4z" fill="#939393"/></svg>