<svg width="79" height="79" fill="none" xmlns="http://www.w3.org/2000/svg"><path d="M77.57 0H54.749a1.43 1.43 0 0 0 0 2.859h6.285v12.37H33.375V2.858h16.608a1.43 1.43 0 0 0 0-2.859H1.43C.64 0 0 .64 0 1.43v76.14C0 78.36.64 79 1.43 79h76.14c.79 0 1.43-.64 1.43-1.43V1.43C79 .64 78.36 0 77.57 0zM48.485 18.087H76.14v12.37H57.606a1.43 1.43 0 0 0 0 2.858h3.427v12.37H33.375v-12.37h19.467a1.43 1.43 0 0 0 0-2.858h-4.358v-12.37zM76.14 48.543v12.37H48.483v-12.37h27.658zM45.625 18.087v12.37H17.967v-12.37h27.658zM2.859 2.86h27.657v12.37H2.86V2.858zm0 15.228h12.25v12.37H2.858v-12.37zm0 15.229h27.657v12.369H2.86v-12.37zm0 15.227h12.25v12.37H2.858v-12.37zm27.657 27.598H2.86v-12.37h20.63a1.43 1.43 0 0 0 0-2.858h-5.524v-12.37h27.658v12.37h-17.37a1.43 1.43 0 0 0 0 2.859h2.261V76.14zm30.517 0H33.375v-12.37h27.658v12.37zm15.108 0h-12.25v-12.37h12.25v12.37zm0-30.457h-12.25V33.316h12.25v12.37zm0-30.456h-12.25V2.858h12.25v12.37z" fill="#939393"/></svg>