<svg width="131" height="59" fill="none" xmlns="http://www.w3.org/2000/svg"><path d="M76.843 35.766c1.088-2.103 2.212-3.735 4.46-4.605 7.035-2.756 13.962-5.693 20.924-8.63.943-.4 1.632-.327 2.466.217a397.95 397.95 0 0 1 16.427 11.278c3.083 2.248 5.658 5.113 8.486 7.615.508.471.508.834.109 1.378-1.523 2.03-2.974 4.062-5.403 5.186-2.14.979-4.171 2.212-6.129 3.481-1.378.87-2.683 1.088-4.243.798a135.838 135.838 0 0 0-8.558-1.45c-1.269-.182-1.994-.726-1.994-2.031-.037-1.669-.871-1.777-2.249-1.451-2.466.617-4.968 1.088-7.434 1.596-2.14.471-3.735-.29-4.714-2.249a350.326 350.326 0 0 1-3.953-8.34c-.435-1.016-1.088-1.45-2.14-1.632-2.066-.327-3.988-.762-6.055-1.16zm12.221-16.318c-3.518-1.088-6.999-2.212-10.516-3.264-2.285-.725-3.337-.145-4.098 2.176-.762 2.357-1.523 4.714-2.212 7.071-.254.87-.617 1.197-1.523.69-.907-.472-1.922-.726-2.829-1.197-1.051-.544-1.45-.182-1.813.797-1.052 2.756-2.212 5.44-3.518 8.595-.544-1.632-1.015-2.829-1.305-4.098-.218-.979-.69-1.088-1.56-.834-5.113 1.596-10.226 3.228-15.375 4.787-.907.29-1.124.689-.798 1.56.363.978.616 2.03 1.015 3.335-2.32-.47-4.351-.87-6.382-1.305-1.487-.326-3.191-1.088-3.082 1.813-.508-.399-.834-.616-1.052-.87-2.61-3.228-5.838-4.86-10.081-4.17-.435.072-.943.108-1.415-.436 3.482-2.103 6.927-4.17 10.408-6.237 3.119-1.85 6.201-3.735 9.356-5.548 1.233-.726 1.85-1.958 2.43-3.083 1.994-3.952 4.86-5.475 9.428-5.475 9.284-.037 18.567-.835 27.742-2.539.58-.109 1.015-.036 1.414.472a1088.45 1088.45 0 0 0 6.02 7.47c-.109.109-.181.217-.254.29z" fill="#939393"/><path d="M21.36 35.694c.979 0 1.958.109 2.901-.036 3.59-.508 6.31.761 8.703 3.48 1.922 2.177 4.243 3.954 6.346 5.948.69.653 1.45 1.016 2.357 1.197 3.3.761 6.564 1.632 9.864 2.285 1.342.253 1.813.906 1.886 2.139.036.617.109 1.197.181 1.813.254 2.575.254 2.611-2.285 2.43-3.3-.218-6.636-.435-9.936-.69-.616-.035-1.378.11-1.341-.942 0-.58-.58-.508-.98-.58-4.532-1.052-9.065-2.067-13.598-3.119-.907-.218-1.342 0-1.487.943-.109.834-.363 1.632-.544 2.466-.653 2.974-2.103 3.916-5.186 3.336-3.916-.761-7.796-1.56-11.713-2.32-1.85-.363-3.662-.762-5.512-1.089-.907-.145-1.16-.471-.943-1.45.617-2.466 1.124-4.932 1.632-7.434.145-.725.58-1.124 1.16-1.523a591.667 591.667 0 0 0 9.937-6.637c.58-.398 1.16-.507 1.85-.507 2.248.036 4.46 0 6.708 0v.29z" fill="#939393"/><path d="M89.862 49.837l-1.741.435c-.326.072-.907.072-.834.471.362 2.321-1.487 1.705-2.539 1.85-6.164.834-12.33 1.632-18.422 2.72-1.849.326-3.553-.4-5.366-.69a37.432 37.432 0 0 1-1.96-.398c-4.097-.762-4.134-.762-4.605-4.896-.109-1.088-.58-1.45-1.523-1.596-.58-.108-1.16-.29-1.958-.471 2.538-3.735 5.04-7.361 7.506-10.988.435-.616 1.016-.508 1.596-.508 7.579-.29 15.049.4 22.447 2.14.798.181 1.269.471 1.595 1.233 1.088 2.43 2.249 4.787 3.41 7.18.58 1.27.942 2.684 2.393 3.518zm6.164-36.735c1.306.399 2.176.761 3.083.979 3.699.907 6.817 2.683 9.537 5.44 1.705 1.704 2.14 3.444 2.067 5.874-2.067-1.342-3.989-2.502-5.838-3.808-.907-.652-1.668-.689-2.648-.253-2.067.942-4.242 1.74-6.31 2.683-.87.399-1.631.363-1.885-.508-.69-2.248-2.792-3.372-4.025-5.149-.29-.399-.544-.798-.907-1.124-1.088-1.088-1.523-1.958.399-2.611 1.088-.363 1.052-1.015.326-1.886-1.595-2.03-3.046-4.206-4.678-6.2-.87-1.053-.471-1.742.436-2.032 2.502-.797 4.206-2.72 6.273-4.134.762-.507 1.16-.544 1.777.182.653.797.435 1.305-.326 1.668-1.487.725-1.088 1.487-.254 2.466a32 32 0 0 1 2.502 3.336c.87 1.414 1.704 2.248 3.372.979.943-.725 1.161.399 1.596.87.617.69-.072.907-.508 1.16-1.305.581-2.502 1.234-3.989 2.068zM90.66 4.18c-.471.363-.979.798-1.559 1.124-1.16.617-1.197 1.233-.362 2.176.834.943 1.523 2.03 2.284 3.046 1.523 2.103 1.523 2.067 3.699.725.761-.471 1.052-.797.399-1.632-1.233-1.559-2.394-3.19-3.59-4.786-.181-.29-.363-.653-.87-.653zM16.464 34.389c-2.067-.363-3.952.072-5.548 1.523-.544.471-1.197.507-1.886.471-1.994 0-3.989-.073-5.983 0-1.415.036-1.487-.399-.834-1.487.652-1.015 1.233-2.067 1.668-3.191.689-1.74 1.85-2.575 3.735-2.829 2.937-.399 2.937-.507 2.393-3.445-.109-.58-.181-1.196-.326-1.777-.254-.906.072-1.232.979-1.45.943-.218 1.197.181 1.342.907.254 1.305.544 2.61.761 3.916.11.58.29.87.907.761 2.393-.398 4.17-.689 3.3-4.134-.58-2.393-.87-4.859-1.378-7.252-.181-.943-.254-1.523.979-1.777 1.378-.29 1.197.725 1.305 1.378.472 2.285.87 4.605 1.306 6.926.145.834.326 1.378 1.45 1.27.798-.073 1.85.036 2.031 1.305.109.798.762.471 1.124.326 1.233-.435 1.814.073 2.357 1.16 1.415 2.83 1.451 2.793-1.305 4.461-.689.399-1.378.762-1.994 1.233-1.886 1.306-3.917 2.248-6.383 1.705z" fill="#939393"/><path d="M59.582 34.715c-1.088-.29-1.741.326-2.358 1.305-1.087 1.668-1.958 3.917-3.517 4.678-1.596.762-3.808-.507-5.766-.87-2.466-.471-3.3-1.487-3.626-4.025-.073-.725.326-.834.761-.943 4.715-1.487 9.429-2.901 14.143-4.424.834-.254 1.233 0 1.45.761.146.508.29 1.052.436 1.56.689 1.958.689 1.958-1.523 1.958zm-3.264-.87c-.725-.617-1.052-.436-1.378-.327-2.756.834-5.512 1.596-8.268 2.43-.326.109-.762.145-.69.653.037.29.327.326.581.253 3.155-.979 6.31-1.958 9.755-3.01zm-19.22 4.496c4.895 1.016 9.791 2.067 14.687 3.046 1.051.218.906.907.616 1.45-.725 1.306-1.632 2.54-2.466 3.772-.362.544-.834.254-1.305.145-2.357-.544-4.75-.906-7.035-1.704-2.43-.87-3.99-3.046-5.73-4.823-.58-.617.326-1.958 1.233-1.886zm-.109 2.067c3.336 1.016 6.673 1.922 10.19 2.067-3.336-1.015-6.672-2.03-10.19-2.067zm1.995 14.07c-.037.145-.037.218-.037.254-1.269 4.678.037 3.88-4.569 2.974-3.082-.617-6.092-1.378-9.174-1.995-1.088-.217-1.487-.544-1.16-1.776.87-3.59.797-3.627 4.423-2.793 3.119.725 6.238 1.414 9.32 2.14.689.145 1.523.181 1.197 1.196zM25.929 51.94c-.036.218-.109.435-.145.617 2.466.507 4.932 1.051 7.398 1.559.036-.218.072-.435.145-.653l-7.398-1.523zm63.425 4.098c-.98-.726-.762-2.104-.98-3.228-.108-.544-1.05-1.56.363-1.85 4.28-.942 8.595-1.849 12.874-2.755.508-.109.761.145.87.653.218 1.124.472 2.248.689 3.336.109.508.073.906-.616 1.051-4.28.907-8.558 1.814-13.2 2.793zm7.325-5.694a33.14 33.14 0 0 0-7.47 1.632c1.378.29 6.056-.725 7.47-1.632zM78.728 10.6c-3.807.544-7.361 1.305-11.024 1.341-1.668.037-.906-1.559-1.486-2.248-.58-.725.47-.87.834-.943 2.03-.399 3.118-1.342 2.756-3.59-.182-1.233.544-1.45 1.559-.979 1.16.544 2.14.762 2.72-.834.29-.798 1.088-.58 1.74-.399.69.181.943.69.907 1.378 0 .98-.544 1.74-1.233 2.321-1.124 1.015-.725 1.56.399 2.103.979.435 2.03.762 2.828 1.85zm46.164 19.147v.471c-.254 1.414-.58 2.792-1.342 4.025-.943-.616-1.922-1.196-2.828-1.85-2.067-1.45-4.098-2.973-6.201-4.423-.834-.58-.834-.87-.073-1.56 1.233-1.087 2.357-1.45 3.735-.29 1.451 1.197 3.337 1.378 5.077 1.668 1.269.254 1.886.762 1.632 1.959zm-44.93.508c-1.668 1.958-3.41 1.523-5.295.834-2.538-.943-2.538-.834-3.409 1.813-.217.616-.072 1.486-1.269 1.922.472-1.523.834-2.829 1.233-4.098 1.233-4.025 2.502-8.05 3.735-12.076.653-2.067 1.45-2.466 3.518-1.85 3.916 1.197 7.797 2.467 11.713 3.663 2.901.907 3.373 2.611 1.27 5.331-.255-.907.217-1.56.434-2.248.327-1.124 0-1.85-1.16-2.212a1726.917 1726.917 0 0 0-12.765-3.99c-1.088-.326-1.885 0-2.212 1.161-.834 2.756-1.668 5.548-2.61 8.268-.327 1.015.035 1.378.942 1.632 1.922.58 3.844 1.233 5.875 1.85zm-16.718 4.496c1.233-3.01 2.357-5.766 3.481-8.522.182-.435.436-.725.943-.508 1.124.472 2.212.943 3.336 1.378.726.29.4.762.29 1.197-.18.69-.652.363-1.015.218-.725-.29-1.414-.653-2.14-.907-.18-.072-.507.036-.616.181-.254.363.109.472.363.653.036.037.109.037.145.073.906.544 2.575.435 2.61 1.523.037 1.414-.76 2.865-1.196 4.315-.181.363-.544.4-.906.4h-5.295z" fill="#939393"/></svg>