<svg width="56" height="40" fill="none" xmlns="http://www.w3.org/2000/svg"><path d="M16.808 25.748c.529 0 1.069.012 1.598 0 .264-.012.38.059.368.364a107.91 107.91 0 0 0 0 3.366c0 .305-.115.364-.38.364a97.99 97.99 0 0 0-3.253.012c-.322 0-.38-.13-.38-.411.012-1.09.023-2.182 0-3.273 0-.34.115-.422.426-.41.552 0 1.08-.012 1.62-.012zm.011 1.408c-.299.023-.713-.165-.667.469.046.774.012.786.575.774.31 0 .713.164.667-.47-.046-.867.08-.75-.575-.773zm2.611.563c0-.54.01-1.091 0-1.63-.012-.27.08-.353.344-.353a155.5 155.5 0 0 0 3.346 0c.241 0 .322.082.322.329-.012 1.138 0 2.275 0 3.413 0 .258-.092.352-.345.352a155.5 155.5 0 0 0-3.346 0c-.241 0-.322-.082-.31-.328 0-.599-.012-1.185-.012-1.783zm1.92-.563c-.369-.082-.587.023-.553.563.058.739-.103.68.598.692.644 0 .644 0 .644-.587 0-.774.057-.657-.69-.668zm10.484.258c-.977 0-1.954-.012-2.932.011-.31 0-.379-.093-.379-.398 0-1.02-.011-1.02.966-1.02 1.759 0 3.518.011 5.277-.013.368 0 .471.094.46.47-.023.95 0 .95-.943.95a85.43 85.43 0 0 1-2.449 0c0 .011 0 0 0 0zm5.841 2.404c-.506 0-1.012-.012-1.518 0-.299.012-.425-.058-.425-.41 0-1.009-.012-1.009.977-1.009.805 0 1.621.012 2.426-.012.322-.012.46.059.46.434 0 .985.011.985-.954.985-.322.012-.644.012-.966.012zm-.863-2.404c-.69 0-.69 0-.69-.763 0-.645 0-.645.794-.645.586 0 .586 0 .586.821-.011.692.08.575-.69.587zm1.598-.704c0-.704 0-.704.748-.704.632 0 .632 0 .632.821 0 .587 0 .598-.816.587-.655 0-.552.105-.563-.704zM13.727 15.819c0-.099.023-.189.014-.28-.034-3.35.107-5.37.082-8.712-.002-.23-.044-.321-.299-.332-1.1-.06-1.1-.06-1.09 1.04.03 2.89-.108 4.443-.087 7.326.01.969.01.969.994.962.124.01.247.003.386-.004zM6.804 7.375c.07-.068.153-.113.212-.182 2.407-2.33 3.97-3.619 6.377-5.938.165-.16.202-.252.035-.445-.714-.84-.714-.84-1.505-.074-2.077 2.01-3.298 2.98-5.374 4.978-.697.674-.697.674-.014 1.384.078.096.168.18.27.277z" fill="#BBB"/><path d="M12 27l-5-3L8.546 8.596 13.142 4l2.475 2.475V23" stroke="#BBB" stroke-width="1.2"/><path d="M42.343 15.819c.001-.099-.022-.189-.013-.28.033-3.35-.108-5.37-.082-8.712.002-.23.044-.321.299-.332 1.1-.06 1.1-.06 1.09 1.04-.03 2.89.108 4.443.087 7.326-.01.969-.01.969-.995.962-.123.01-.246.003-.386-.004zm6.924-8.444c-.071-.068-.153-.113-.212-.182-2.407-2.33-3.97-3.619-6.377-5.938-.165-.16-.202-.252-.035-.445.714-.84.714-.84 1.505-.074 2.077 2.01 3.297 2.98 5.374 4.978.696.674.696.674.014 1.384-.078.096-.168.18-.27.277z" fill="#BBB"/><path d="M44.071 27l5-3-1.546-15.404L42.93 4l-2.475 2.475V23" stroke="#BBB" stroke-width="1.2"/><path d="M13 28.5v3h30V26l-2-2H15l-2 2m7-11v-3.5l.933-1.5h12.133L34 11.333V15H20zm1 8v-6h12v6M11.999 34h6v5h-6zm26 0h6v5h-6z" stroke="#BBB" stroke-width="1.5"/></svg>